M48
;DRILL file {KiCad 4.0.7} date 12/06/18 21:28:28
;FORMAT={-:-/ absolute / metric / decimal}
FMAT,2
METRIC,TZ
T1C0.400
T2C0.500
T3C0.800
T4C0.810
T5C0.900
T6C1.000
T7C1.100
T8C2.300
%
G90
G05
M71
T1
X58.039Y-53.34
X60.046Y-53.238
X62.611Y-75.565
X63.144Y-43.18
X63.551Y-47.447
X64.262Y-56.642
X64.308Y-52.431
X64.516Y-55.372
X65.024Y-56.959
X65.405Y-58.674
X65.722Y-57.848
X65.786Y-52.451
X65.913Y-59.436
X67.691Y-55.245
X68.755Y-53.378
X69.088Y-61.214
X69.215Y-59.817
X69.667Y-54.099
X69.977Y-59.309
X70.066Y-54.808
X70.231Y-52.006
X70.294Y-43.624
X70.627Y-55.471
X70.739Y-59.817
X71.107Y-56.34
X71.298Y-63.551
X71.564Y-57.219
X71.691Y-59.118
X72.034Y-69.596
X72.542Y-67.818
X72.862Y-57.539
X72.89Y-55.024
X73.254Y-67.208
X77.216Y-53.188
X78.08Y-60.198
X79.146Y-85.75
X79.184Y-35.623
T2
X66.675Y-39.624
X68.575Y-39.624
T3
X57.467Y-94.869
X57.467Y-102.489
X57.658Y-84.836
X57.658Y-92.456
X60.134Y-97.218
X60.134Y-104.838
X63.119Y-97.79
X63.119Y-100.29
X64.618Y-42.661
X64.618Y-45.161
X64.734Y-36.754
X64.937Y-48.197
X64.96Y-68.302
X64.96Y-70.802
X65.024Y-78.272
X65.024Y-80.772
X65.024Y-84.074
X65.024Y-86.574
X67.234Y-36.754
X67.437Y-48.197
X67.767Y-42.61
X67.767Y-45.11
X67.807Y-70.51
X70.104Y-36.83
X70.104Y-64.999
X70.155Y-89.408
X70.155Y-97.028
X70.307Y-70.51
X72.009Y-41.656
X72.009Y-46.536
X72.604Y-36.83
X72.604Y-64.999
X73.927Y-89.383
X73.927Y-97.003
X76.911Y-89.306
X76.911Y-96.926
T4
X71.628Y-100.838
X71.628Y-102.838
X74.168Y-100.838
X74.168Y-102.838
T5
X63.119Y-104.267
X63.119Y-106.807
T6
X61.11Y-34.158
X61.11Y-36.698
X61.11Y-39.238
X61.11Y-41.778
X61.11Y-44.318
X61.11Y-46.858
X61.11Y-49.398
X61.11Y-51.938
X61.11Y-54.478
X61.11Y-57.018
X61.11Y-59.558
X61.11Y-62.098
X61.11Y-64.638
X61.11Y-67.178
X61.11Y-69.718
X61.11Y-72.258
X61.11Y-74.798
X61.11Y-77.338
X61.11Y-79.878
X61.11Y-82.418
X65.354Y-33.591
X65.837Y-74.93
X67.894Y-33.591
X68.377Y-74.93
X70.434Y-33.591
X70.917Y-74.93
X72.974Y-33.591
X76.35Y-34.158
X76.35Y-36.698
X76.35Y-39.238
X76.35Y-41.778
X76.35Y-44.318
X76.35Y-46.858
X76.35Y-49.398
X76.35Y-51.938
X76.35Y-54.478
X76.35Y-57.018
X76.35Y-59.558
X76.35Y-62.098
X76.35Y-64.638
X76.35Y-67.178
X76.35Y-69.718
X76.35Y-72.258
X76.35Y-74.798
X76.35Y-77.338
X76.35Y-79.878
X76.35Y-82.418
X79.604Y-89.764
X79.604Y-92.304
X79.604Y-94.844
T7
X60.82Y-90.195
X60.82Y-94.695
X67.32Y-90.195
X67.32Y-94.695
X69.342Y-79.121
X69.342Y-86.741
X72.644Y-79.121
X72.644Y-86.741
T8
X66.898Y-105.538
X78.898Y-105.538
T0
M30
