G04 #@! TF.FileFunction,Copper,L2,Bot,Signal*
%FSLAX46Y46*%
G04 Gerber Fmt 4.6, Leading zero omitted, Abs format (unit mm)*
G04 Created by KiCad (PCBNEW 4.0.7) date 12/06/18 21:28:27*
%MOMM*%
%LPD*%
G01*
G04 APERTURE LIST*
%ADD10C,0.100000*%
%ADD11R,1.700000X1.700000*%
%ADD12O,1.700000X1.700000*%
%ADD13C,2.000000*%
%ADD14C,1.500000*%
%ADD15R,1.800000X1.800000*%
%ADD16O,1.800000X1.800000*%
%ADD17C,1.600000*%
%ADD18C,1.000000*%
%ADD19R,1.600000X1.600000*%
%ADD20C,1.800000*%
%ADD21R,2.200000X2.200000*%
%ADD22O,2.200000X2.200000*%
%ADD23C,1.520000*%
%ADD24C,2.700000*%
%ADD25O,1.600000X1.600000*%
%ADD26C,0.600000*%
%ADD27C,0.250000*%
%ADD28C,0.350000*%
%ADD29C,0.500000*%
G04 APERTURE END LIST*
D10*
D11*
X61110000Y-34158000D03*
D12*
X61110000Y-36698000D03*
X61110000Y-39238000D03*
X61110000Y-41778000D03*
X61110000Y-44318000D03*
X61110000Y-46858000D03*
X61110000Y-49398000D03*
X61110000Y-51938000D03*
X61110000Y-54478000D03*
X61110000Y-57018000D03*
X61110000Y-59558000D03*
X61110000Y-62098000D03*
X61110000Y-64638000D03*
X61110000Y-67178000D03*
X61110000Y-69718000D03*
X61110000Y-72258000D03*
X61110000Y-74798000D03*
X61110000Y-77338000D03*
X61110000Y-79878000D03*
X61110000Y-82418000D03*
D13*
X60820300Y-94695400D03*
X60820300Y-90195400D03*
X67320300Y-94695400D03*
X67320300Y-90195400D03*
D14*
X72009000Y-41656000D03*
X72009000Y-46536000D03*
D15*
X65836800Y-74930000D03*
D16*
X68376800Y-74930000D03*
X70916800Y-74930000D03*
D11*
X76350000Y-34158000D03*
D12*
X76350000Y-36698000D03*
X76350000Y-39238000D03*
X76350000Y-41778000D03*
X76350000Y-44318000D03*
X76350000Y-46858000D03*
X76350000Y-49398000D03*
X76350000Y-51938000D03*
X76350000Y-54478000D03*
X76350000Y-57018000D03*
X76350000Y-59558000D03*
X76350000Y-62098000D03*
X76350000Y-64638000D03*
X76350000Y-67178000D03*
X76350000Y-69718000D03*
X76350000Y-72258000D03*
X76350000Y-74798000D03*
X76350000Y-77338000D03*
X76350000Y-79878000D03*
X76350000Y-82418000D03*
D17*
X67767200Y-45110400D03*
X67767200Y-42610400D03*
X64617600Y-45161200D03*
X64617600Y-42661200D03*
X70104000Y-36830000D03*
X72604000Y-36830000D03*
X67233800Y-36753800D03*
X64733800Y-36753800D03*
D11*
X72974200Y-33591500D03*
D12*
X70434200Y-33591500D03*
X67894200Y-33591500D03*
X65354200Y-33591500D03*
D18*
X66675000Y-39624000D03*
X68575000Y-39624000D03*
D17*
X67437000Y-48196500D03*
X64937000Y-48196500D03*
D19*
X65024000Y-84074000D03*
D17*
X65024000Y-86574000D03*
X70307200Y-70510400D03*
X67807200Y-70510400D03*
D19*
X65024000Y-80772000D03*
D17*
X65024000Y-78272000D03*
X63119000Y-97790000D03*
X63119000Y-100290000D03*
D15*
X63119000Y-106807000D03*
D20*
X63119000Y-104267000D03*
D21*
X69342000Y-79121000D03*
D22*
X69342000Y-86741000D03*
D21*
X72644000Y-79121000D03*
D22*
X72644000Y-86741000D03*
D23*
X71628000Y-100838000D03*
X74168000Y-100838000D03*
X74168000Y-102838000D03*
X71628000Y-102838000D03*
D24*
X66898000Y-105538000D03*
X78898000Y-105538000D03*
D17*
X70154800Y-89408000D03*
D25*
X70154800Y-97028000D03*
D17*
X76911200Y-89306400D03*
D25*
X76911200Y-96926400D03*
D17*
X73926700Y-89382600D03*
D25*
X73926700Y-97002600D03*
D17*
X57658000Y-84836000D03*
D25*
X57658000Y-92456000D03*
D17*
X60134500Y-97218500D03*
D25*
X60134500Y-104838500D03*
D17*
X64960500Y-70802500D03*
X64960500Y-68302500D03*
X70104000Y-64998600D03*
X72604000Y-64998600D03*
D11*
X79603600Y-94843600D03*
D12*
X79603600Y-92303600D03*
X79603600Y-89763600D03*
D17*
X57467500Y-94869000D03*
D25*
X57467500Y-102489000D03*
D26*
X70231000Y-52006500D03*
X63144400Y-43180000D03*
X70294500Y-43624500D03*
X79184500Y-35623500D03*
X68755260Y-53378100D03*
X65786000Y-52451000D03*
X67691000Y-55245000D03*
X58039000Y-53340000D03*
X60045600Y-53238400D03*
X64307720Y-52430680D03*
X63550800Y-47447200D03*
X71691500Y-59118500D03*
X78079600Y-60198000D03*
X69667120Y-54099460D03*
X70065900Y-54808120D03*
X70627240Y-55471060D03*
X71564500Y-57218580D03*
X72862440Y-57538620D03*
X64516000Y-55372000D03*
X70739000Y-59817000D03*
X64262000Y-56642000D03*
X69977000Y-59309000D03*
X65024000Y-56959500D03*
X69215000Y-59817000D03*
X65405000Y-58674000D03*
X69088000Y-61214000D03*
X65913000Y-59436000D03*
X71297800Y-63550800D03*
X73253600Y-67208400D03*
X72542400Y-67818000D03*
X72034400Y-69596000D03*
X72890380Y-55024020D03*
X77216000Y-53187600D03*
X79146400Y-85750400D03*
X71107300Y-56339740D03*
X62611000Y-75565000D03*
X65722500Y-57848500D03*
D27*
X59309000Y-95821500D02*
X59372500Y-95821500D01*
X59817000Y-96266000D02*
X60134500Y-97218500D01*
X59372500Y-95821500D02*
X59817000Y-96266000D01*
X59309000Y-86080600D02*
X59309000Y-95821500D01*
X70294500Y-50990500D02*
X73215500Y-48069500D01*
X70294500Y-51943000D02*
X70294500Y-50990500D01*
X70231000Y-52006500D02*
X70294500Y-51943000D01*
X58877200Y-85344000D02*
X58928000Y-85344000D01*
X59309000Y-85725000D02*
X59309000Y-86080600D01*
X58928000Y-85344000D02*
X59309000Y-85725000D01*
X59436000Y-42316400D02*
X59436000Y-47498000D01*
X58877200Y-48056800D02*
X58877200Y-85344000D01*
X59436000Y-47498000D02*
X58877200Y-48056800D01*
X59436000Y-38372000D02*
X61110000Y-36698000D01*
X59436000Y-42570400D02*
X59436000Y-42316400D01*
X59436000Y-42316400D02*
X59436000Y-38372000D01*
X59944000Y-43078400D02*
X59436000Y-42570400D01*
X63042800Y-43078400D02*
X59944000Y-43078400D01*
X63144400Y-43180000D02*
X63042800Y-43078400D01*
X71691500Y-43624500D02*
X70294500Y-43624500D01*
X73215500Y-44894500D02*
X71691500Y-43624500D01*
X73215500Y-48069500D02*
X73215500Y-44894500D01*
D28*
X80899000Y-96774000D02*
X80772000Y-96774000D01*
X80391000Y-104045000D02*
X78898000Y-105538000D01*
X80391000Y-97155000D02*
X80391000Y-104045000D01*
X80772000Y-96774000D02*
X80391000Y-97155000D01*
X78898000Y-105538000D02*
X79247000Y-105538000D01*
X80899000Y-91059000D02*
X79603600Y-89763600D01*
X80899000Y-96774000D02*
X80899000Y-91059000D01*
D29*
X72604000Y-36830000D02*
X76218000Y-36830000D01*
X76218000Y-36830000D02*
X76350000Y-36698000D01*
D27*
X60045600Y-53238400D02*
X60096400Y-53238400D01*
X64617600Y-45161200D02*
X64693800Y-45161200D01*
X61110000Y-39238000D02*
X61854000Y-39238000D01*
X59334400Y-85039200D02*
X59690000Y-85039200D01*
X60060840Y-86624160D02*
X60820300Y-90195400D01*
X59690000Y-85039200D02*
X60060840Y-86624160D01*
X61110000Y-74798000D02*
X60431600Y-74798000D01*
X60431600Y-74798000D02*
X59334400Y-75895200D01*
X59334400Y-75895200D02*
X59334400Y-85039200D01*
X59385200Y-73073200D02*
X61110000Y-74798000D01*
X59385200Y-48615600D02*
X59385200Y-73073200D01*
X59893200Y-48107600D02*
X59385200Y-48615600D01*
X62890400Y-48107600D02*
X59893200Y-48107600D01*
X63550800Y-47447200D02*
X62890400Y-48107600D01*
X61110000Y-74798000D02*
X61110000Y-75161000D01*
X61110000Y-74798000D02*
X61028500Y-74798000D01*
X70154800Y-89408000D02*
X70154800Y-89458800D01*
X70154800Y-89458800D02*
X71704200Y-91008200D01*
X78054200Y-93294200D02*
X79603600Y-94843600D01*
X78054200Y-91390598D02*
X78054200Y-93294200D01*
X77671802Y-91008200D02*
X78054200Y-91390598D01*
X71704200Y-91008200D02*
X77671802Y-91008200D01*
D28*
X70154800Y-89408000D02*
X70154800Y-89712800D01*
D27*
X77851000Y-56959500D02*
X77851000Y-57404000D01*
X74930000Y-35433000D02*
X74358500Y-34861500D01*
X77470000Y-35433000D02*
X74930000Y-35433000D01*
X77851000Y-35814000D02*
X77470000Y-35433000D01*
X77851000Y-56959500D02*
X77851000Y-35814000D01*
X71196200Y-34861500D02*
X74358500Y-34861500D01*
X70434200Y-34099500D02*
X71196200Y-34861500D01*
X77851000Y-57404000D02*
X76898500Y-58356500D01*
X76898500Y-58356500D02*
X73406000Y-58356500D01*
X73406000Y-58356500D02*
X72644000Y-59118500D01*
X72644000Y-59118500D02*
X71691500Y-59118500D01*
X70434200Y-33591500D02*
X70434200Y-34099500D01*
X69278500Y-32207200D02*
X67894200Y-33591500D01*
X77368400Y-32207200D02*
X69278500Y-32207200D01*
X77825600Y-32664400D02*
X77368400Y-32207200D01*
X77825600Y-34798000D02*
X77825600Y-32664400D01*
X78486000Y-35458400D02*
X77825600Y-34798000D01*
X78486000Y-59791600D02*
X78486000Y-35458400D01*
X78079600Y-60198000D02*
X78486000Y-59791600D01*
X61110000Y-34158000D02*
X61028500Y-34158000D01*
X73893680Y-48417480D02*
X73893680Y-48534320D01*
X73893680Y-48534320D02*
X73563480Y-49042320D01*
X71087473Y-52223207D02*
X70779537Y-52687174D01*
X71757540Y-51401980D02*
X71087473Y-52223207D01*
X73563480Y-49042320D02*
X71757540Y-51401980D01*
X69667120Y-54099460D02*
X70672857Y-52687174D01*
X70672857Y-52687174D02*
X70779537Y-52687174D01*
X74000360Y-43980320D02*
X76350000Y-41778000D01*
X73868280Y-45328840D02*
X74000360Y-43980320D01*
X73893680Y-45450760D02*
X73868280Y-45328840D01*
X73893680Y-48417480D02*
X73893680Y-45450760D01*
X76350000Y-41778000D02*
X75824000Y-41778000D01*
X76350000Y-41778000D02*
X76350000Y-42095280D01*
X74366120Y-49606200D02*
X74366120Y-45354240D01*
X74366120Y-45354240D02*
X75564920Y-44318000D01*
X75564920Y-44318000D02*
X76350000Y-44318000D01*
X70695820Y-53710840D02*
X70695820Y-53634640D01*
X72414427Y-51316830D02*
X74366120Y-49606200D01*
X71329180Y-52856535D02*
X72414427Y-51316830D01*
X70695820Y-53634640D02*
X71329180Y-52856535D01*
X70665340Y-53710840D02*
X70695820Y-53710840D01*
X70065900Y-54808120D02*
X70665340Y-53710840D01*
X70627240Y-55471060D02*
X70901560Y-55138320D01*
X70901560Y-55138320D02*
X71722527Y-53235399D01*
X74960480Y-47937640D02*
X76350000Y-46858000D01*
X74960480Y-49865280D02*
X74960480Y-47937640D01*
X72981820Y-51595020D02*
X74960480Y-49865280D01*
X71722527Y-53235399D02*
X72981820Y-51595020D01*
X76078000Y-46858000D02*
X76350000Y-46858000D01*
X76350000Y-51938000D02*
X74660680Y-51938000D01*
X71739760Y-56448960D02*
X71564500Y-57218580D01*
X72148426Y-55285036D02*
X71739760Y-56448960D01*
X72204580Y-54805580D02*
X72148426Y-55285036D01*
X72351900Y-54658260D02*
X72204580Y-54805580D01*
X72364600Y-54373780D02*
X72351900Y-54658260D01*
X73140751Y-53279657D02*
X72364600Y-54373780D01*
X73432877Y-53021794D02*
X73140751Y-53279657D01*
X74660680Y-51938000D02*
X73432877Y-53021794D01*
X73380820Y-57447180D02*
X76350000Y-54478000D01*
X72953880Y-57447180D02*
X73380820Y-57447180D01*
X72862440Y-57538620D02*
X72953880Y-57447180D01*
X76078000Y-54478000D02*
X76350000Y-54478000D01*
X59880500Y-58074500D02*
X61110000Y-59558000D01*
X59880500Y-56515000D02*
X59880500Y-58074500D01*
X60198000Y-56070500D02*
X59880500Y-56515000D01*
X60515500Y-55880000D02*
X60198000Y-56070500D01*
X60706000Y-55753000D02*
X60515500Y-55880000D01*
X61976000Y-55753000D02*
X60706000Y-55753000D01*
X62357000Y-55372000D02*
X61976000Y-55753000D01*
X64516000Y-55372000D02*
X62357000Y-55372000D01*
X74607500Y-62098000D02*
X76350000Y-62098000D01*
X73279000Y-60769500D02*
X74607500Y-62098000D01*
X73279000Y-60325000D02*
X73279000Y-60769500D01*
X72771000Y-59817000D02*
X73279000Y-60325000D01*
X70739000Y-59817000D02*
X72771000Y-59817000D01*
X62357000Y-62357000D02*
X62357000Y-62293500D01*
X62357000Y-62293500D02*
X63373000Y-61277500D01*
X62357000Y-63391000D02*
X61110000Y-64638000D01*
X62357000Y-62357000D02*
X62357000Y-63391000D01*
X64008000Y-60642500D02*
X63373000Y-61277500D01*
X64008000Y-56896000D02*
X64008000Y-60642500D01*
X64262000Y-56642000D02*
X64008000Y-56896000D01*
X74259500Y-62547500D02*
X76350000Y-64638000D01*
X74231500Y-62547500D02*
X74259500Y-62547500D01*
X72326500Y-60642500D02*
X74231500Y-62547500D01*
X70104000Y-60642500D02*
X72326500Y-60642500D01*
X69913500Y-60452000D02*
X70104000Y-60642500D01*
X69977000Y-59309000D02*
X69913500Y-60452000D01*
X76004500Y-64638000D02*
X76350000Y-64638000D01*
X62865000Y-65423000D02*
X61110000Y-67178000D01*
X62865000Y-62484000D02*
X62865000Y-65423000D01*
X64516000Y-60833000D02*
X62865000Y-62484000D01*
X64516000Y-57467500D02*
X64516000Y-60833000D01*
X65024000Y-56959500D02*
X64516000Y-57467500D01*
X69215000Y-59817000D02*
X69469000Y-60642500D01*
X72263000Y-61341000D02*
X74993500Y-64071500D01*
X74993500Y-64071500D02*
X74993500Y-65821500D01*
X76350000Y-67178000D02*
X74993500Y-65821500D01*
X72136000Y-61214000D02*
X72263000Y-61341000D01*
X69913500Y-61214000D02*
X72136000Y-61214000D01*
X69469000Y-60642500D02*
X69913500Y-61214000D01*
X65405000Y-58674000D02*
X65024000Y-59245500D01*
X65024000Y-59245500D02*
X65024000Y-60961398D01*
X65024000Y-60961398D02*
X63436500Y-62548898D01*
X63436500Y-62548898D02*
X63306960Y-65958720D01*
X63306960Y-65958720D02*
X62611000Y-66611500D01*
X62611000Y-66611500D02*
X62611000Y-68217000D01*
X62611000Y-68217000D02*
X61110000Y-69718000D01*
X69088000Y-61214000D02*
X69088000Y-61468000D01*
X69088000Y-61468000D02*
X69723000Y-61785500D01*
X76350000Y-69718000D02*
X74485500Y-67853500D01*
X74410237Y-64235260D02*
X74485500Y-67853500D01*
X71882000Y-61785500D02*
X74410237Y-64235260D01*
X69723000Y-61785500D02*
X71882000Y-61785500D01*
X69088000Y-61214000D02*
X69151500Y-61277500D01*
X65913000Y-59436000D02*
X65913000Y-60708796D01*
X65913000Y-60708796D02*
X65474002Y-61147794D01*
X65474002Y-61147794D02*
X63944500Y-62677296D01*
X62357000Y-71011000D02*
X61110000Y-72258000D01*
X62357000Y-69469000D02*
X62357000Y-71011000D01*
X63119000Y-68707000D02*
X62357000Y-69469000D01*
X63119000Y-66992500D02*
X63119000Y-68707000D01*
X63944500Y-66167000D02*
X63119000Y-66992500D01*
X63944500Y-62677296D02*
X63944500Y-66167000D01*
X73888600Y-69796600D02*
X76350000Y-72258000D01*
X73888600Y-64541400D02*
X73888600Y-69796600D01*
X72923400Y-63576200D02*
X73888600Y-64541400D01*
X71323200Y-63576200D02*
X72923400Y-63576200D01*
X71297800Y-63550800D02*
X71323200Y-63576200D01*
X74930000Y-73378000D02*
X76350000Y-74798000D01*
X74930000Y-71983600D02*
X74930000Y-73378000D01*
X73202800Y-70256400D02*
X74930000Y-71983600D01*
X73202800Y-67259200D02*
X73202800Y-70256400D01*
X73253600Y-67208400D02*
X73202800Y-67259200D01*
X74422000Y-75410000D02*
X76350000Y-77338000D01*
X74422000Y-72440800D02*
X74422000Y-75410000D01*
X72694800Y-70713600D02*
X74422000Y-72440800D01*
X72694800Y-67970400D02*
X72694800Y-70713600D01*
X72542400Y-67818000D02*
X72694800Y-67970400D01*
X74879200Y-80947200D02*
X76350000Y-82418000D01*
X74879200Y-77266800D02*
X74879200Y-80947200D01*
X73812400Y-76200000D02*
X74879200Y-77266800D01*
X73812400Y-72542400D02*
X73812400Y-76200000D01*
X72136000Y-70866000D02*
X73812400Y-72542400D01*
X72136000Y-69697600D02*
X72136000Y-70866000D01*
X72034400Y-69596000D02*
X72136000Y-69697600D01*
X77139800Y-53263800D02*
X77216000Y-53187600D01*
X74665840Y-53263800D02*
X77139800Y-53263800D01*
X72890380Y-55024020D02*
X74665840Y-53263800D01*
X79146400Y-85750400D02*
X79146400Y-86258400D01*
X78181200Y-90881200D02*
X79603600Y-92303600D01*
X78181200Y-87223600D02*
X78181200Y-90881200D01*
X79146400Y-86258400D02*
X78181200Y-87223600D01*
X73168447Y-52403706D02*
X76350000Y-49398000D01*
X72129470Y-53725849D02*
X73168447Y-52403706D01*
X71511976Y-55228116D02*
X72129470Y-53725849D01*
X71097140Y-56329580D02*
X71511976Y-55228116D01*
X71107300Y-56339740D02*
X71097140Y-56329580D01*
X76350000Y-49398000D02*
X76078000Y-49398000D01*
D29*
X74168000Y-100838000D02*
X74168000Y-100650040D01*
D27*
X64516000Y-66363002D02*
X64510498Y-66363002D01*
X62611000Y-71691500D02*
X62611000Y-75565000D01*
X62807002Y-71495498D02*
X62611000Y-71691500D01*
X62807002Y-69717498D02*
X62807002Y-71495498D01*
X63627000Y-68897500D02*
X62807002Y-69717498D01*
X63627000Y-67246500D02*
X63627000Y-68897500D01*
X64510498Y-66363002D02*
X63627000Y-67246500D01*
X64516000Y-66363002D02*
X64516000Y-66103500D01*
X64516000Y-62865000D02*
X64516000Y-66363002D01*
X66611500Y-60769500D02*
X64516000Y-62865000D01*
X66611500Y-58737500D02*
X66611500Y-60769500D01*
X65722500Y-57848500D02*
X66611500Y-58737500D01*
D29*
G36*
X80455000Y-88433534D02*
X80265974Y-88298328D01*
X80028600Y-88402250D01*
X80028600Y-89338600D01*
X80453600Y-89338600D01*
X80453600Y-90188600D01*
X80028600Y-90188600D01*
X80028600Y-90613600D01*
X79178600Y-90613600D01*
X79178600Y-90188600D01*
X79056200Y-90188600D01*
X79056200Y-89338600D01*
X79178600Y-89338600D01*
X79178600Y-88402250D01*
X79056200Y-88348663D01*
X79056200Y-87586036D01*
X79765118Y-86877118D01*
X79954795Y-86593248D01*
X79984849Y-86442153D01*
X79996045Y-86385867D01*
X80036028Y-86345954D01*
X80196218Y-85960174D01*
X80196582Y-85542458D01*
X80037066Y-85156400D01*
X79741954Y-84860772D01*
X79356174Y-84700582D01*
X78938458Y-84700218D01*
X78552400Y-84859734D01*
X78256772Y-85154846D01*
X78096582Y-85540626D01*
X78096218Y-85958342D01*
X78129200Y-86038164D01*
X77562482Y-86604882D01*
X77372805Y-86888752D01*
X77306200Y-87223600D01*
X77306200Y-87792103D01*
X77220867Y-87756670D01*
X76604239Y-87756132D01*
X76034343Y-87991608D01*
X75597940Y-88427249D01*
X75403020Y-88896670D01*
X75241492Y-88505743D01*
X74805851Y-88069340D01*
X74236367Y-87832870D01*
X74120945Y-87832769D01*
X74353177Y-87485208D01*
X74494000Y-86777244D01*
X74494000Y-86704756D01*
X74353177Y-85996792D01*
X73952148Y-85396608D01*
X73351964Y-84995579D01*
X72644000Y-84854756D01*
X71936036Y-84995579D01*
X71335852Y-85396608D01*
X70993000Y-85909724D01*
X70650148Y-85396608D01*
X70049964Y-84995579D01*
X69342000Y-84854756D01*
X68634036Y-84995579D01*
X68033852Y-85396608D01*
X67632823Y-85996792D01*
X67492000Y-86704756D01*
X67492000Y-86777244D01*
X67632823Y-87485208D01*
X68033852Y-88085392D01*
X68634036Y-88486421D01*
X68842503Y-88527888D01*
X68841540Y-88528849D01*
X68632330Y-89032684D01*
X68312890Y-88712687D01*
X67669924Y-88445704D01*
X66973731Y-88445096D01*
X66330299Y-88710957D01*
X65837587Y-89202810D01*
X65570604Y-89845776D01*
X65569996Y-90541969D01*
X65835857Y-91185401D01*
X66327710Y-91678113D01*
X66970676Y-91945096D01*
X67666869Y-91945704D01*
X68310301Y-91679843D01*
X68803013Y-91187990D01*
X69069996Y-90545024D01*
X69070022Y-90515273D01*
X69275649Y-90721260D01*
X69845133Y-90957730D01*
X70416792Y-90958229D01*
X71085481Y-91626918D01*
X71369351Y-91816595D01*
X71424906Y-91827645D01*
X71704200Y-91883200D01*
X77179200Y-91883200D01*
X77179200Y-93294200D01*
X77231223Y-93555740D01*
X77245805Y-93629048D01*
X77435482Y-93912918D01*
X77988907Y-94466343D01*
X77988907Y-95693600D01*
X78009603Y-95803591D01*
X78007216Y-95800018D01*
X77504359Y-95464021D01*
X76911200Y-95346034D01*
X76318041Y-95464021D01*
X75815184Y-95800018D01*
X75479187Y-96302875D01*
X75411371Y-96643806D01*
X75358713Y-96379075D01*
X75022716Y-95876218D01*
X74519859Y-95540221D01*
X73926700Y-95422234D01*
X73333541Y-95540221D01*
X72830684Y-95876218D01*
X72494687Y-96379075D01*
X72376700Y-96972234D01*
X72376700Y-97032966D01*
X72494687Y-97626125D01*
X72830684Y-98128982D01*
X73333541Y-98464979D01*
X73926700Y-98582966D01*
X74519859Y-98464979D01*
X75022716Y-98128982D01*
X75358713Y-97626125D01*
X75426529Y-97285194D01*
X75479187Y-97549925D01*
X75815184Y-98052782D01*
X76318041Y-98388779D01*
X76911200Y-98506766D01*
X77504359Y-98388779D01*
X78007216Y-98052782D01*
X78343213Y-97549925D01*
X78461200Y-96956766D01*
X78461200Y-96896034D01*
X78347367Y-96323757D01*
X78456092Y-96398046D01*
X78753600Y-96458293D01*
X80453600Y-96458293D01*
X80455000Y-96458030D01*
X80455000Y-104935595D01*
X79852594Y-105538000D01*
X80455000Y-106140405D01*
X80455000Y-107379000D01*
X79682027Y-107379000D01*
X79721699Y-107316294D01*
X78898000Y-106492594D01*
X78074301Y-107316294D01*
X78113973Y-107379000D01*
X67682027Y-107379000D01*
X67721699Y-107316294D01*
X66898000Y-106492594D01*
X66074301Y-107316294D01*
X66113973Y-107379000D01*
X64783693Y-107379000D01*
X64783693Y-105907000D01*
X64748129Y-105717992D01*
X64756252Y-105717992D01*
X64850403Y-106191321D01*
X65119706Y-106361699D01*
X65943406Y-105538000D01*
X67852594Y-105538000D01*
X68676294Y-106361699D01*
X68945597Y-106191321D01*
X68999075Y-105717992D01*
X76756252Y-105717992D01*
X76850403Y-106191321D01*
X77119706Y-106361699D01*
X77943406Y-105538000D01*
X77119706Y-104714301D01*
X76850403Y-104884679D01*
X76756252Y-105717992D01*
X68999075Y-105717992D01*
X69039748Y-105358008D01*
X68945597Y-104884679D01*
X68676294Y-104714301D01*
X67852594Y-105538000D01*
X65943406Y-105538000D01*
X65119706Y-104714301D01*
X64850403Y-104884679D01*
X64756252Y-105717992D01*
X64748129Y-105717992D01*
X64731396Y-105629067D01*
X64567138Y-105373802D01*
X64435712Y-105284002D01*
X64516986Y-105202870D01*
X64768713Y-104596645D01*
X64769285Y-103940235D01*
X64694693Y-103759706D01*
X66074301Y-103759706D01*
X66898000Y-104583406D01*
X67721699Y-103759706D01*
X67551321Y-103490403D01*
X66718008Y-103396252D01*
X66244679Y-103490403D01*
X66074301Y-103759706D01*
X64694693Y-103759706D01*
X64518617Y-103333571D01*
X64054870Y-102869014D01*
X63448645Y-102617287D01*
X62792235Y-102616715D01*
X62185571Y-102867383D01*
X61721014Y-103331130D01*
X61469287Y-103937355D01*
X61469172Y-104069293D01*
X61230516Y-103712118D01*
X60727659Y-103376121D01*
X60134500Y-103258134D01*
X59541341Y-103376121D01*
X59038484Y-103712118D01*
X58702487Y-104214975D01*
X58584500Y-104808134D01*
X58584500Y-104868866D01*
X58702487Y-105462025D01*
X59038484Y-105964882D01*
X59541341Y-106300879D01*
X60134500Y-106418866D01*
X60727659Y-106300879D01*
X61230516Y-105964882D01*
X61566513Y-105462025D01*
X61651316Y-105035694D01*
X61719383Y-105200429D01*
X61802547Y-105283739D01*
X61685802Y-105358862D01*
X61514554Y-105609492D01*
X61454307Y-105907000D01*
X61454307Y-107379000D01*
X56451000Y-107379000D01*
X56451000Y-103739002D01*
X56575440Y-103739002D01*
X56836869Y-103913665D01*
X57067500Y-103797737D01*
X57067500Y-102889000D01*
X57867500Y-102889000D01*
X57867500Y-103797737D01*
X58098131Y-103913665D01*
X58542412Y-103616838D01*
X58892194Y-103119635D01*
X58783807Y-102889000D01*
X57867500Y-102889000D01*
X57067500Y-102889000D01*
X56667500Y-102889000D01*
X56667500Y-102089000D01*
X57067500Y-102089000D01*
X57067500Y-101180263D01*
X57867500Y-101180263D01*
X57867500Y-102089000D01*
X58783807Y-102089000D01*
X58892194Y-101858365D01*
X58654721Y-101520805D01*
X62453881Y-101520805D01*
X62538983Y-101768846D01*
X63149064Y-101878239D01*
X63699017Y-101768846D01*
X63784119Y-101520805D01*
X63400355Y-101137040D01*
X70117738Y-101137040D01*
X70347138Y-101692229D01*
X70492536Y-101837882D01*
X70348630Y-101981537D01*
X70118262Y-102536325D01*
X70117738Y-103137040D01*
X70347138Y-103692229D01*
X70771537Y-104117370D01*
X71326325Y-104347738D01*
X71927040Y-104348262D01*
X72482229Y-104118862D01*
X72572481Y-104028767D01*
X73514634Y-104028767D01*
X73593534Y-104275179D01*
X74187247Y-104385619D01*
X74742466Y-104275179D01*
X74821366Y-104028767D01*
X74552305Y-103759706D01*
X78074301Y-103759706D01*
X78898000Y-104583406D01*
X79721699Y-103759706D01*
X79551321Y-103490403D01*
X78718008Y-103396252D01*
X78244679Y-103490403D01*
X78074301Y-103759706D01*
X74552305Y-103759706D01*
X74168000Y-103375401D01*
X73514634Y-104028767D01*
X72572481Y-104028767D01*
X72907370Y-103694463D01*
X73001978Y-103466621D01*
X73630599Y-102838000D01*
X73361899Y-102569300D01*
X73666454Y-102264744D01*
X73866325Y-102347738D01*
X74467040Y-102348262D01*
X74669436Y-102264634D01*
X74974102Y-102569300D01*
X74705401Y-102838000D01*
X75358767Y-103491366D01*
X75605179Y-103412466D01*
X75660911Y-103112859D01*
X76142839Y-102630931D01*
X75326765Y-101814857D01*
X75447370Y-101694463D01*
X75677738Y-101139675D01*
X75678262Y-100538960D01*
X75448862Y-99983771D01*
X75024463Y-99558630D01*
X74469675Y-99328262D01*
X73868960Y-99327738D01*
X73313771Y-99557138D01*
X72897647Y-99972536D01*
X72484463Y-99558630D01*
X71929675Y-99328262D01*
X71328960Y-99327738D01*
X70773771Y-99557138D01*
X70348630Y-99981537D01*
X70118262Y-100536325D01*
X70117738Y-101137040D01*
X63400355Y-101137040D01*
X63119000Y-100855685D01*
X62453881Y-101520805D01*
X58654721Y-101520805D01*
X58542412Y-101361162D01*
X58098131Y-101064335D01*
X57867500Y-101180263D01*
X57067500Y-101180263D01*
X56836869Y-101064335D01*
X56575440Y-101238998D01*
X56451000Y-101238998D01*
X56451000Y-100320064D01*
X61530761Y-100320064D01*
X61640154Y-100870017D01*
X61888195Y-100955119D01*
X62553315Y-100290000D01*
X63684685Y-100290000D01*
X64349805Y-100955119D01*
X64597846Y-100870017D01*
X64707239Y-100259936D01*
X64597846Y-99709983D01*
X64349805Y-99624881D01*
X63684685Y-100290000D01*
X62553315Y-100290000D01*
X61888195Y-99624881D01*
X61640154Y-99709983D01*
X61530761Y-100320064D01*
X56451000Y-100320064D01*
X56451000Y-96044671D01*
X56588349Y-96182260D01*
X57157833Y-96418730D01*
X57774461Y-96419268D01*
X58344357Y-96183792D01*
X58479274Y-96049110D01*
X58500605Y-96156348D01*
X58690282Y-96440218D01*
X58760009Y-96486809D01*
X58584770Y-96908833D01*
X58584232Y-97525461D01*
X58819708Y-98095357D01*
X59255349Y-98531760D01*
X59824833Y-98768230D01*
X60441461Y-98768768D01*
X61011357Y-98533292D01*
X61447760Y-98097651D01*
X61568986Y-97805706D01*
X61568732Y-98096961D01*
X61804208Y-98666857D01*
X62239849Y-99103260D01*
X62681218Y-99286532D01*
X63119000Y-99724315D01*
X63557325Y-99285990D01*
X63995857Y-99104792D01*
X64432260Y-98669151D01*
X64668730Y-98099667D01*
X64669268Y-97483039D01*
X64468703Y-96997634D01*
X68604800Y-96997634D01*
X68604800Y-97058366D01*
X68722787Y-97651525D01*
X69058784Y-98154382D01*
X69561641Y-98490379D01*
X70154800Y-98608366D01*
X70747959Y-98490379D01*
X71250816Y-98154382D01*
X71586813Y-97651525D01*
X71704800Y-97058366D01*
X71704800Y-96997634D01*
X71586813Y-96404475D01*
X71250816Y-95901618D01*
X70747959Y-95565621D01*
X70154800Y-95447634D01*
X69561641Y-95565621D01*
X69058784Y-95901618D01*
X68722787Y-96404475D01*
X68604800Y-96997634D01*
X64468703Y-96997634D01*
X64433792Y-96913143D01*
X63998151Y-96476740D01*
X63428667Y-96240270D01*
X62812039Y-96239732D01*
X62242143Y-96475208D01*
X61805740Y-96910849D01*
X61684514Y-97202794D01*
X61684768Y-96911539D01*
X61449292Y-96341643D01*
X61446874Y-96339221D01*
X61543645Y-96125852D01*
X66596955Y-96125852D01*
X66713059Y-96381848D01*
X67404658Y-96485855D01*
X67927541Y-96381848D01*
X68043645Y-96125852D01*
X67320300Y-95402507D01*
X66596955Y-96125852D01*
X61543645Y-96125852D01*
X60820300Y-95402507D01*
X60521801Y-95701006D01*
X60452345Y-95672166D01*
X60435718Y-95647282D01*
X60184000Y-95395564D01*
X60184000Y-94695400D01*
X61527407Y-94695400D01*
X62250752Y-95418745D01*
X62506748Y-95302641D01*
X62585382Y-94779758D01*
X65529845Y-94779758D01*
X65633852Y-95302641D01*
X65889848Y-95418745D01*
X66613193Y-94695400D01*
X68027407Y-94695400D01*
X68750752Y-95418745D01*
X69006748Y-95302641D01*
X69110755Y-94611042D01*
X69006748Y-94088159D01*
X68750752Y-93972055D01*
X68027407Y-94695400D01*
X66613193Y-94695400D01*
X65889848Y-93972055D01*
X65633852Y-94088159D01*
X65529845Y-94779758D01*
X62585382Y-94779758D01*
X62610755Y-94611042D01*
X62506748Y-94088159D01*
X62250752Y-93972055D01*
X61527407Y-94695400D01*
X60184000Y-94695400D01*
X60184000Y-93917486D01*
X60466747Y-93634740D01*
X60820300Y-93988293D01*
X61543645Y-93264948D01*
X66596955Y-93264948D01*
X67320300Y-93988293D01*
X68043645Y-93264948D01*
X67927541Y-93008952D01*
X67235942Y-92904945D01*
X66713059Y-93008952D01*
X66596955Y-93264948D01*
X61543645Y-93264948D01*
X61427541Y-93008952D01*
X60808531Y-92915861D01*
X60440201Y-92547531D01*
X60184000Y-92803732D01*
X60184000Y-91826058D01*
X60470676Y-91945096D01*
X61166869Y-91945704D01*
X61810301Y-91679843D01*
X62303013Y-91187990D01*
X62569996Y-90545024D01*
X62570604Y-89848831D01*
X62304743Y-89205399D01*
X61812890Y-88712687D01*
X61359518Y-88524430D01*
X61206483Y-87804805D01*
X64358881Y-87804805D01*
X64443983Y-88052846D01*
X65054064Y-88162239D01*
X65604017Y-88052846D01*
X65689119Y-87804805D01*
X65024000Y-87139685D01*
X64358881Y-87804805D01*
X61206483Y-87804805D01*
X60916701Y-86442153D01*
X60913133Y-86433850D01*
X60912830Y-86424816D01*
X60892540Y-86338093D01*
X63020323Y-86338093D01*
X63472874Y-86790643D01*
X63545154Y-87154017D01*
X63793195Y-87239119D01*
X64458315Y-86574000D01*
X64175472Y-86291157D01*
X64741157Y-85725472D01*
X65024000Y-86008315D01*
X65306843Y-85725472D01*
X65872528Y-86291157D01*
X65589685Y-86574000D01*
X66254805Y-87239119D01*
X66502846Y-87154017D01*
X66566446Y-86799323D01*
X67027677Y-86338093D01*
X66207834Y-85518250D01*
X66357198Y-85422138D01*
X66528446Y-85171508D01*
X66588693Y-84874000D01*
X66588693Y-83274000D01*
X66536396Y-82996067D01*
X66372138Y-82740802D01*
X66121508Y-82569554D01*
X65824000Y-82509307D01*
X64224000Y-82509307D01*
X63946067Y-82561604D01*
X63690802Y-82725862D01*
X63519554Y-82976492D01*
X63459307Y-83274000D01*
X63459307Y-84874000D01*
X63511604Y-85151933D01*
X63675862Y-85407198D01*
X63839446Y-85518970D01*
X63020323Y-86338093D01*
X60892540Y-86338093D01*
X60541990Y-84839856D01*
X60512372Y-84774621D01*
X60498395Y-84704352D01*
X60442467Y-84620651D01*
X60400851Y-84528988D01*
X60348521Y-84480051D01*
X60308718Y-84420482D01*
X60225016Y-84364554D01*
X60209400Y-84349950D01*
X60209400Y-83712874D01*
X60447626Y-83883272D01*
X60685000Y-83779350D01*
X60685000Y-82843000D01*
X61535000Y-82843000D01*
X61535000Y-83779350D01*
X61772374Y-83883272D01*
X62282689Y-83518255D01*
X62575241Y-83080369D01*
X62463336Y-82843000D01*
X61535000Y-82843000D01*
X60685000Y-82843000D01*
X60260000Y-82843000D01*
X60260000Y-81993000D01*
X60685000Y-81993000D01*
X60685000Y-80303000D01*
X61535000Y-80303000D01*
X61535000Y-81993000D01*
X62463336Y-81993000D01*
X62575241Y-81755631D01*
X62282689Y-81317745D01*
X62045376Y-81148000D01*
X62282689Y-80978255D01*
X62575241Y-80540369D01*
X62463336Y-80303000D01*
X61535000Y-80303000D01*
X60685000Y-80303000D01*
X60260000Y-80303000D01*
X60260000Y-79453000D01*
X60685000Y-79453000D01*
X60685000Y-79028000D01*
X61535000Y-79028000D01*
X61535000Y-79453000D01*
X62463336Y-79453000D01*
X62575241Y-79215631D01*
X62360002Y-78893466D01*
X62360002Y-78507907D01*
X63020323Y-78507907D01*
X63840166Y-79327750D01*
X63690802Y-79423862D01*
X63519554Y-79674492D01*
X63459307Y-79972000D01*
X63459307Y-81572000D01*
X63511604Y-81849933D01*
X63675862Y-82105198D01*
X63926492Y-82276446D01*
X64224000Y-82336693D01*
X65824000Y-82336693D01*
X66101933Y-82284396D01*
X66357198Y-82120138D01*
X66528446Y-81869508D01*
X66588693Y-81572000D01*
X66588693Y-79972000D01*
X66536396Y-79694067D01*
X66372138Y-79438802D01*
X66208554Y-79327030D01*
X67027677Y-78507907D01*
X66575126Y-78055357D01*
X66502846Y-77691983D01*
X66254805Y-77606881D01*
X65589685Y-78272000D01*
X65872528Y-78554843D01*
X65306843Y-79120528D01*
X65024000Y-78837685D01*
X64741157Y-79120528D01*
X64175472Y-78554843D01*
X64458315Y-78272000D01*
X63793195Y-77606881D01*
X63545154Y-77691983D01*
X63481554Y-78046677D01*
X63020323Y-78507907D01*
X62360002Y-78507907D01*
X62360002Y-78338739D01*
X62619553Y-77950293D01*
X62741346Y-77338000D01*
X62682308Y-77041195D01*
X64358881Y-77041195D01*
X65024000Y-77706315D01*
X65689119Y-77041195D01*
X65604017Y-76793154D01*
X64993936Y-76683761D01*
X64443983Y-76793154D01*
X64358881Y-77041195D01*
X62682308Y-77041195D01*
X62619553Y-76725707D01*
X62545544Y-76614944D01*
X62818942Y-76615182D01*
X63205000Y-76455666D01*
X63500628Y-76160554D01*
X63660818Y-75774774D01*
X63660996Y-75569500D01*
X64178800Y-75569500D01*
X64178800Y-75980775D01*
X64294198Y-76259372D01*
X64507427Y-76472601D01*
X64786024Y-76588000D01*
X65197300Y-76588000D01*
X65386800Y-76398500D01*
X65386800Y-75380000D01*
X64368300Y-75380000D01*
X64178800Y-75569500D01*
X63660996Y-75569500D01*
X63661182Y-75357058D01*
X63501666Y-74971000D01*
X63486000Y-74955307D01*
X63486000Y-73879225D01*
X64178800Y-73879225D01*
X64178800Y-74290500D01*
X64368300Y-74480000D01*
X65386800Y-74480000D01*
X65386800Y-73461500D01*
X66286800Y-73461500D01*
X66286800Y-74480000D01*
X66736800Y-74480000D01*
X66736800Y-74717219D01*
X66694475Y-74930000D01*
X66736800Y-75142781D01*
X66736800Y-75380000D01*
X66286800Y-75380000D01*
X66286800Y-76398500D01*
X66476300Y-76588000D01*
X66887576Y-76588000D01*
X67166173Y-76472601D01*
X67379402Y-76259372D01*
X67388455Y-76237516D01*
X67713047Y-76454401D01*
X68344475Y-76580000D01*
X68409125Y-76580000D01*
X69040553Y-76454401D01*
X69575851Y-76096726D01*
X69646800Y-75990543D01*
X69717749Y-76096726D01*
X70253047Y-76454401D01*
X70884475Y-76580000D01*
X70949125Y-76580000D01*
X71580553Y-76454401D01*
X72115851Y-76096726D01*
X72473526Y-75561428D01*
X72599125Y-74930000D01*
X72473526Y-74298572D01*
X72115851Y-73763274D01*
X71580553Y-73405599D01*
X70949125Y-73280000D01*
X70884475Y-73280000D01*
X70253047Y-73405599D01*
X69717749Y-73763274D01*
X69646800Y-73869457D01*
X69575851Y-73763274D01*
X69040553Y-73405599D01*
X68409125Y-73280000D01*
X68344475Y-73280000D01*
X67713047Y-73405599D01*
X67388455Y-73622484D01*
X67379402Y-73600628D01*
X67166173Y-73387399D01*
X66887576Y-73272000D01*
X66476300Y-73272000D01*
X66286800Y-73461500D01*
X65386800Y-73461500D01*
X65197300Y-73272000D01*
X64786024Y-73272000D01*
X64507427Y-73387399D01*
X64294198Y-73600628D01*
X64178800Y-73879225D01*
X63486000Y-73879225D01*
X63486000Y-72033305D01*
X64295381Y-72033305D01*
X64380483Y-72281346D01*
X64990564Y-72390739D01*
X65540517Y-72281346D01*
X65625619Y-72033305D01*
X64960500Y-71368185D01*
X64295381Y-72033305D01*
X63486000Y-72033305D01*
X63486000Y-72024002D01*
X63615397Y-71830346D01*
X63682002Y-71495498D01*
X63682002Y-71451256D01*
X63729695Y-71467619D01*
X64394815Y-70802500D01*
X65526185Y-70802500D01*
X66191305Y-71467619D01*
X66439346Y-71382517D01*
X66454812Y-71296266D01*
X66492408Y-71387257D01*
X66928049Y-71823660D01*
X67497533Y-72060130D01*
X68114161Y-72060668D01*
X68684057Y-71825192D01*
X68768190Y-71741205D01*
X69642081Y-71741205D01*
X69727183Y-71989246D01*
X70337264Y-72098639D01*
X70887217Y-71989246D01*
X70972319Y-71741205D01*
X70307200Y-71076085D01*
X69642081Y-71741205D01*
X68768190Y-71741205D01*
X69120460Y-71389551D01*
X69303732Y-70948182D01*
X69741515Y-70510400D01*
X69303190Y-70072075D01*
X69121992Y-69633543D01*
X68686351Y-69197140D01*
X68116867Y-68960670D01*
X67500239Y-68960132D01*
X66930343Y-69195608D01*
X66493940Y-69631249D01*
X66272245Y-70165151D01*
X66191305Y-70137381D01*
X65526185Y-70802500D01*
X64394815Y-70802500D01*
X64111972Y-70519657D01*
X64677657Y-69953972D01*
X64960500Y-70236815D01*
X65398825Y-69798490D01*
X65837357Y-69617292D01*
X66273760Y-69181651D01*
X66510230Y-68612167D01*
X66510768Y-67995539D01*
X66275292Y-67425643D01*
X65839651Y-66989240D01*
X65283891Y-66758469D01*
X65324395Y-66697850D01*
X65391000Y-66363002D01*
X65391000Y-66229405D01*
X69438881Y-66229405D01*
X69523983Y-66477446D01*
X70134064Y-66586839D01*
X70684017Y-66477446D01*
X70769119Y-66229405D01*
X70104000Y-65564285D01*
X69438881Y-66229405D01*
X65391000Y-66229405D01*
X65391000Y-65028664D01*
X68515761Y-65028664D01*
X68625154Y-65578617D01*
X68873195Y-65663719D01*
X69538315Y-64998600D01*
X68873195Y-64333481D01*
X68625154Y-64418583D01*
X68515761Y-65028664D01*
X65391000Y-65028664D01*
X65391000Y-63227436D01*
X67230219Y-61388218D01*
X67419895Y-61104348D01*
X67486500Y-60769500D01*
X67486500Y-58737500D01*
X67419895Y-58402652D01*
X67389057Y-58356500D01*
X67230219Y-58118782D01*
X66772664Y-57661228D01*
X66772682Y-57640558D01*
X66613166Y-57254500D01*
X66318054Y-56958872D01*
X66074090Y-56857569D01*
X66074182Y-56751558D01*
X65914666Y-56365500D01*
X65619554Y-56069872D01*
X65396086Y-55977080D01*
X65405628Y-55967554D01*
X65565818Y-55581774D01*
X65566182Y-55164058D01*
X65406666Y-54778000D01*
X65111554Y-54482372D01*
X64725774Y-54322182D01*
X64308058Y-54321818D01*
X63922000Y-54481334D01*
X63906307Y-54497000D01*
X62737567Y-54497000D01*
X62741346Y-54478000D01*
X62619553Y-53865707D01*
X62272717Y-53346629D01*
X62065244Y-53208000D01*
X62272717Y-53069371D01*
X62619553Y-52550293D01*
X62741346Y-51938000D01*
X62619553Y-51325707D01*
X62272717Y-50806629D01*
X62065244Y-50668000D01*
X62272717Y-50529371D01*
X62619553Y-50010293D01*
X62741346Y-49398000D01*
X62658718Y-48982600D01*
X62890400Y-48982600D01*
X63225248Y-48915995D01*
X63485371Y-48742185D01*
X63622208Y-49073357D01*
X64057849Y-49509760D01*
X64627333Y-49746230D01*
X65243961Y-49746768D01*
X65813857Y-49511292D01*
X65897990Y-49427305D01*
X66771881Y-49427305D01*
X66856983Y-49675346D01*
X67467064Y-49784739D01*
X68017017Y-49675346D01*
X68102119Y-49427305D01*
X67437000Y-48762185D01*
X66771881Y-49427305D01*
X65897990Y-49427305D01*
X66250260Y-49075651D01*
X66433532Y-48634282D01*
X66871315Y-48196500D01*
X68002685Y-48196500D01*
X68667805Y-48861619D01*
X68915846Y-48776517D01*
X69025239Y-48166436D01*
X68915846Y-47616483D01*
X68667805Y-47531381D01*
X68002685Y-48196500D01*
X66871315Y-48196500D01*
X66432990Y-47758175D01*
X66251792Y-47319643D01*
X65816151Y-46883240D01*
X65246667Y-46646770D01*
X65081491Y-46646626D01*
X65494457Y-46475992D01*
X65930860Y-46040351D01*
X66167330Y-45470867D01*
X66167376Y-45417361D01*
X66216932Y-45417361D01*
X66452408Y-45987257D01*
X66888049Y-46423660D01*
X67356689Y-46618256D01*
X66856983Y-46717654D01*
X66771881Y-46965695D01*
X67437000Y-47630815D01*
X68102119Y-46965695D01*
X68017017Y-46717654D01*
X67697375Y-46660339D01*
X68074161Y-46660668D01*
X68644057Y-46425192D01*
X69080460Y-45989551D01*
X69316930Y-45420067D01*
X69317468Y-44803439D01*
X69081992Y-44233543D01*
X68646351Y-43797140D01*
X68204982Y-43613868D01*
X67767200Y-43176085D01*
X67328875Y-43614410D01*
X66890343Y-43795608D01*
X66453940Y-44231249D01*
X66217470Y-44800733D01*
X66216932Y-45417361D01*
X66167376Y-45417361D01*
X66167868Y-44854239D01*
X65932392Y-44284343D01*
X65496751Y-43847940D01*
X65055382Y-43664668D01*
X64617600Y-43226885D01*
X64334757Y-43509728D01*
X64194236Y-43369207D01*
X64194582Y-42972058D01*
X64066139Y-42661200D01*
X65183285Y-42661200D01*
X65848405Y-43326319D01*
X66096446Y-43241217D01*
X66192217Y-42707106D01*
X66288354Y-43190417D01*
X66536395Y-43275519D01*
X67201515Y-42610400D01*
X68332885Y-42610400D01*
X68998005Y-43275519D01*
X69246046Y-43190417D01*
X69355439Y-42580336D01*
X69246046Y-42030383D01*
X68998005Y-41945281D01*
X68332885Y-42610400D01*
X67201515Y-42610400D01*
X66536395Y-41945281D01*
X66288354Y-42030383D01*
X66192583Y-42564494D01*
X66096446Y-42081183D01*
X65848405Y-41996081D01*
X65183285Y-42661200D01*
X64066139Y-42661200D01*
X64035066Y-42586000D01*
X63739954Y-42290372D01*
X63639285Y-42248570D01*
X63386795Y-41996081D01*
X63138754Y-42081183D01*
X63130003Y-42129987D01*
X62936458Y-42129818D01*
X62758376Y-42203400D01*
X62656728Y-42203400D01*
X62741346Y-41778000D01*
X62672203Y-41430395D01*
X63952481Y-41430395D01*
X64617600Y-42095515D01*
X65282719Y-41430395D01*
X65265290Y-41379595D01*
X67102081Y-41379595D01*
X67767200Y-42044715D01*
X68432319Y-41379595D01*
X68347217Y-41131554D01*
X67737136Y-41022161D01*
X67187183Y-41131554D01*
X67102081Y-41379595D01*
X65265290Y-41379595D01*
X65197617Y-41182354D01*
X64587536Y-41072961D01*
X64037583Y-41182354D01*
X63952481Y-41430395D01*
X62672203Y-41430395D01*
X62619553Y-41165707D01*
X62272717Y-40646629D01*
X62065244Y-40508000D01*
X62272717Y-40369371D01*
X62605349Y-39871550D01*
X65424783Y-39871550D01*
X65614684Y-40331143D01*
X65966007Y-40683081D01*
X66425269Y-40873783D01*
X66922550Y-40874217D01*
X67382143Y-40684316D01*
X67625116Y-40441768D01*
X67866007Y-40683081D01*
X68325269Y-40873783D01*
X68822550Y-40874217D01*
X69282143Y-40684316D01*
X69634081Y-40332993D01*
X69824783Y-39873731D01*
X69825217Y-39376450D01*
X69635316Y-38916857D01*
X69283993Y-38564919D01*
X68824731Y-38374217D01*
X68327450Y-38373783D01*
X67867857Y-38563684D01*
X67624884Y-38806232D01*
X67383993Y-38564919D01*
X66924731Y-38374217D01*
X66427450Y-38373783D01*
X65967857Y-38563684D01*
X65615919Y-38915007D01*
X65425217Y-39374269D01*
X65424783Y-39871550D01*
X62605349Y-39871550D01*
X62619553Y-39850293D01*
X62741346Y-39238000D01*
X62619553Y-38625707D01*
X62272717Y-38106629D01*
X62090096Y-37984605D01*
X64068681Y-37984605D01*
X64153783Y-38232646D01*
X64763864Y-38342039D01*
X65313817Y-38232646D01*
X65398919Y-37984605D01*
X64733800Y-37319485D01*
X64068681Y-37984605D01*
X62090096Y-37984605D01*
X62065244Y-37968000D01*
X62272717Y-37829371D01*
X62619553Y-37310293D01*
X62724266Y-36783864D01*
X63145561Y-36783864D01*
X63254954Y-37333817D01*
X63502995Y-37418919D01*
X64168115Y-36753800D01*
X65299485Y-36753800D01*
X65737810Y-37192125D01*
X65919008Y-37630657D01*
X66354649Y-38067060D01*
X66924133Y-38303530D01*
X67540761Y-38304068D01*
X68110657Y-38068592D01*
X68547060Y-37632951D01*
X68653126Y-37377514D01*
X68789208Y-37706857D01*
X69224849Y-38143260D01*
X69794333Y-38379730D01*
X70410961Y-38380268D01*
X70980857Y-38144792D01*
X71064990Y-38060805D01*
X71938881Y-38060805D01*
X72023983Y-38308846D01*
X72634064Y-38418239D01*
X73184017Y-38308846D01*
X73269119Y-38060805D01*
X72604000Y-37395685D01*
X71938881Y-38060805D01*
X71064990Y-38060805D01*
X71417260Y-37709151D01*
X71600532Y-37267782D01*
X72038315Y-36830000D01*
X71755472Y-36547157D01*
X72321157Y-35981472D01*
X72604000Y-36264315D01*
X72886843Y-35981472D01*
X73452528Y-36547157D01*
X73169685Y-36830000D01*
X73834805Y-37495119D01*
X74082846Y-37410017D01*
X74146446Y-37055323D01*
X74607677Y-36594093D01*
X73750084Y-35736500D01*
X73996064Y-35736500D01*
X74311282Y-36051718D01*
X74595152Y-36241395D01*
X74930000Y-36308000D01*
X76976000Y-36308000D01*
X76976000Y-37123000D01*
X76775000Y-37123000D01*
X76775000Y-37548000D01*
X75925000Y-37548000D01*
X75925000Y-37123000D01*
X74996664Y-37123000D01*
X74884759Y-37360369D01*
X75099998Y-37682534D01*
X75099998Y-38237261D01*
X74840447Y-38625707D01*
X74718654Y-39238000D01*
X74840447Y-39850293D01*
X75187283Y-40369371D01*
X75394756Y-40508000D01*
X75187283Y-40646629D01*
X74840447Y-41165707D01*
X74718654Y-41778000D01*
X74773945Y-42055967D01*
X73401979Y-43341912D01*
X73318914Y-43457920D01*
X73228455Y-43568266D01*
X73220068Y-43595968D01*
X73203220Y-43619498D01*
X73178700Y-43724838D01*
X72433311Y-43103681D01*
X72857572Y-42928380D01*
X73279897Y-42506791D01*
X73508739Y-41955677D01*
X73509260Y-41358941D01*
X73281380Y-40807428D01*
X72859791Y-40385103D01*
X72308677Y-40156261D01*
X71711941Y-40155740D01*
X71160428Y-40383620D01*
X70738103Y-40805209D01*
X70509261Y-41356323D01*
X70508740Y-41953059D01*
X70736620Y-42504572D01*
X70981121Y-42749500D01*
X70904656Y-42749500D01*
X70890054Y-42734872D01*
X70504274Y-42574682D01*
X70086558Y-42574318D01*
X69700500Y-42733834D01*
X69404872Y-43028946D01*
X69244682Y-43414726D01*
X69244318Y-43832442D01*
X69403834Y-44218500D01*
X69698946Y-44514128D01*
X70084726Y-44674318D01*
X70502442Y-44674682D01*
X70888500Y-44515166D01*
X70904193Y-44499500D01*
X71374706Y-44499500D01*
X72018516Y-45036008D01*
X71711941Y-45035740D01*
X71160428Y-45263620D01*
X70738103Y-45685209D01*
X70509261Y-46236323D01*
X70508740Y-46833059D01*
X70736620Y-47384572D01*
X71158209Y-47806897D01*
X71709323Y-48035739D01*
X72011560Y-48036003D01*
X69675782Y-50371782D01*
X69486105Y-50655652D01*
X69419500Y-50990500D01*
X69419500Y-51332954D01*
X69341372Y-51410946D01*
X69181182Y-51796726D01*
X69180818Y-52214442D01*
X69340334Y-52600500D01*
X69527128Y-52787621D01*
X69291436Y-53118588D01*
X69073120Y-53208794D01*
X68777492Y-53503906D01*
X68617302Y-53889686D01*
X68616938Y-54307402D01*
X68776454Y-54693460D01*
X69015790Y-54933215D01*
X69015718Y-55016062D01*
X69175234Y-55402120D01*
X69470346Y-55697748D01*
X69608509Y-55755118D01*
X69736574Y-56065060D01*
X70031686Y-56360688D01*
X70057272Y-56371312D01*
X70057118Y-56547682D01*
X70216634Y-56933740D01*
X70511746Y-57229368D01*
X70514489Y-57230507D01*
X70514318Y-57426522D01*
X70673834Y-57812580D01*
X70968946Y-58108208D01*
X71177465Y-58194793D01*
X71097500Y-58227834D01*
X70801872Y-58522946D01*
X70764879Y-58612034D01*
X70572554Y-58419372D01*
X70186774Y-58259182D01*
X69769058Y-58258818D01*
X69383000Y-58418334D01*
X69087372Y-58713446D01*
X69065189Y-58766869D01*
X69007058Y-58766818D01*
X68621000Y-58926334D01*
X68325372Y-59221446D01*
X68165182Y-59607226D01*
X68164818Y-60024942D01*
X68324334Y-60411000D01*
X68365186Y-60451923D01*
X68198372Y-60618446D01*
X68038182Y-61004226D01*
X68037818Y-61421942D01*
X68197334Y-61808000D01*
X68422651Y-62033711D01*
X68426978Y-62041302D01*
X68441410Y-62052502D01*
X68456562Y-62067681D01*
X68469282Y-62086718D01*
X68488152Y-62099327D01*
X68492446Y-62103628D01*
X68498108Y-62105979D01*
X68585888Y-62164632D01*
X68696688Y-62250624D01*
X69331688Y-62568124D01*
X69362011Y-62576428D01*
X69388152Y-62593895D01*
X69525704Y-62621256D01*
X69660972Y-62658299D01*
X69692165Y-62654367D01*
X69723000Y-62660500D01*
X70703433Y-62660500D01*
X70408172Y-62955246D01*
X70376501Y-63031517D01*
X70339907Y-62994923D01*
X69887357Y-63447474D01*
X69523983Y-63519754D01*
X69438881Y-63767795D01*
X70104000Y-64432915D01*
X70386843Y-64150072D01*
X70952528Y-64715757D01*
X70669685Y-64998600D01*
X71108010Y-65436925D01*
X71289208Y-65875457D01*
X71724849Y-66311860D01*
X72294333Y-66548330D01*
X72428484Y-66548447D01*
X72363972Y-66612846D01*
X72292407Y-66785193D01*
X71948400Y-66927334D01*
X71652772Y-67222446D01*
X71492582Y-67608226D01*
X71492218Y-68025942D01*
X71651734Y-68412000D01*
X71797332Y-68557853D01*
X71440400Y-68705334D01*
X71144772Y-69000446D01*
X71113101Y-69076717D01*
X70543107Y-68506723D01*
X70090557Y-68959274D01*
X69727183Y-69031554D01*
X69642081Y-69279595D01*
X70307200Y-69944715D01*
X70590043Y-69661872D01*
X71155728Y-70227557D01*
X70872885Y-70510400D01*
X71269073Y-70906588D01*
X71305639Y-71090417D01*
X71327605Y-71200848D01*
X71517282Y-71484718D01*
X72937400Y-72904837D01*
X72937400Y-76200000D01*
X72999842Y-76513918D01*
X73004005Y-76534848D01*
X73193682Y-76818718D01*
X73631271Y-77256307D01*
X71544000Y-77256307D01*
X71266067Y-77308604D01*
X71010802Y-77472862D01*
X70995209Y-77495683D01*
X70990138Y-77487802D01*
X70739508Y-77316554D01*
X70442000Y-77256307D01*
X68242000Y-77256307D01*
X67964067Y-77308604D01*
X67708802Y-77472862D01*
X67537554Y-77723492D01*
X67477307Y-78021000D01*
X67477307Y-80221000D01*
X67529604Y-80498933D01*
X67693862Y-80754198D01*
X67944492Y-80925446D01*
X68242000Y-80985693D01*
X70442000Y-80985693D01*
X70719933Y-80933396D01*
X70975198Y-80769138D01*
X70990791Y-80746317D01*
X70995862Y-80754198D01*
X71246492Y-80925446D01*
X71544000Y-80985693D01*
X73744000Y-80985693D01*
X74004200Y-80936733D01*
X74004200Y-80947200D01*
X74016567Y-81009371D01*
X74070805Y-81282048D01*
X74260482Y-81565918D01*
X74784008Y-82089444D01*
X74718654Y-82418000D01*
X74840447Y-83030293D01*
X75187283Y-83549371D01*
X75706361Y-83896207D01*
X76318654Y-84018000D01*
X76381346Y-84018000D01*
X76993639Y-83896207D01*
X77512717Y-83549371D01*
X77859553Y-83030293D01*
X77981346Y-82418000D01*
X77859553Y-81805707D01*
X77512717Y-81286629D01*
X77305244Y-81148000D01*
X77512717Y-81009371D01*
X77859553Y-80490293D01*
X77981346Y-79878000D01*
X77859553Y-79265707D01*
X77512717Y-78746629D01*
X77305244Y-78608000D01*
X77512717Y-78469371D01*
X77859553Y-77950293D01*
X77981346Y-77338000D01*
X77859553Y-76725707D01*
X77512717Y-76206629D01*
X77305244Y-76068000D01*
X77512717Y-75929371D01*
X77859553Y-75410293D01*
X77981346Y-74798000D01*
X77859553Y-74185707D01*
X77512717Y-73666629D01*
X77305244Y-73528000D01*
X77512717Y-73389371D01*
X77859553Y-72870293D01*
X77981346Y-72258000D01*
X77859553Y-71645707D01*
X77512717Y-71126629D01*
X77305244Y-70988000D01*
X77512717Y-70849371D01*
X77859553Y-70330293D01*
X77981346Y-69718000D01*
X77859553Y-69105707D01*
X77512717Y-68586629D01*
X77305244Y-68448000D01*
X77512717Y-68309371D01*
X77859553Y-67790293D01*
X77981346Y-67178000D01*
X77859553Y-66565707D01*
X77512717Y-66046629D01*
X77305244Y-65908000D01*
X77512717Y-65769371D01*
X77859553Y-65250293D01*
X77981346Y-64638000D01*
X77859553Y-64025707D01*
X77512717Y-63506629D01*
X77305244Y-63368000D01*
X77512717Y-63229371D01*
X77859553Y-62710293D01*
X77981346Y-62098000D01*
X77859553Y-61485707D01*
X77635620Y-61150567D01*
X77869826Y-61247818D01*
X78287542Y-61248182D01*
X78673600Y-61088666D01*
X78969228Y-60793554D01*
X79129418Y-60407774D01*
X79129448Y-60373308D01*
X79294395Y-60126449D01*
X79313270Y-60031554D01*
X79361000Y-59791600D01*
X79361000Y-35458400D01*
X79294395Y-35123552D01*
X79233890Y-35033000D01*
X79104719Y-34839682D01*
X78700600Y-34435564D01*
X78700600Y-32664400D01*
X78633995Y-32329552D01*
X78633995Y-32329551D01*
X78444318Y-32045681D01*
X77987118Y-31588482D01*
X77703248Y-31398805D01*
X77368400Y-31332200D01*
X69278500Y-31332200D01*
X68943652Y-31398805D01*
X68659782Y-31588481D01*
X68222755Y-32025508D01*
X67894200Y-31960154D01*
X67281907Y-32081947D01*
X66893461Y-32341498D01*
X66338734Y-32341498D01*
X66016569Y-32126259D01*
X65779200Y-32238164D01*
X65779200Y-33166500D01*
X66204200Y-33166500D01*
X66204200Y-34016500D01*
X65779200Y-34016500D01*
X65779200Y-34944836D01*
X66016569Y-35056741D01*
X66338734Y-34841502D01*
X66893461Y-34841502D01*
X67281907Y-35101053D01*
X67894200Y-35222846D01*
X68506493Y-35101053D01*
X69025571Y-34754217D01*
X69164200Y-34546744D01*
X69302829Y-34754217D01*
X69821907Y-35101053D01*
X70291780Y-35194517D01*
X70377502Y-35280238D01*
X69797039Y-35279732D01*
X69227143Y-35515208D01*
X68790740Y-35950849D01*
X68684674Y-36206286D01*
X68548592Y-35876943D01*
X68112951Y-35440540D01*
X67543467Y-35204070D01*
X66926839Y-35203532D01*
X66356943Y-35439008D01*
X65920540Y-35874649D01*
X65737268Y-36316018D01*
X65299485Y-36753800D01*
X64168115Y-36753800D01*
X63502995Y-36088681D01*
X63254954Y-36173783D01*
X63145561Y-36783864D01*
X62724266Y-36783864D01*
X62741346Y-36698000D01*
X62619553Y-36085707D01*
X62334109Y-35658509D01*
X62493198Y-35556138D01*
X62515843Y-35522995D01*
X64068681Y-35522995D01*
X64733800Y-36188115D01*
X65398919Y-35522995D01*
X65313817Y-35274954D01*
X64703736Y-35165561D01*
X64153783Y-35274954D01*
X64068681Y-35522995D01*
X62515843Y-35522995D01*
X62664446Y-35305508D01*
X62724693Y-35008000D01*
X62724693Y-34253874D01*
X63888928Y-34253874D01*
X64253945Y-34764189D01*
X64691831Y-35056741D01*
X64929200Y-34944836D01*
X64929200Y-34016500D01*
X63992850Y-34016500D01*
X63888928Y-34253874D01*
X62724693Y-34253874D01*
X62724693Y-33308000D01*
X62672396Y-33030067D01*
X62607443Y-32929126D01*
X63888928Y-32929126D01*
X63992850Y-33166500D01*
X64929200Y-33166500D01*
X64929200Y-32238164D01*
X64691831Y-32126259D01*
X64253945Y-32418811D01*
X63888928Y-32929126D01*
X62607443Y-32929126D01*
X62508138Y-32774802D01*
X62257508Y-32603554D01*
X61960000Y-32543307D01*
X60260000Y-32543307D01*
X59982067Y-32595604D01*
X59726802Y-32759862D01*
X59555554Y-33010492D01*
X59495307Y-33308000D01*
X59495307Y-35008000D01*
X59547604Y-35285933D01*
X59711862Y-35541198D01*
X59885158Y-35659606D01*
X59600447Y-36085707D01*
X59478654Y-36698000D01*
X59544008Y-37026556D01*
X58817282Y-37753282D01*
X58627605Y-38037152D01*
X58561000Y-38372000D01*
X58561000Y-47135563D01*
X58258482Y-47438082D01*
X58068805Y-47721952D01*
X58002200Y-48056800D01*
X58002200Y-83300609D01*
X57967667Y-83286270D01*
X57351039Y-83285732D01*
X56781143Y-83521208D01*
X56451000Y-83850775D01*
X56451000Y-30289000D01*
X80455000Y-30289000D01*
X80455000Y-88433534D01*
X80455000Y-88433534D01*
G37*
X80455000Y-88433534D02*
X80265974Y-88298328D01*
X80028600Y-88402250D01*
X80028600Y-89338600D01*
X80453600Y-89338600D01*
X80453600Y-90188600D01*
X80028600Y-90188600D01*
X80028600Y-90613600D01*
X79178600Y-90613600D01*
X79178600Y-90188600D01*
X79056200Y-90188600D01*
X79056200Y-89338600D01*
X79178600Y-89338600D01*
X79178600Y-88402250D01*
X79056200Y-88348663D01*
X79056200Y-87586036D01*
X79765118Y-86877118D01*
X79954795Y-86593248D01*
X79984849Y-86442153D01*
X79996045Y-86385867D01*
X80036028Y-86345954D01*
X80196218Y-85960174D01*
X80196582Y-85542458D01*
X80037066Y-85156400D01*
X79741954Y-84860772D01*
X79356174Y-84700582D01*
X78938458Y-84700218D01*
X78552400Y-84859734D01*
X78256772Y-85154846D01*
X78096582Y-85540626D01*
X78096218Y-85958342D01*
X78129200Y-86038164D01*
X77562482Y-86604882D01*
X77372805Y-86888752D01*
X77306200Y-87223600D01*
X77306200Y-87792103D01*
X77220867Y-87756670D01*
X76604239Y-87756132D01*
X76034343Y-87991608D01*
X75597940Y-88427249D01*
X75403020Y-88896670D01*
X75241492Y-88505743D01*
X74805851Y-88069340D01*
X74236367Y-87832870D01*
X74120945Y-87832769D01*
X74353177Y-87485208D01*
X74494000Y-86777244D01*
X74494000Y-86704756D01*
X74353177Y-85996792D01*
X73952148Y-85396608D01*
X73351964Y-84995579D01*
X72644000Y-84854756D01*
X71936036Y-84995579D01*
X71335852Y-85396608D01*
X70993000Y-85909724D01*
X70650148Y-85396608D01*
X70049964Y-84995579D01*
X69342000Y-84854756D01*
X68634036Y-84995579D01*
X68033852Y-85396608D01*
X67632823Y-85996792D01*
X67492000Y-86704756D01*
X67492000Y-86777244D01*
X67632823Y-87485208D01*
X68033852Y-88085392D01*
X68634036Y-88486421D01*
X68842503Y-88527888D01*
X68841540Y-88528849D01*
X68632330Y-89032684D01*
X68312890Y-88712687D01*
X67669924Y-88445704D01*
X66973731Y-88445096D01*
X66330299Y-88710957D01*
X65837587Y-89202810D01*
X65570604Y-89845776D01*
X65569996Y-90541969D01*
X65835857Y-91185401D01*
X66327710Y-91678113D01*
X66970676Y-91945096D01*
X67666869Y-91945704D01*
X68310301Y-91679843D01*
X68803013Y-91187990D01*
X69069996Y-90545024D01*
X69070022Y-90515273D01*
X69275649Y-90721260D01*
X69845133Y-90957730D01*
X70416792Y-90958229D01*
X71085481Y-91626918D01*
X71369351Y-91816595D01*
X71424906Y-91827645D01*
X71704200Y-91883200D01*
X77179200Y-91883200D01*
X77179200Y-93294200D01*
X77231223Y-93555740D01*
X77245805Y-93629048D01*
X77435482Y-93912918D01*
X77988907Y-94466343D01*
X77988907Y-95693600D01*
X78009603Y-95803591D01*
X78007216Y-95800018D01*
X77504359Y-95464021D01*
X76911200Y-95346034D01*
X76318041Y-95464021D01*
X75815184Y-95800018D01*
X75479187Y-96302875D01*
X75411371Y-96643806D01*
X75358713Y-96379075D01*
X75022716Y-95876218D01*
X74519859Y-95540221D01*
X73926700Y-95422234D01*
X73333541Y-95540221D01*
X72830684Y-95876218D01*
X72494687Y-96379075D01*
X72376700Y-96972234D01*
X72376700Y-97032966D01*
X72494687Y-97626125D01*
X72830684Y-98128982D01*
X73333541Y-98464979D01*
X73926700Y-98582966D01*
X74519859Y-98464979D01*
X75022716Y-98128982D01*
X75358713Y-97626125D01*
X75426529Y-97285194D01*
X75479187Y-97549925D01*
X75815184Y-98052782D01*
X76318041Y-98388779D01*
X76911200Y-98506766D01*
X77504359Y-98388779D01*
X78007216Y-98052782D01*
X78343213Y-97549925D01*
X78461200Y-96956766D01*
X78461200Y-96896034D01*
X78347367Y-96323757D01*
X78456092Y-96398046D01*
X78753600Y-96458293D01*
X80453600Y-96458293D01*
X80455000Y-96458030D01*
X80455000Y-104935595D01*
X79852594Y-105538000D01*
X80455000Y-106140405D01*
X80455000Y-107379000D01*
X79682027Y-107379000D01*
X79721699Y-107316294D01*
X78898000Y-106492594D01*
X78074301Y-107316294D01*
X78113973Y-107379000D01*
X67682027Y-107379000D01*
X67721699Y-107316294D01*
X66898000Y-106492594D01*
X66074301Y-107316294D01*
X66113973Y-107379000D01*
X64783693Y-107379000D01*
X64783693Y-105907000D01*
X64748129Y-105717992D01*
X64756252Y-105717992D01*
X64850403Y-106191321D01*
X65119706Y-106361699D01*
X65943406Y-105538000D01*
X67852594Y-105538000D01*
X68676294Y-106361699D01*
X68945597Y-106191321D01*
X68999075Y-105717992D01*
X76756252Y-105717992D01*
X76850403Y-106191321D01*
X77119706Y-106361699D01*
X77943406Y-105538000D01*
X77119706Y-104714301D01*
X76850403Y-104884679D01*
X76756252Y-105717992D01*
X68999075Y-105717992D01*
X69039748Y-105358008D01*
X68945597Y-104884679D01*
X68676294Y-104714301D01*
X67852594Y-105538000D01*
X65943406Y-105538000D01*
X65119706Y-104714301D01*
X64850403Y-104884679D01*
X64756252Y-105717992D01*
X64748129Y-105717992D01*
X64731396Y-105629067D01*
X64567138Y-105373802D01*
X64435712Y-105284002D01*
X64516986Y-105202870D01*
X64768713Y-104596645D01*
X64769285Y-103940235D01*
X64694693Y-103759706D01*
X66074301Y-103759706D01*
X66898000Y-104583406D01*
X67721699Y-103759706D01*
X67551321Y-103490403D01*
X66718008Y-103396252D01*
X66244679Y-103490403D01*
X66074301Y-103759706D01*
X64694693Y-103759706D01*
X64518617Y-103333571D01*
X64054870Y-102869014D01*
X63448645Y-102617287D01*
X62792235Y-102616715D01*
X62185571Y-102867383D01*
X61721014Y-103331130D01*
X61469287Y-103937355D01*
X61469172Y-104069293D01*
X61230516Y-103712118D01*
X60727659Y-103376121D01*
X60134500Y-103258134D01*
X59541341Y-103376121D01*
X59038484Y-103712118D01*
X58702487Y-104214975D01*
X58584500Y-104808134D01*
X58584500Y-104868866D01*
X58702487Y-105462025D01*
X59038484Y-105964882D01*
X59541341Y-106300879D01*
X60134500Y-106418866D01*
X60727659Y-106300879D01*
X61230516Y-105964882D01*
X61566513Y-105462025D01*
X61651316Y-105035694D01*
X61719383Y-105200429D01*
X61802547Y-105283739D01*
X61685802Y-105358862D01*
X61514554Y-105609492D01*
X61454307Y-105907000D01*
X61454307Y-107379000D01*
X56451000Y-107379000D01*
X56451000Y-103739002D01*
X56575440Y-103739002D01*
X56836869Y-103913665D01*
X57067500Y-103797737D01*
X57067500Y-102889000D01*
X57867500Y-102889000D01*
X57867500Y-103797737D01*
X58098131Y-103913665D01*
X58542412Y-103616838D01*
X58892194Y-103119635D01*
X58783807Y-102889000D01*
X57867500Y-102889000D01*
X57067500Y-102889000D01*
X56667500Y-102889000D01*
X56667500Y-102089000D01*
X57067500Y-102089000D01*
X57067500Y-101180263D01*
X57867500Y-101180263D01*
X57867500Y-102089000D01*
X58783807Y-102089000D01*
X58892194Y-101858365D01*
X58654721Y-101520805D01*
X62453881Y-101520805D01*
X62538983Y-101768846D01*
X63149064Y-101878239D01*
X63699017Y-101768846D01*
X63784119Y-101520805D01*
X63400355Y-101137040D01*
X70117738Y-101137040D01*
X70347138Y-101692229D01*
X70492536Y-101837882D01*
X70348630Y-101981537D01*
X70118262Y-102536325D01*
X70117738Y-103137040D01*
X70347138Y-103692229D01*
X70771537Y-104117370D01*
X71326325Y-104347738D01*
X71927040Y-104348262D01*
X72482229Y-104118862D01*
X72572481Y-104028767D01*
X73514634Y-104028767D01*
X73593534Y-104275179D01*
X74187247Y-104385619D01*
X74742466Y-104275179D01*
X74821366Y-104028767D01*
X74552305Y-103759706D01*
X78074301Y-103759706D01*
X78898000Y-104583406D01*
X79721699Y-103759706D01*
X79551321Y-103490403D01*
X78718008Y-103396252D01*
X78244679Y-103490403D01*
X78074301Y-103759706D01*
X74552305Y-103759706D01*
X74168000Y-103375401D01*
X73514634Y-104028767D01*
X72572481Y-104028767D01*
X72907370Y-103694463D01*
X73001978Y-103466621D01*
X73630599Y-102838000D01*
X73361899Y-102569300D01*
X73666454Y-102264744D01*
X73866325Y-102347738D01*
X74467040Y-102348262D01*
X74669436Y-102264634D01*
X74974102Y-102569300D01*
X74705401Y-102838000D01*
X75358767Y-103491366D01*
X75605179Y-103412466D01*
X75660911Y-103112859D01*
X76142839Y-102630931D01*
X75326765Y-101814857D01*
X75447370Y-101694463D01*
X75677738Y-101139675D01*
X75678262Y-100538960D01*
X75448862Y-99983771D01*
X75024463Y-99558630D01*
X74469675Y-99328262D01*
X73868960Y-99327738D01*
X73313771Y-99557138D01*
X72897647Y-99972536D01*
X72484463Y-99558630D01*
X71929675Y-99328262D01*
X71328960Y-99327738D01*
X70773771Y-99557138D01*
X70348630Y-99981537D01*
X70118262Y-100536325D01*
X70117738Y-101137040D01*
X63400355Y-101137040D01*
X63119000Y-100855685D01*
X62453881Y-101520805D01*
X58654721Y-101520805D01*
X58542412Y-101361162D01*
X58098131Y-101064335D01*
X57867500Y-101180263D01*
X57067500Y-101180263D01*
X56836869Y-101064335D01*
X56575440Y-101238998D01*
X56451000Y-101238998D01*
X56451000Y-100320064D01*
X61530761Y-100320064D01*
X61640154Y-100870017D01*
X61888195Y-100955119D01*
X62553315Y-100290000D01*
X63684685Y-100290000D01*
X64349805Y-100955119D01*
X64597846Y-100870017D01*
X64707239Y-100259936D01*
X64597846Y-99709983D01*
X64349805Y-99624881D01*
X63684685Y-100290000D01*
X62553315Y-100290000D01*
X61888195Y-99624881D01*
X61640154Y-99709983D01*
X61530761Y-100320064D01*
X56451000Y-100320064D01*
X56451000Y-96044671D01*
X56588349Y-96182260D01*
X57157833Y-96418730D01*
X57774461Y-96419268D01*
X58344357Y-96183792D01*
X58479274Y-96049110D01*
X58500605Y-96156348D01*
X58690282Y-96440218D01*
X58760009Y-96486809D01*
X58584770Y-96908833D01*
X58584232Y-97525461D01*
X58819708Y-98095357D01*
X59255349Y-98531760D01*
X59824833Y-98768230D01*
X60441461Y-98768768D01*
X61011357Y-98533292D01*
X61447760Y-98097651D01*
X61568986Y-97805706D01*
X61568732Y-98096961D01*
X61804208Y-98666857D01*
X62239849Y-99103260D01*
X62681218Y-99286532D01*
X63119000Y-99724315D01*
X63557325Y-99285990D01*
X63995857Y-99104792D01*
X64432260Y-98669151D01*
X64668730Y-98099667D01*
X64669268Y-97483039D01*
X64468703Y-96997634D01*
X68604800Y-96997634D01*
X68604800Y-97058366D01*
X68722787Y-97651525D01*
X69058784Y-98154382D01*
X69561641Y-98490379D01*
X70154800Y-98608366D01*
X70747959Y-98490379D01*
X71250816Y-98154382D01*
X71586813Y-97651525D01*
X71704800Y-97058366D01*
X71704800Y-96997634D01*
X71586813Y-96404475D01*
X71250816Y-95901618D01*
X70747959Y-95565621D01*
X70154800Y-95447634D01*
X69561641Y-95565621D01*
X69058784Y-95901618D01*
X68722787Y-96404475D01*
X68604800Y-96997634D01*
X64468703Y-96997634D01*
X64433792Y-96913143D01*
X63998151Y-96476740D01*
X63428667Y-96240270D01*
X62812039Y-96239732D01*
X62242143Y-96475208D01*
X61805740Y-96910849D01*
X61684514Y-97202794D01*
X61684768Y-96911539D01*
X61449292Y-96341643D01*
X61446874Y-96339221D01*
X61543645Y-96125852D01*
X66596955Y-96125852D01*
X66713059Y-96381848D01*
X67404658Y-96485855D01*
X67927541Y-96381848D01*
X68043645Y-96125852D01*
X67320300Y-95402507D01*
X66596955Y-96125852D01*
X61543645Y-96125852D01*
X60820300Y-95402507D01*
X60521801Y-95701006D01*
X60452345Y-95672166D01*
X60435718Y-95647282D01*
X60184000Y-95395564D01*
X60184000Y-94695400D01*
X61527407Y-94695400D01*
X62250752Y-95418745D01*
X62506748Y-95302641D01*
X62585382Y-94779758D01*
X65529845Y-94779758D01*
X65633852Y-95302641D01*
X65889848Y-95418745D01*
X66613193Y-94695400D01*
X68027407Y-94695400D01*
X68750752Y-95418745D01*
X69006748Y-95302641D01*
X69110755Y-94611042D01*
X69006748Y-94088159D01*
X68750752Y-93972055D01*
X68027407Y-94695400D01*
X66613193Y-94695400D01*
X65889848Y-93972055D01*
X65633852Y-94088159D01*
X65529845Y-94779758D01*
X62585382Y-94779758D01*
X62610755Y-94611042D01*
X62506748Y-94088159D01*
X62250752Y-93972055D01*
X61527407Y-94695400D01*
X60184000Y-94695400D01*
X60184000Y-93917486D01*
X60466747Y-93634740D01*
X60820300Y-93988293D01*
X61543645Y-93264948D01*
X66596955Y-93264948D01*
X67320300Y-93988293D01*
X68043645Y-93264948D01*
X67927541Y-93008952D01*
X67235942Y-92904945D01*
X66713059Y-93008952D01*
X66596955Y-93264948D01*
X61543645Y-93264948D01*
X61427541Y-93008952D01*
X60808531Y-92915861D01*
X60440201Y-92547531D01*
X60184000Y-92803732D01*
X60184000Y-91826058D01*
X60470676Y-91945096D01*
X61166869Y-91945704D01*
X61810301Y-91679843D01*
X62303013Y-91187990D01*
X62569996Y-90545024D01*
X62570604Y-89848831D01*
X62304743Y-89205399D01*
X61812890Y-88712687D01*
X61359518Y-88524430D01*
X61206483Y-87804805D01*
X64358881Y-87804805D01*
X64443983Y-88052846D01*
X65054064Y-88162239D01*
X65604017Y-88052846D01*
X65689119Y-87804805D01*
X65024000Y-87139685D01*
X64358881Y-87804805D01*
X61206483Y-87804805D01*
X60916701Y-86442153D01*
X60913133Y-86433850D01*
X60912830Y-86424816D01*
X60892540Y-86338093D01*
X63020323Y-86338093D01*
X63472874Y-86790643D01*
X63545154Y-87154017D01*
X63793195Y-87239119D01*
X64458315Y-86574000D01*
X64175472Y-86291157D01*
X64741157Y-85725472D01*
X65024000Y-86008315D01*
X65306843Y-85725472D01*
X65872528Y-86291157D01*
X65589685Y-86574000D01*
X66254805Y-87239119D01*
X66502846Y-87154017D01*
X66566446Y-86799323D01*
X67027677Y-86338093D01*
X66207834Y-85518250D01*
X66357198Y-85422138D01*
X66528446Y-85171508D01*
X66588693Y-84874000D01*
X66588693Y-83274000D01*
X66536396Y-82996067D01*
X66372138Y-82740802D01*
X66121508Y-82569554D01*
X65824000Y-82509307D01*
X64224000Y-82509307D01*
X63946067Y-82561604D01*
X63690802Y-82725862D01*
X63519554Y-82976492D01*
X63459307Y-83274000D01*
X63459307Y-84874000D01*
X63511604Y-85151933D01*
X63675862Y-85407198D01*
X63839446Y-85518970D01*
X63020323Y-86338093D01*
X60892540Y-86338093D01*
X60541990Y-84839856D01*
X60512372Y-84774621D01*
X60498395Y-84704352D01*
X60442467Y-84620651D01*
X60400851Y-84528988D01*
X60348521Y-84480051D01*
X60308718Y-84420482D01*
X60225016Y-84364554D01*
X60209400Y-84349950D01*
X60209400Y-83712874D01*
X60447626Y-83883272D01*
X60685000Y-83779350D01*
X60685000Y-82843000D01*
X61535000Y-82843000D01*
X61535000Y-83779350D01*
X61772374Y-83883272D01*
X62282689Y-83518255D01*
X62575241Y-83080369D01*
X62463336Y-82843000D01*
X61535000Y-82843000D01*
X60685000Y-82843000D01*
X60260000Y-82843000D01*
X60260000Y-81993000D01*
X60685000Y-81993000D01*
X60685000Y-80303000D01*
X61535000Y-80303000D01*
X61535000Y-81993000D01*
X62463336Y-81993000D01*
X62575241Y-81755631D01*
X62282689Y-81317745D01*
X62045376Y-81148000D01*
X62282689Y-80978255D01*
X62575241Y-80540369D01*
X62463336Y-80303000D01*
X61535000Y-80303000D01*
X60685000Y-80303000D01*
X60260000Y-80303000D01*
X60260000Y-79453000D01*
X60685000Y-79453000D01*
X60685000Y-79028000D01*
X61535000Y-79028000D01*
X61535000Y-79453000D01*
X62463336Y-79453000D01*
X62575241Y-79215631D01*
X62360002Y-78893466D01*
X62360002Y-78507907D01*
X63020323Y-78507907D01*
X63840166Y-79327750D01*
X63690802Y-79423862D01*
X63519554Y-79674492D01*
X63459307Y-79972000D01*
X63459307Y-81572000D01*
X63511604Y-81849933D01*
X63675862Y-82105198D01*
X63926492Y-82276446D01*
X64224000Y-82336693D01*
X65824000Y-82336693D01*
X66101933Y-82284396D01*
X66357198Y-82120138D01*
X66528446Y-81869508D01*
X66588693Y-81572000D01*
X66588693Y-79972000D01*
X66536396Y-79694067D01*
X66372138Y-79438802D01*
X66208554Y-79327030D01*
X67027677Y-78507907D01*
X66575126Y-78055357D01*
X66502846Y-77691983D01*
X66254805Y-77606881D01*
X65589685Y-78272000D01*
X65872528Y-78554843D01*
X65306843Y-79120528D01*
X65024000Y-78837685D01*
X64741157Y-79120528D01*
X64175472Y-78554843D01*
X64458315Y-78272000D01*
X63793195Y-77606881D01*
X63545154Y-77691983D01*
X63481554Y-78046677D01*
X63020323Y-78507907D01*
X62360002Y-78507907D01*
X62360002Y-78338739D01*
X62619553Y-77950293D01*
X62741346Y-77338000D01*
X62682308Y-77041195D01*
X64358881Y-77041195D01*
X65024000Y-77706315D01*
X65689119Y-77041195D01*
X65604017Y-76793154D01*
X64993936Y-76683761D01*
X64443983Y-76793154D01*
X64358881Y-77041195D01*
X62682308Y-77041195D01*
X62619553Y-76725707D01*
X62545544Y-76614944D01*
X62818942Y-76615182D01*
X63205000Y-76455666D01*
X63500628Y-76160554D01*
X63660818Y-75774774D01*
X63660996Y-75569500D01*
X64178800Y-75569500D01*
X64178800Y-75980775D01*
X64294198Y-76259372D01*
X64507427Y-76472601D01*
X64786024Y-76588000D01*
X65197300Y-76588000D01*
X65386800Y-76398500D01*
X65386800Y-75380000D01*
X64368300Y-75380000D01*
X64178800Y-75569500D01*
X63660996Y-75569500D01*
X63661182Y-75357058D01*
X63501666Y-74971000D01*
X63486000Y-74955307D01*
X63486000Y-73879225D01*
X64178800Y-73879225D01*
X64178800Y-74290500D01*
X64368300Y-74480000D01*
X65386800Y-74480000D01*
X65386800Y-73461500D01*
X66286800Y-73461500D01*
X66286800Y-74480000D01*
X66736800Y-74480000D01*
X66736800Y-74717219D01*
X66694475Y-74930000D01*
X66736800Y-75142781D01*
X66736800Y-75380000D01*
X66286800Y-75380000D01*
X66286800Y-76398500D01*
X66476300Y-76588000D01*
X66887576Y-76588000D01*
X67166173Y-76472601D01*
X67379402Y-76259372D01*
X67388455Y-76237516D01*
X67713047Y-76454401D01*
X68344475Y-76580000D01*
X68409125Y-76580000D01*
X69040553Y-76454401D01*
X69575851Y-76096726D01*
X69646800Y-75990543D01*
X69717749Y-76096726D01*
X70253047Y-76454401D01*
X70884475Y-76580000D01*
X70949125Y-76580000D01*
X71580553Y-76454401D01*
X72115851Y-76096726D01*
X72473526Y-75561428D01*
X72599125Y-74930000D01*
X72473526Y-74298572D01*
X72115851Y-73763274D01*
X71580553Y-73405599D01*
X70949125Y-73280000D01*
X70884475Y-73280000D01*
X70253047Y-73405599D01*
X69717749Y-73763274D01*
X69646800Y-73869457D01*
X69575851Y-73763274D01*
X69040553Y-73405599D01*
X68409125Y-73280000D01*
X68344475Y-73280000D01*
X67713047Y-73405599D01*
X67388455Y-73622484D01*
X67379402Y-73600628D01*
X67166173Y-73387399D01*
X66887576Y-73272000D01*
X66476300Y-73272000D01*
X66286800Y-73461500D01*
X65386800Y-73461500D01*
X65197300Y-73272000D01*
X64786024Y-73272000D01*
X64507427Y-73387399D01*
X64294198Y-73600628D01*
X64178800Y-73879225D01*
X63486000Y-73879225D01*
X63486000Y-72033305D01*
X64295381Y-72033305D01*
X64380483Y-72281346D01*
X64990564Y-72390739D01*
X65540517Y-72281346D01*
X65625619Y-72033305D01*
X64960500Y-71368185D01*
X64295381Y-72033305D01*
X63486000Y-72033305D01*
X63486000Y-72024002D01*
X63615397Y-71830346D01*
X63682002Y-71495498D01*
X63682002Y-71451256D01*
X63729695Y-71467619D01*
X64394815Y-70802500D01*
X65526185Y-70802500D01*
X66191305Y-71467619D01*
X66439346Y-71382517D01*
X66454812Y-71296266D01*
X66492408Y-71387257D01*
X66928049Y-71823660D01*
X67497533Y-72060130D01*
X68114161Y-72060668D01*
X68684057Y-71825192D01*
X68768190Y-71741205D01*
X69642081Y-71741205D01*
X69727183Y-71989246D01*
X70337264Y-72098639D01*
X70887217Y-71989246D01*
X70972319Y-71741205D01*
X70307200Y-71076085D01*
X69642081Y-71741205D01*
X68768190Y-71741205D01*
X69120460Y-71389551D01*
X69303732Y-70948182D01*
X69741515Y-70510400D01*
X69303190Y-70072075D01*
X69121992Y-69633543D01*
X68686351Y-69197140D01*
X68116867Y-68960670D01*
X67500239Y-68960132D01*
X66930343Y-69195608D01*
X66493940Y-69631249D01*
X66272245Y-70165151D01*
X66191305Y-70137381D01*
X65526185Y-70802500D01*
X64394815Y-70802500D01*
X64111972Y-70519657D01*
X64677657Y-69953972D01*
X64960500Y-70236815D01*
X65398825Y-69798490D01*
X65837357Y-69617292D01*
X66273760Y-69181651D01*
X66510230Y-68612167D01*
X66510768Y-67995539D01*
X66275292Y-67425643D01*
X65839651Y-66989240D01*
X65283891Y-66758469D01*
X65324395Y-66697850D01*
X65391000Y-66363002D01*
X65391000Y-66229405D01*
X69438881Y-66229405D01*
X69523983Y-66477446D01*
X70134064Y-66586839D01*
X70684017Y-66477446D01*
X70769119Y-66229405D01*
X70104000Y-65564285D01*
X69438881Y-66229405D01*
X65391000Y-66229405D01*
X65391000Y-65028664D01*
X68515761Y-65028664D01*
X68625154Y-65578617D01*
X68873195Y-65663719D01*
X69538315Y-64998600D01*
X68873195Y-64333481D01*
X68625154Y-64418583D01*
X68515761Y-65028664D01*
X65391000Y-65028664D01*
X65391000Y-63227436D01*
X67230219Y-61388218D01*
X67419895Y-61104348D01*
X67486500Y-60769500D01*
X67486500Y-58737500D01*
X67419895Y-58402652D01*
X67389057Y-58356500D01*
X67230219Y-58118782D01*
X66772664Y-57661228D01*
X66772682Y-57640558D01*
X66613166Y-57254500D01*
X66318054Y-56958872D01*
X66074090Y-56857569D01*
X66074182Y-56751558D01*
X65914666Y-56365500D01*
X65619554Y-56069872D01*
X65396086Y-55977080D01*
X65405628Y-55967554D01*
X65565818Y-55581774D01*
X65566182Y-55164058D01*
X65406666Y-54778000D01*
X65111554Y-54482372D01*
X64725774Y-54322182D01*
X64308058Y-54321818D01*
X63922000Y-54481334D01*
X63906307Y-54497000D01*
X62737567Y-54497000D01*
X62741346Y-54478000D01*
X62619553Y-53865707D01*
X62272717Y-53346629D01*
X62065244Y-53208000D01*
X62272717Y-53069371D01*
X62619553Y-52550293D01*
X62741346Y-51938000D01*
X62619553Y-51325707D01*
X62272717Y-50806629D01*
X62065244Y-50668000D01*
X62272717Y-50529371D01*
X62619553Y-50010293D01*
X62741346Y-49398000D01*
X62658718Y-48982600D01*
X62890400Y-48982600D01*
X63225248Y-48915995D01*
X63485371Y-48742185D01*
X63622208Y-49073357D01*
X64057849Y-49509760D01*
X64627333Y-49746230D01*
X65243961Y-49746768D01*
X65813857Y-49511292D01*
X65897990Y-49427305D01*
X66771881Y-49427305D01*
X66856983Y-49675346D01*
X67467064Y-49784739D01*
X68017017Y-49675346D01*
X68102119Y-49427305D01*
X67437000Y-48762185D01*
X66771881Y-49427305D01*
X65897990Y-49427305D01*
X66250260Y-49075651D01*
X66433532Y-48634282D01*
X66871315Y-48196500D01*
X68002685Y-48196500D01*
X68667805Y-48861619D01*
X68915846Y-48776517D01*
X69025239Y-48166436D01*
X68915846Y-47616483D01*
X68667805Y-47531381D01*
X68002685Y-48196500D01*
X66871315Y-48196500D01*
X66432990Y-47758175D01*
X66251792Y-47319643D01*
X65816151Y-46883240D01*
X65246667Y-46646770D01*
X65081491Y-46646626D01*
X65494457Y-46475992D01*
X65930860Y-46040351D01*
X66167330Y-45470867D01*
X66167376Y-45417361D01*
X66216932Y-45417361D01*
X66452408Y-45987257D01*
X66888049Y-46423660D01*
X67356689Y-46618256D01*
X66856983Y-46717654D01*
X66771881Y-46965695D01*
X67437000Y-47630815D01*
X68102119Y-46965695D01*
X68017017Y-46717654D01*
X67697375Y-46660339D01*
X68074161Y-46660668D01*
X68644057Y-46425192D01*
X69080460Y-45989551D01*
X69316930Y-45420067D01*
X69317468Y-44803439D01*
X69081992Y-44233543D01*
X68646351Y-43797140D01*
X68204982Y-43613868D01*
X67767200Y-43176085D01*
X67328875Y-43614410D01*
X66890343Y-43795608D01*
X66453940Y-44231249D01*
X66217470Y-44800733D01*
X66216932Y-45417361D01*
X66167376Y-45417361D01*
X66167868Y-44854239D01*
X65932392Y-44284343D01*
X65496751Y-43847940D01*
X65055382Y-43664668D01*
X64617600Y-43226885D01*
X64334757Y-43509728D01*
X64194236Y-43369207D01*
X64194582Y-42972058D01*
X64066139Y-42661200D01*
X65183285Y-42661200D01*
X65848405Y-43326319D01*
X66096446Y-43241217D01*
X66192217Y-42707106D01*
X66288354Y-43190417D01*
X66536395Y-43275519D01*
X67201515Y-42610400D01*
X68332885Y-42610400D01*
X68998005Y-43275519D01*
X69246046Y-43190417D01*
X69355439Y-42580336D01*
X69246046Y-42030383D01*
X68998005Y-41945281D01*
X68332885Y-42610400D01*
X67201515Y-42610400D01*
X66536395Y-41945281D01*
X66288354Y-42030383D01*
X66192583Y-42564494D01*
X66096446Y-42081183D01*
X65848405Y-41996081D01*
X65183285Y-42661200D01*
X64066139Y-42661200D01*
X64035066Y-42586000D01*
X63739954Y-42290372D01*
X63639285Y-42248570D01*
X63386795Y-41996081D01*
X63138754Y-42081183D01*
X63130003Y-42129987D01*
X62936458Y-42129818D01*
X62758376Y-42203400D01*
X62656728Y-42203400D01*
X62741346Y-41778000D01*
X62672203Y-41430395D01*
X63952481Y-41430395D01*
X64617600Y-42095515D01*
X65282719Y-41430395D01*
X65265290Y-41379595D01*
X67102081Y-41379595D01*
X67767200Y-42044715D01*
X68432319Y-41379595D01*
X68347217Y-41131554D01*
X67737136Y-41022161D01*
X67187183Y-41131554D01*
X67102081Y-41379595D01*
X65265290Y-41379595D01*
X65197617Y-41182354D01*
X64587536Y-41072961D01*
X64037583Y-41182354D01*
X63952481Y-41430395D01*
X62672203Y-41430395D01*
X62619553Y-41165707D01*
X62272717Y-40646629D01*
X62065244Y-40508000D01*
X62272717Y-40369371D01*
X62605349Y-39871550D01*
X65424783Y-39871550D01*
X65614684Y-40331143D01*
X65966007Y-40683081D01*
X66425269Y-40873783D01*
X66922550Y-40874217D01*
X67382143Y-40684316D01*
X67625116Y-40441768D01*
X67866007Y-40683081D01*
X68325269Y-40873783D01*
X68822550Y-40874217D01*
X69282143Y-40684316D01*
X69634081Y-40332993D01*
X69824783Y-39873731D01*
X69825217Y-39376450D01*
X69635316Y-38916857D01*
X69283993Y-38564919D01*
X68824731Y-38374217D01*
X68327450Y-38373783D01*
X67867857Y-38563684D01*
X67624884Y-38806232D01*
X67383993Y-38564919D01*
X66924731Y-38374217D01*
X66427450Y-38373783D01*
X65967857Y-38563684D01*
X65615919Y-38915007D01*
X65425217Y-39374269D01*
X65424783Y-39871550D01*
X62605349Y-39871550D01*
X62619553Y-39850293D01*
X62741346Y-39238000D01*
X62619553Y-38625707D01*
X62272717Y-38106629D01*
X62090096Y-37984605D01*
X64068681Y-37984605D01*
X64153783Y-38232646D01*
X64763864Y-38342039D01*
X65313817Y-38232646D01*
X65398919Y-37984605D01*
X64733800Y-37319485D01*
X64068681Y-37984605D01*
X62090096Y-37984605D01*
X62065244Y-37968000D01*
X62272717Y-37829371D01*
X62619553Y-37310293D01*
X62724266Y-36783864D01*
X63145561Y-36783864D01*
X63254954Y-37333817D01*
X63502995Y-37418919D01*
X64168115Y-36753800D01*
X65299485Y-36753800D01*
X65737810Y-37192125D01*
X65919008Y-37630657D01*
X66354649Y-38067060D01*
X66924133Y-38303530D01*
X67540761Y-38304068D01*
X68110657Y-38068592D01*
X68547060Y-37632951D01*
X68653126Y-37377514D01*
X68789208Y-37706857D01*
X69224849Y-38143260D01*
X69794333Y-38379730D01*
X70410961Y-38380268D01*
X70980857Y-38144792D01*
X71064990Y-38060805D01*
X71938881Y-38060805D01*
X72023983Y-38308846D01*
X72634064Y-38418239D01*
X73184017Y-38308846D01*
X73269119Y-38060805D01*
X72604000Y-37395685D01*
X71938881Y-38060805D01*
X71064990Y-38060805D01*
X71417260Y-37709151D01*
X71600532Y-37267782D01*
X72038315Y-36830000D01*
X71755472Y-36547157D01*
X72321157Y-35981472D01*
X72604000Y-36264315D01*
X72886843Y-35981472D01*
X73452528Y-36547157D01*
X73169685Y-36830000D01*
X73834805Y-37495119D01*
X74082846Y-37410017D01*
X74146446Y-37055323D01*
X74607677Y-36594093D01*
X73750084Y-35736500D01*
X73996064Y-35736500D01*
X74311282Y-36051718D01*
X74595152Y-36241395D01*
X74930000Y-36308000D01*
X76976000Y-36308000D01*
X76976000Y-37123000D01*
X76775000Y-37123000D01*
X76775000Y-37548000D01*
X75925000Y-37548000D01*
X75925000Y-37123000D01*
X74996664Y-37123000D01*
X74884759Y-37360369D01*
X75099998Y-37682534D01*
X75099998Y-38237261D01*
X74840447Y-38625707D01*
X74718654Y-39238000D01*
X74840447Y-39850293D01*
X75187283Y-40369371D01*
X75394756Y-40508000D01*
X75187283Y-40646629D01*
X74840447Y-41165707D01*
X74718654Y-41778000D01*
X74773945Y-42055967D01*
X73401979Y-43341912D01*
X73318914Y-43457920D01*
X73228455Y-43568266D01*
X73220068Y-43595968D01*
X73203220Y-43619498D01*
X73178700Y-43724838D01*
X72433311Y-43103681D01*
X72857572Y-42928380D01*
X73279897Y-42506791D01*
X73508739Y-41955677D01*
X73509260Y-41358941D01*
X73281380Y-40807428D01*
X72859791Y-40385103D01*
X72308677Y-40156261D01*
X71711941Y-40155740D01*
X71160428Y-40383620D01*
X70738103Y-40805209D01*
X70509261Y-41356323D01*
X70508740Y-41953059D01*
X70736620Y-42504572D01*
X70981121Y-42749500D01*
X70904656Y-42749500D01*
X70890054Y-42734872D01*
X70504274Y-42574682D01*
X70086558Y-42574318D01*
X69700500Y-42733834D01*
X69404872Y-43028946D01*
X69244682Y-43414726D01*
X69244318Y-43832442D01*
X69403834Y-44218500D01*
X69698946Y-44514128D01*
X70084726Y-44674318D01*
X70502442Y-44674682D01*
X70888500Y-44515166D01*
X70904193Y-44499500D01*
X71374706Y-44499500D01*
X72018516Y-45036008D01*
X71711941Y-45035740D01*
X71160428Y-45263620D01*
X70738103Y-45685209D01*
X70509261Y-46236323D01*
X70508740Y-46833059D01*
X70736620Y-47384572D01*
X71158209Y-47806897D01*
X71709323Y-48035739D01*
X72011560Y-48036003D01*
X69675782Y-50371782D01*
X69486105Y-50655652D01*
X69419500Y-50990500D01*
X69419500Y-51332954D01*
X69341372Y-51410946D01*
X69181182Y-51796726D01*
X69180818Y-52214442D01*
X69340334Y-52600500D01*
X69527128Y-52787621D01*
X69291436Y-53118588D01*
X69073120Y-53208794D01*
X68777492Y-53503906D01*
X68617302Y-53889686D01*
X68616938Y-54307402D01*
X68776454Y-54693460D01*
X69015790Y-54933215D01*
X69015718Y-55016062D01*
X69175234Y-55402120D01*
X69470346Y-55697748D01*
X69608509Y-55755118D01*
X69736574Y-56065060D01*
X70031686Y-56360688D01*
X70057272Y-56371312D01*
X70057118Y-56547682D01*
X70216634Y-56933740D01*
X70511746Y-57229368D01*
X70514489Y-57230507D01*
X70514318Y-57426522D01*
X70673834Y-57812580D01*
X70968946Y-58108208D01*
X71177465Y-58194793D01*
X71097500Y-58227834D01*
X70801872Y-58522946D01*
X70764879Y-58612034D01*
X70572554Y-58419372D01*
X70186774Y-58259182D01*
X69769058Y-58258818D01*
X69383000Y-58418334D01*
X69087372Y-58713446D01*
X69065189Y-58766869D01*
X69007058Y-58766818D01*
X68621000Y-58926334D01*
X68325372Y-59221446D01*
X68165182Y-59607226D01*
X68164818Y-60024942D01*
X68324334Y-60411000D01*
X68365186Y-60451923D01*
X68198372Y-60618446D01*
X68038182Y-61004226D01*
X68037818Y-61421942D01*
X68197334Y-61808000D01*
X68422651Y-62033711D01*
X68426978Y-62041302D01*
X68441410Y-62052502D01*
X68456562Y-62067681D01*
X68469282Y-62086718D01*
X68488152Y-62099327D01*
X68492446Y-62103628D01*
X68498108Y-62105979D01*
X68585888Y-62164632D01*
X68696688Y-62250624D01*
X69331688Y-62568124D01*
X69362011Y-62576428D01*
X69388152Y-62593895D01*
X69525704Y-62621256D01*
X69660972Y-62658299D01*
X69692165Y-62654367D01*
X69723000Y-62660500D01*
X70703433Y-62660500D01*
X70408172Y-62955246D01*
X70376501Y-63031517D01*
X70339907Y-62994923D01*
X69887357Y-63447474D01*
X69523983Y-63519754D01*
X69438881Y-63767795D01*
X70104000Y-64432915D01*
X70386843Y-64150072D01*
X70952528Y-64715757D01*
X70669685Y-64998600D01*
X71108010Y-65436925D01*
X71289208Y-65875457D01*
X71724849Y-66311860D01*
X72294333Y-66548330D01*
X72428484Y-66548447D01*
X72363972Y-66612846D01*
X72292407Y-66785193D01*
X71948400Y-66927334D01*
X71652772Y-67222446D01*
X71492582Y-67608226D01*
X71492218Y-68025942D01*
X71651734Y-68412000D01*
X71797332Y-68557853D01*
X71440400Y-68705334D01*
X71144772Y-69000446D01*
X71113101Y-69076717D01*
X70543107Y-68506723D01*
X70090557Y-68959274D01*
X69727183Y-69031554D01*
X69642081Y-69279595D01*
X70307200Y-69944715D01*
X70590043Y-69661872D01*
X71155728Y-70227557D01*
X70872885Y-70510400D01*
X71269073Y-70906588D01*
X71305639Y-71090417D01*
X71327605Y-71200848D01*
X71517282Y-71484718D01*
X72937400Y-72904837D01*
X72937400Y-76200000D01*
X72999842Y-76513918D01*
X73004005Y-76534848D01*
X73193682Y-76818718D01*
X73631271Y-77256307D01*
X71544000Y-77256307D01*
X71266067Y-77308604D01*
X71010802Y-77472862D01*
X70995209Y-77495683D01*
X70990138Y-77487802D01*
X70739508Y-77316554D01*
X70442000Y-77256307D01*
X68242000Y-77256307D01*
X67964067Y-77308604D01*
X67708802Y-77472862D01*
X67537554Y-77723492D01*
X67477307Y-78021000D01*
X67477307Y-80221000D01*
X67529604Y-80498933D01*
X67693862Y-80754198D01*
X67944492Y-80925446D01*
X68242000Y-80985693D01*
X70442000Y-80985693D01*
X70719933Y-80933396D01*
X70975198Y-80769138D01*
X70990791Y-80746317D01*
X70995862Y-80754198D01*
X71246492Y-80925446D01*
X71544000Y-80985693D01*
X73744000Y-80985693D01*
X74004200Y-80936733D01*
X74004200Y-80947200D01*
X74016567Y-81009371D01*
X74070805Y-81282048D01*
X74260482Y-81565918D01*
X74784008Y-82089444D01*
X74718654Y-82418000D01*
X74840447Y-83030293D01*
X75187283Y-83549371D01*
X75706361Y-83896207D01*
X76318654Y-84018000D01*
X76381346Y-84018000D01*
X76993639Y-83896207D01*
X77512717Y-83549371D01*
X77859553Y-83030293D01*
X77981346Y-82418000D01*
X77859553Y-81805707D01*
X77512717Y-81286629D01*
X77305244Y-81148000D01*
X77512717Y-81009371D01*
X77859553Y-80490293D01*
X77981346Y-79878000D01*
X77859553Y-79265707D01*
X77512717Y-78746629D01*
X77305244Y-78608000D01*
X77512717Y-78469371D01*
X77859553Y-77950293D01*
X77981346Y-77338000D01*
X77859553Y-76725707D01*
X77512717Y-76206629D01*
X77305244Y-76068000D01*
X77512717Y-75929371D01*
X77859553Y-75410293D01*
X77981346Y-74798000D01*
X77859553Y-74185707D01*
X77512717Y-73666629D01*
X77305244Y-73528000D01*
X77512717Y-73389371D01*
X77859553Y-72870293D01*
X77981346Y-72258000D01*
X77859553Y-71645707D01*
X77512717Y-71126629D01*
X77305244Y-70988000D01*
X77512717Y-70849371D01*
X77859553Y-70330293D01*
X77981346Y-69718000D01*
X77859553Y-69105707D01*
X77512717Y-68586629D01*
X77305244Y-68448000D01*
X77512717Y-68309371D01*
X77859553Y-67790293D01*
X77981346Y-67178000D01*
X77859553Y-66565707D01*
X77512717Y-66046629D01*
X77305244Y-65908000D01*
X77512717Y-65769371D01*
X77859553Y-65250293D01*
X77981346Y-64638000D01*
X77859553Y-64025707D01*
X77512717Y-63506629D01*
X77305244Y-63368000D01*
X77512717Y-63229371D01*
X77859553Y-62710293D01*
X77981346Y-62098000D01*
X77859553Y-61485707D01*
X77635620Y-61150567D01*
X77869826Y-61247818D01*
X78287542Y-61248182D01*
X78673600Y-61088666D01*
X78969228Y-60793554D01*
X79129418Y-60407774D01*
X79129448Y-60373308D01*
X79294395Y-60126449D01*
X79313270Y-60031554D01*
X79361000Y-59791600D01*
X79361000Y-35458400D01*
X79294395Y-35123552D01*
X79233890Y-35033000D01*
X79104719Y-34839682D01*
X78700600Y-34435564D01*
X78700600Y-32664400D01*
X78633995Y-32329552D01*
X78633995Y-32329551D01*
X78444318Y-32045681D01*
X77987118Y-31588482D01*
X77703248Y-31398805D01*
X77368400Y-31332200D01*
X69278500Y-31332200D01*
X68943652Y-31398805D01*
X68659782Y-31588481D01*
X68222755Y-32025508D01*
X67894200Y-31960154D01*
X67281907Y-32081947D01*
X66893461Y-32341498D01*
X66338734Y-32341498D01*
X66016569Y-32126259D01*
X65779200Y-32238164D01*
X65779200Y-33166500D01*
X66204200Y-33166500D01*
X66204200Y-34016500D01*
X65779200Y-34016500D01*
X65779200Y-34944836D01*
X66016569Y-35056741D01*
X66338734Y-34841502D01*
X66893461Y-34841502D01*
X67281907Y-35101053D01*
X67894200Y-35222846D01*
X68506493Y-35101053D01*
X69025571Y-34754217D01*
X69164200Y-34546744D01*
X69302829Y-34754217D01*
X69821907Y-35101053D01*
X70291780Y-35194517D01*
X70377502Y-35280238D01*
X69797039Y-35279732D01*
X69227143Y-35515208D01*
X68790740Y-35950849D01*
X68684674Y-36206286D01*
X68548592Y-35876943D01*
X68112951Y-35440540D01*
X67543467Y-35204070D01*
X66926839Y-35203532D01*
X66356943Y-35439008D01*
X65920540Y-35874649D01*
X65737268Y-36316018D01*
X65299485Y-36753800D01*
X64168115Y-36753800D01*
X63502995Y-36088681D01*
X63254954Y-36173783D01*
X63145561Y-36783864D01*
X62724266Y-36783864D01*
X62741346Y-36698000D01*
X62619553Y-36085707D01*
X62334109Y-35658509D01*
X62493198Y-35556138D01*
X62515843Y-35522995D01*
X64068681Y-35522995D01*
X64733800Y-36188115D01*
X65398919Y-35522995D01*
X65313817Y-35274954D01*
X64703736Y-35165561D01*
X64153783Y-35274954D01*
X64068681Y-35522995D01*
X62515843Y-35522995D01*
X62664446Y-35305508D01*
X62724693Y-35008000D01*
X62724693Y-34253874D01*
X63888928Y-34253874D01*
X64253945Y-34764189D01*
X64691831Y-35056741D01*
X64929200Y-34944836D01*
X64929200Y-34016500D01*
X63992850Y-34016500D01*
X63888928Y-34253874D01*
X62724693Y-34253874D01*
X62724693Y-33308000D01*
X62672396Y-33030067D01*
X62607443Y-32929126D01*
X63888928Y-32929126D01*
X63992850Y-33166500D01*
X64929200Y-33166500D01*
X64929200Y-32238164D01*
X64691831Y-32126259D01*
X64253945Y-32418811D01*
X63888928Y-32929126D01*
X62607443Y-32929126D01*
X62508138Y-32774802D01*
X62257508Y-32603554D01*
X61960000Y-32543307D01*
X60260000Y-32543307D01*
X59982067Y-32595604D01*
X59726802Y-32759862D01*
X59555554Y-33010492D01*
X59495307Y-33308000D01*
X59495307Y-35008000D01*
X59547604Y-35285933D01*
X59711862Y-35541198D01*
X59885158Y-35659606D01*
X59600447Y-36085707D01*
X59478654Y-36698000D01*
X59544008Y-37026556D01*
X58817282Y-37753282D01*
X58627605Y-38037152D01*
X58561000Y-38372000D01*
X58561000Y-47135563D01*
X58258482Y-47438082D01*
X58068805Y-47721952D01*
X58002200Y-48056800D01*
X58002200Y-83300609D01*
X57967667Y-83286270D01*
X57351039Y-83285732D01*
X56781143Y-83521208D01*
X56451000Y-83850775D01*
X56451000Y-30289000D01*
X80455000Y-30289000D01*
X80455000Y-88433534D01*
M02*
