G04 #@! TF.FileFunction,Soldermask,Bot*
%FSLAX46Y46*%
G04 Gerber Fmt 4.6, Leading zero omitted, Abs format (unit mm)*
G04 Created by KiCad (PCBNEW 4.0.7) date 12/01/18 01:17:17*
%MOMM*%
%LPD*%
G01*
G04 APERTURE LIST*
%ADD10C,0.100000*%
%ADD11R,2.100000X2.100000*%
%ADD12O,2.100000X2.100000*%
%ADD13C,2.400000*%
%ADD14C,1.900000*%
%ADD15R,2.200000X2.200000*%
%ADD16O,2.200000X2.200000*%
%ADD17C,2.000000*%
%ADD18C,1.400000*%
%ADD19R,2.000000X2.000000*%
%ADD20C,2.200000*%
%ADD21R,2.600000X2.600000*%
%ADD22O,2.600000X2.600000*%
%ADD23C,1.920000*%
%ADD24C,3.100000*%
%ADD25O,2.000000X2.000000*%
G04 APERTURE END LIST*
D10*
D11*
X61110000Y-34158000D03*
D12*
X61110000Y-36698000D03*
X61110000Y-39238000D03*
X61110000Y-41778000D03*
X61110000Y-44318000D03*
X61110000Y-46858000D03*
X61110000Y-49398000D03*
X61110000Y-51938000D03*
X61110000Y-54478000D03*
X61110000Y-57018000D03*
X61110000Y-59558000D03*
X61110000Y-62098000D03*
X61110000Y-64638000D03*
X61110000Y-67178000D03*
X61110000Y-69718000D03*
X61110000Y-72258000D03*
X61110000Y-74798000D03*
X61110000Y-77338000D03*
X61110000Y-79878000D03*
X61110000Y-82418000D03*
D13*
X60820300Y-94695400D03*
X60820300Y-90195400D03*
X67320300Y-94695400D03*
X67320300Y-90195400D03*
D14*
X72009000Y-41656000D03*
X72009000Y-46536000D03*
D15*
X65836800Y-74930000D03*
D16*
X68376800Y-74930000D03*
X70916800Y-74930000D03*
D11*
X76350000Y-34158000D03*
D12*
X76350000Y-36698000D03*
X76350000Y-39238000D03*
X76350000Y-41778000D03*
X76350000Y-44318000D03*
X76350000Y-46858000D03*
X76350000Y-49398000D03*
X76350000Y-51938000D03*
X76350000Y-54478000D03*
X76350000Y-57018000D03*
X76350000Y-59558000D03*
X76350000Y-62098000D03*
X76350000Y-64638000D03*
X76350000Y-67178000D03*
X76350000Y-69718000D03*
X76350000Y-72258000D03*
X76350000Y-74798000D03*
X76350000Y-77338000D03*
X76350000Y-79878000D03*
X76350000Y-82418000D03*
D17*
X67767200Y-45110400D03*
X67767200Y-42610400D03*
X64617600Y-45161200D03*
X64617600Y-42661200D03*
X70104000Y-36830000D03*
X72604000Y-36830000D03*
X67233800Y-36753800D03*
X64733800Y-36753800D03*
D11*
X72974200Y-33591500D03*
D12*
X70434200Y-33591500D03*
X67894200Y-33591500D03*
X65354200Y-33591500D03*
D18*
X66675000Y-39624000D03*
X68575000Y-39624000D03*
D17*
X67437000Y-48196500D03*
X64937000Y-48196500D03*
D19*
X65024000Y-84074000D03*
D17*
X65024000Y-86574000D03*
X70307200Y-70510400D03*
X67807200Y-70510400D03*
D19*
X65024000Y-80772000D03*
D17*
X65024000Y-78272000D03*
X63119000Y-97790000D03*
X63119000Y-100290000D03*
D15*
X63088520Y-105557320D03*
D20*
X63088520Y-103017320D03*
D21*
X69342000Y-79121000D03*
D22*
X69342000Y-86741000D03*
D21*
X72644000Y-79121000D03*
D22*
X72644000Y-86741000D03*
D23*
X71628000Y-100838000D03*
X74168000Y-100838000D03*
X74168000Y-102838000D03*
X71628000Y-102838000D03*
D24*
X66898000Y-105538000D03*
X78898000Y-105538000D03*
D17*
X70154800Y-89408000D03*
D25*
X70154800Y-97028000D03*
D17*
X76911200Y-89306400D03*
D25*
X76911200Y-96926400D03*
D17*
X73926700Y-89382600D03*
D25*
X73926700Y-97002600D03*
D17*
X57835800Y-88519000D03*
D25*
X57835800Y-96139000D03*
D17*
X59309000Y-98552000D03*
D25*
X59309000Y-106172000D03*
D17*
X64516000Y-70662800D03*
X64516000Y-68162800D03*
X70104000Y-64998600D03*
X72604000Y-64998600D03*
D11*
X79603600Y-94843600D03*
D12*
X79603600Y-92303600D03*
X79603600Y-89763600D03*
M02*
