G04 #@! TF.FileFunction,Legend,Top*
%FSLAX46Y46*%
G04 Gerber Fmt 4.6, Leading zero omitted, Abs format (unit mm)*
G04 Created by KiCad (PCBNEW 4.0.7) date 12/06/18 21:28:27*
%MOMM*%
%LPD*%
G01*
G04 APERTURE LIST*
%ADD10C,0.100000*%
%ADD11C,0.150000*%
%ADD12C,0.120000*%
G04 APERTURE END LIST*
D10*
D11*
X73152048Y-65857429D02*
X73913953Y-65857429D01*
X73533001Y-66238381D02*
X73533001Y-65476476D01*
X69088048Y-65984429D02*
X69849953Y-65984429D01*
X65468548Y-71826429D02*
X66230453Y-71826429D01*
X65595548Y-67508429D02*
X66357453Y-67508429D01*
X65976501Y-67889381D02*
X65976501Y-67127476D01*
X64496915Y-75331581D02*
X63925486Y-75331581D01*
X64211200Y-75331581D02*
X64211200Y-74331581D01*
X64115962Y-74474438D01*
X64020724Y-74569676D01*
X63925486Y-74617295D01*
X74961715Y-51506381D02*
X74390286Y-51506381D01*
X74676000Y-51506381D02*
X74676000Y-50506381D01*
X74580762Y-50649238D01*
X74485524Y-50744476D01*
X74390286Y-50792095D01*
X80070651Y-85931641D02*
X80118270Y-85788784D01*
X80165890Y-85741165D01*
X80261128Y-85693546D01*
X80403985Y-85693546D01*
X80499223Y-85741165D01*
X80546842Y-85788784D01*
X80594461Y-85884022D01*
X80594461Y-86264975D01*
X79594461Y-86264975D01*
X79594461Y-85931641D01*
X79642080Y-85836403D01*
X79689699Y-85788784D01*
X79784937Y-85741165D01*
X79880175Y-85741165D01*
X79975413Y-85788784D01*
X80023032Y-85836403D01*
X80070651Y-85931641D01*
X80070651Y-86264975D01*
X79594461Y-85074499D02*
X79594461Y-84979260D01*
X79642080Y-84884022D01*
X79689699Y-84836403D01*
X79784937Y-84788784D01*
X79975413Y-84741165D01*
X80213509Y-84741165D01*
X80403985Y-84788784D01*
X80499223Y-84836403D01*
X80546842Y-84884022D01*
X80594461Y-84979260D01*
X80594461Y-85074499D01*
X80546842Y-85169737D01*
X80499223Y-85217356D01*
X80403985Y-85264975D01*
X80213509Y-85312594D01*
X79975413Y-85312594D01*
X79784937Y-85264975D01*
X79689699Y-85217356D01*
X79642080Y-85169737D01*
X79594461Y-85074499D01*
X80289661Y-87493196D02*
X80289661Y-87969387D01*
X79289661Y-87969387D01*
X80335381Y-97186714D02*
X79335381Y-97186714D01*
X79811571Y-97186714D02*
X79811571Y-96615285D01*
X80335381Y-96615285D02*
X79335381Y-96615285D01*
X68349762Y-32146714D02*
X68397381Y-32003857D01*
X68397381Y-31765761D01*
X68349762Y-31670523D01*
X68302143Y-31622904D01*
X68206905Y-31575285D01*
X68111667Y-31575285D01*
X68016429Y-31622904D01*
X67968810Y-31670523D01*
X67921190Y-31765761D01*
X67873571Y-31956238D01*
X67825952Y-32051476D01*
X67778333Y-32099095D01*
X67683095Y-32146714D01*
X67587857Y-32146714D01*
X67492619Y-32099095D01*
X67445000Y-32051476D01*
X67397381Y-31956238D01*
X67397381Y-31718142D01*
X67445000Y-31575285D01*
X68302143Y-30575285D02*
X68349762Y-30622904D01*
X68397381Y-30765761D01*
X68397381Y-30860999D01*
X68349762Y-31003857D01*
X68254524Y-31099095D01*
X68159286Y-31146714D01*
X67968810Y-31194333D01*
X67825952Y-31194333D01*
X67635476Y-31146714D01*
X67540238Y-31099095D01*
X67445000Y-31003857D01*
X67397381Y-30860999D01*
X67397381Y-30765761D01*
X67445000Y-30622904D01*
X67492619Y-30575285D01*
X68397381Y-30146714D02*
X67397381Y-30146714D01*
X68397381Y-29575285D02*
X67825952Y-30003857D01*
X67397381Y-29575285D02*
X67968810Y-30146714D01*
X71016762Y-31908619D02*
X71064381Y-31765762D01*
X71064381Y-31527666D01*
X71016762Y-31432428D01*
X70969143Y-31384809D01*
X70873905Y-31337190D01*
X70778667Y-31337190D01*
X70683429Y-31384809D01*
X70635810Y-31432428D01*
X70588190Y-31527666D01*
X70540571Y-31718143D01*
X70492952Y-31813381D01*
X70445333Y-31861000D01*
X70350095Y-31908619D01*
X70254857Y-31908619D01*
X70159619Y-31861000D01*
X70112000Y-31813381D01*
X70064381Y-31718143D01*
X70064381Y-31480047D01*
X70112000Y-31337190D01*
X71064381Y-30908619D02*
X70064381Y-30908619D01*
X70064381Y-30241953D02*
X70064381Y-30051476D01*
X70112000Y-29956238D01*
X70207238Y-29861000D01*
X70397714Y-29813381D01*
X70731048Y-29813381D01*
X70921524Y-29861000D01*
X71016762Y-29956238D01*
X71064381Y-30051476D01*
X71064381Y-30241953D01*
X71016762Y-30337191D01*
X70921524Y-30432429D01*
X70731048Y-30480048D01*
X70397714Y-30480048D01*
X70207238Y-30432429D01*
X70112000Y-30337191D01*
X70064381Y-30241953D01*
X64778000Y-31686404D02*
X64730381Y-31781642D01*
X64730381Y-31924499D01*
X64778000Y-32067357D01*
X64873238Y-32162595D01*
X64968476Y-32210214D01*
X65158952Y-32257833D01*
X65301810Y-32257833D01*
X65492286Y-32210214D01*
X65587524Y-32162595D01*
X65682762Y-32067357D01*
X65730381Y-31924499D01*
X65730381Y-31829261D01*
X65682762Y-31686404D01*
X65635143Y-31638785D01*
X65301810Y-31638785D01*
X65301810Y-31829261D01*
X65730381Y-31210214D02*
X64730381Y-31210214D01*
X65730381Y-30638785D01*
X64730381Y-30638785D01*
X65730381Y-30162595D02*
X64730381Y-30162595D01*
X64730381Y-29924500D01*
X64778000Y-29781642D01*
X64873238Y-29686404D01*
X64968476Y-29638785D01*
X65158952Y-29591166D01*
X65301810Y-29591166D01*
X65492286Y-29638785D01*
X65587524Y-29686404D01*
X65682762Y-29781642D01*
X65730381Y-29924500D01*
X65730381Y-30162595D01*
X72477381Y-32226095D02*
X72477381Y-31607047D01*
X72858333Y-31940381D01*
X72858333Y-31797523D01*
X72905952Y-31702285D01*
X72953571Y-31654666D01*
X73048810Y-31607047D01*
X73286905Y-31607047D01*
X73382143Y-31654666D01*
X73429762Y-31702285D01*
X73477381Y-31797523D01*
X73477381Y-32083238D01*
X73429762Y-32178476D01*
X73382143Y-32226095D01*
X72477381Y-31321333D02*
X73477381Y-30988000D01*
X72477381Y-30654666D01*
X72477381Y-30416571D02*
X72477381Y-29797523D01*
X72858333Y-30130857D01*
X72858333Y-29987999D01*
X72905952Y-29892761D01*
X72953571Y-29845142D01*
X73048810Y-29797523D01*
X73286905Y-29797523D01*
X73382143Y-29845142D01*
X73429762Y-29892761D01*
X73477381Y-29987999D01*
X73477381Y-30273714D01*
X73429762Y-30368952D01*
X73382143Y-30416571D01*
X77908305Y-33640781D02*
X78527353Y-33640781D01*
X78194019Y-34021733D01*
X78336877Y-34021733D01*
X78432115Y-34069352D01*
X78479734Y-34116971D01*
X78527353Y-34212210D01*
X78527353Y-34450305D01*
X78479734Y-34545543D01*
X78432115Y-34593162D01*
X78336877Y-34640781D01*
X78051162Y-34640781D01*
X77955924Y-34593162D01*
X77908305Y-34545543D01*
X78813067Y-33640781D02*
X79146400Y-34640781D01*
X79479734Y-33640781D01*
X79717829Y-33640781D02*
X80336877Y-33640781D01*
X80003543Y-34021733D01*
X80146401Y-34021733D01*
X80241639Y-34069352D01*
X80289258Y-34116971D01*
X80336877Y-34212210D01*
X80336877Y-34450305D01*
X80289258Y-34545543D01*
X80241639Y-34593162D01*
X80146401Y-34640781D01*
X79860686Y-34640781D01*
X79765448Y-34593162D01*
X79717829Y-34545543D01*
X78498796Y-36431600D02*
X78403558Y-36383981D01*
X78260701Y-36383981D01*
X78117843Y-36431600D01*
X78022605Y-36526838D01*
X77974986Y-36622076D01*
X77927367Y-36812552D01*
X77927367Y-36955410D01*
X77974986Y-37145886D01*
X78022605Y-37241124D01*
X78117843Y-37336362D01*
X78260701Y-37383981D01*
X78355939Y-37383981D01*
X78498796Y-37336362D01*
X78546415Y-37288743D01*
X78546415Y-36955410D01*
X78355939Y-36955410D01*
X78974986Y-37383981D02*
X78974986Y-36383981D01*
X79546415Y-37383981D01*
X79546415Y-36383981D01*
X80022605Y-37383981D02*
X80022605Y-36383981D01*
X80260700Y-36383981D01*
X80403558Y-36431600D01*
X80498796Y-36526838D01*
X80546415Y-36622076D01*
X80594034Y-36812552D01*
X80594034Y-36955410D01*
X80546415Y-37145886D01*
X80498796Y-37241124D01*
X80403558Y-37336362D01*
X80260700Y-37383981D01*
X80022605Y-37383981D01*
X78625724Y-38847781D02*
X78149533Y-38847781D01*
X78101914Y-39323971D01*
X78149533Y-39276352D01*
X78244771Y-39228733D01*
X78482867Y-39228733D01*
X78578105Y-39276352D01*
X78625724Y-39323971D01*
X78673343Y-39419210D01*
X78673343Y-39657305D01*
X78625724Y-39752543D01*
X78578105Y-39800162D01*
X78482867Y-39847781D01*
X78244771Y-39847781D01*
X78149533Y-39800162D01*
X78101914Y-39752543D01*
X78959057Y-38847781D02*
X79292390Y-39847781D01*
X79625724Y-38847781D01*
X78086105Y-42311581D02*
X78086105Y-41311581D01*
X78467058Y-41311581D01*
X78562296Y-41359200D01*
X78609915Y-41406819D01*
X78657534Y-41502057D01*
X78657534Y-41644914D01*
X78609915Y-41740152D01*
X78562296Y-41787771D01*
X78467058Y-41835390D01*
X78086105Y-41835390D01*
X79419439Y-41787771D02*
X79562296Y-41835390D01*
X79609915Y-41883010D01*
X79657534Y-41978248D01*
X79657534Y-42121105D01*
X79609915Y-42216343D01*
X79562296Y-42263962D01*
X79467058Y-42311581D01*
X79086105Y-42311581D01*
X79086105Y-41311581D01*
X79419439Y-41311581D01*
X79514677Y-41359200D01*
X79562296Y-41406819D01*
X79609915Y-41502057D01*
X79609915Y-41597295D01*
X79562296Y-41692533D01*
X79514677Y-41740152D01*
X79419439Y-41787771D01*
X79086105Y-41787771D01*
X80133724Y-42311581D02*
X80324200Y-42311581D01*
X80419439Y-42263962D01*
X80467058Y-42216343D01*
X80562296Y-42073486D01*
X80609915Y-41883010D01*
X80609915Y-41502057D01*
X80562296Y-41406819D01*
X80514677Y-41359200D01*
X80419439Y-41311581D01*
X80228962Y-41311581D01*
X80133724Y-41359200D01*
X80086105Y-41406819D01*
X80038486Y-41502057D01*
X80038486Y-41740152D01*
X80086105Y-41835390D01*
X80133724Y-41883010D01*
X80228962Y-41930629D01*
X80419439Y-41930629D01*
X80514677Y-41883010D01*
X80562296Y-41835390D01*
X80609915Y-41740152D01*
X78136905Y-44711881D02*
X78136905Y-43711881D01*
X78517858Y-43711881D01*
X78613096Y-43759500D01*
X78660715Y-43807119D01*
X78708334Y-43902357D01*
X78708334Y-44045214D01*
X78660715Y-44140452D01*
X78613096Y-44188071D01*
X78517858Y-44235690D01*
X78136905Y-44235690D01*
X79470239Y-44188071D02*
X79613096Y-44235690D01*
X79660715Y-44283310D01*
X79708334Y-44378548D01*
X79708334Y-44521405D01*
X79660715Y-44616643D01*
X79613096Y-44664262D01*
X79517858Y-44711881D01*
X79136905Y-44711881D01*
X79136905Y-43711881D01*
X79470239Y-43711881D01*
X79565477Y-43759500D01*
X79613096Y-43807119D01*
X79660715Y-43902357D01*
X79660715Y-43997595D01*
X79613096Y-44092833D01*
X79565477Y-44140452D01*
X79470239Y-44188071D01*
X79136905Y-44188071D01*
X80279762Y-44140452D02*
X80184524Y-44092833D01*
X80136905Y-44045214D01*
X80089286Y-43949976D01*
X80089286Y-43902357D01*
X80136905Y-43807119D01*
X80184524Y-43759500D01*
X80279762Y-43711881D01*
X80470239Y-43711881D01*
X80565477Y-43759500D01*
X80613096Y-43807119D01*
X80660715Y-43902357D01*
X80660715Y-43949976D01*
X80613096Y-44045214D01*
X80565477Y-44092833D01*
X80470239Y-44140452D01*
X80279762Y-44140452D01*
X80184524Y-44188071D01*
X80136905Y-44235690D01*
X80089286Y-44330929D01*
X80089286Y-44521405D01*
X80136905Y-44616643D01*
X80184524Y-44664262D01*
X80279762Y-44711881D01*
X80470239Y-44711881D01*
X80565477Y-44664262D01*
X80613096Y-44616643D01*
X80660715Y-44521405D01*
X80660715Y-44330929D01*
X80613096Y-44235690D01*
X80565477Y-44188071D01*
X80470239Y-44140452D01*
X78136905Y-47505881D02*
X78136905Y-46505881D01*
X78517858Y-46505881D01*
X78613096Y-46553500D01*
X78660715Y-46601119D01*
X78708334Y-46696357D01*
X78708334Y-46839214D01*
X78660715Y-46934452D01*
X78613096Y-46982071D01*
X78517858Y-47029690D01*
X78136905Y-47029690D01*
X79470239Y-46982071D02*
X79613096Y-47029690D01*
X79660715Y-47077310D01*
X79708334Y-47172548D01*
X79708334Y-47315405D01*
X79660715Y-47410643D01*
X79613096Y-47458262D01*
X79517858Y-47505881D01*
X79136905Y-47505881D01*
X79136905Y-46505881D01*
X79470239Y-46505881D01*
X79565477Y-46553500D01*
X79613096Y-46601119D01*
X79660715Y-46696357D01*
X79660715Y-46791595D01*
X79613096Y-46886833D01*
X79565477Y-46934452D01*
X79470239Y-46982071D01*
X79136905Y-46982071D01*
X80041667Y-46505881D02*
X80708334Y-46505881D01*
X80279762Y-47505881D01*
X78187705Y-49855381D02*
X78187705Y-48855381D01*
X78568658Y-48855381D01*
X78663896Y-48903000D01*
X78711515Y-48950619D01*
X78759134Y-49045857D01*
X78759134Y-49188714D01*
X78711515Y-49283952D01*
X78663896Y-49331571D01*
X78568658Y-49379190D01*
X78187705Y-49379190D01*
X79521039Y-49331571D02*
X79663896Y-49379190D01*
X79711515Y-49426810D01*
X79759134Y-49522048D01*
X79759134Y-49664905D01*
X79711515Y-49760143D01*
X79663896Y-49807762D01*
X79568658Y-49855381D01*
X79187705Y-49855381D01*
X79187705Y-48855381D01*
X79521039Y-48855381D01*
X79616277Y-48903000D01*
X79663896Y-48950619D01*
X79711515Y-49045857D01*
X79711515Y-49141095D01*
X79663896Y-49236333D01*
X79616277Y-49283952D01*
X79521039Y-49331571D01*
X79187705Y-49331571D01*
X80616277Y-48855381D02*
X80425800Y-48855381D01*
X80330562Y-48903000D01*
X80282943Y-48950619D01*
X80187705Y-49093476D01*
X80140086Y-49283952D01*
X80140086Y-49664905D01*
X80187705Y-49760143D01*
X80235324Y-49807762D01*
X80330562Y-49855381D01*
X80521039Y-49855381D01*
X80616277Y-49807762D01*
X80663896Y-49760143D01*
X80711515Y-49664905D01*
X80711515Y-49426810D01*
X80663896Y-49331571D01*
X80616277Y-49283952D01*
X80521039Y-49236333D01*
X80330562Y-49236333D01*
X80235324Y-49283952D01*
X80187705Y-49331571D01*
X80140086Y-49426810D01*
X78187705Y-52420781D02*
X78187705Y-51420781D01*
X78568658Y-51420781D01*
X78663896Y-51468400D01*
X78711515Y-51516019D01*
X78759134Y-51611257D01*
X78759134Y-51754114D01*
X78711515Y-51849352D01*
X78663896Y-51896971D01*
X78568658Y-51944590D01*
X78187705Y-51944590D01*
X79521039Y-51896971D02*
X79663896Y-51944590D01*
X79711515Y-51992210D01*
X79759134Y-52087448D01*
X79759134Y-52230305D01*
X79711515Y-52325543D01*
X79663896Y-52373162D01*
X79568658Y-52420781D01*
X79187705Y-52420781D01*
X79187705Y-51420781D01*
X79521039Y-51420781D01*
X79616277Y-51468400D01*
X79663896Y-51516019D01*
X79711515Y-51611257D01*
X79711515Y-51706495D01*
X79663896Y-51801733D01*
X79616277Y-51849352D01*
X79521039Y-51896971D01*
X79187705Y-51896971D01*
X80663896Y-51420781D02*
X80187705Y-51420781D01*
X80140086Y-51896971D01*
X80187705Y-51849352D01*
X80282943Y-51801733D01*
X80521039Y-51801733D01*
X80616277Y-51849352D01*
X80663896Y-51896971D01*
X80711515Y-51992210D01*
X80711515Y-52230305D01*
X80663896Y-52325543D01*
X80616277Y-52373162D01*
X80521039Y-52420781D01*
X80282943Y-52420781D01*
X80187705Y-52373162D01*
X80140086Y-52325543D01*
X78136905Y-54884581D02*
X78136905Y-53884581D01*
X78517858Y-53884581D01*
X78613096Y-53932200D01*
X78660715Y-53979819D01*
X78708334Y-54075057D01*
X78708334Y-54217914D01*
X78660715Y-54313152D01*
X78613096Y-54360771D01*
X78517858Y-54408390D01*
X78136905Y-54408390D01*
X79470239Y-54360771D02*
X79613096Y-54408390D01*
X79660715Y-54456010D01*
X79708334Y-54551248D01*
X79708334Y-54694105D01*
X79660715Y-54789343D01*
X79613096Y-54836962D01*
X79517858Y-54884581D01*
X79136905Y-54884581D01*
X79136905Y-53884581D01*
X79470239Y-53884581D01*
X79565477Y-53932200D01*
X79613096Y-53979819D01*
X79660715Y-54075057D01*
X79660715Y-54170295D01*
X79613096Y-54265533D01*
X79565477Y-54313152D01*
X79470239Y-54360771D01*
X79136905Y-54360771D01*
X80565477Y-54217914D02*
X80565477Y-54884581D01*
X80327381Y-53836962D02*
X80089286Y-54551248D01*
X80708334Y-54551248D01*
X78022605Y-57564281D02*
X78022605Y-56564281D01*
X78403558Y-56564281D01*
X78498796Y-56611900D01*
X78546415Y-56659519D01*
X78594034Y-56754757D01*
X78594034Y-56897614D01*
X78546415Y-56992852D01*
X78498796Y-57040471D01*
X78403558Y-57088090D01*
X78022605Y-57088090D01*
X79355939Y-57040471D02*
X79498796Y-57088090D01*
X79546415Y-57135710D01*
X79594034Y-57230948D01*
X79594034Y-57373805D01*
X79546415Y-57469043D01*
X79498796Y-57516662D01*
X79403558Y-57564281D01*
X79022605Y-57564281D01*
X79022605Y-56564281D01*
X79355939Y-56564281D01*
X79451177Y-56611900D01*
X79498796Y-56659519D01*
X79546415Y-56754757D01*
X79546415Y-56849995D01*
X79498796Y-56945233D01*
X79451177Y-56992852D01*
X79355939Y-57040471D01*
X79022605Y-57040471D01*
X79927367Y-56564281D02*
X80546415Y-56564281D01*
X80213081Y-56945233D01*
X80355939Y-56945233D01*
X80451177Y-56992852D01*
X80498796Y-57040471D01*
X80546415Y-57135710D01*
X80546415Y-57373805D01*
X80498796Y-57469043D01*
X80451177Y-57516662D01*
X80355939Y-57564281D01*
X80070224Y-57564281D01*
X79974986Y-57516662D01*
X79927367Y-57469043D01*
X77859143Y-60015381D02*
X77859143Y-59015381D01*
X78240096Y-59015381D01*
X78335334Y-59063000D01*
X78382953Y-59110619D01*
X78430572Y-59205857D01*
X78430572Y-59348714D01*
X78382953Y-59443952D01*
X78335334Y-59491571D01*
X78240096Y-59539190D01*
X77859143Y-59539190D01*
X78811524Y-59729667D02*
X79287715Y-59729667D01*
X78716286Y-60015381D02*
X79049619Y-59015381D01*
X79382953Y-60015381D01*
X80240096Y-60015381D02*
X79668667Y-60015381D01*
X79954381Y-60015381D02*
X79954381Y-59015381D01*
X79859143Y-59158238D01*
X79763905Y-59253476D01*
X79668667Y-59301095D01*
X81144858Y-59015381D02*
X80668667Y-59015381D01*
X80621048Y-59491571D01*
X80668667Y-59443952D01*
X80763905Y-59396333D01*
X81002001Y-59396333D01*
X81097239Y-59443952D01*
X81144858Y-59491571D01*
X81192477Y-59586810D01*
X81192477Y-59824905D01*
X81144858Y-59920143D01*
X81097239Y-59967762D01*
X81002001Y-60015381D01*
X80763905Y-60015381D01*
X80668667Y-59967762D01*
X80621048Y-59920143D01*
X77732143Y-62555381D02*
X77732143Y-61555381D01*
X78113096Y-61555381D01*
X78208334Y-61603000D01*
X78255953Y-61650619D01*
X78303572Y-61745857D01*
X78303572Y-61888714D01*
X78255953Y-61983952D01*
X78208334Y-62031571D01*
X78113096Y-62079190D01*
X77732143Y-62079190D01*
X78684524Y-62269667D02*
X79160715Y-62269667D01*
X78589286Y-62555381D02*
X78922619Y-61555381D01*
X79255953Y-62555381D01*
X80113096Y-62555381D02*
X79541667Y-62555381D01*
X79827381Y-62555381D02*
X79827381Y-61555381D01*
X79732143Y-61698238D01*
X79636905Y-61793476D01*
X79541667Y-61841095D01*
X80494048Y-61650619D02*
X80541667Y-61603000D01*
X80636905Y-61555381D01*
X80875001Y-61555381D01*
X80970239Y-61603000D01*
X81017858Y-61650619D01*
X81065477Y-61745857D01*
X81065477Y-61841095D01*
X81017858Y-61983952D01*
X80446429Y-62555381D01*
X81065477Y-62555381D01*
X77859143Y-65222381D02*
X77859143Y-64222381D01*
X78240096Y-64222381D01*
X78335334Y-64270000D01*
X78382953Y-64317619D01*
X78430572Y-64412857D01*
X78430572Y-64555714D01*
X78382953Y-64650952D01*
X78335334Y-64698571D01*
X78240096Y-64746190D01*
X77859143Y-64746190D01*
X78811524Y-64936667D02*
X79287715Y-64936667D01*
X78716286Y-65222381D02*
X79049619Y-64222381D01*
X79382953Y-65222381D01*
X80240096Y-65222381D02*
X79668667Y-65222381D01*
X79954381Y-65222381D02*
X79954381Y-64222381D01*
X79859143Y-64365238D01*
X79763905Y-64460476D01*
X79668667Y-64508095D01*
X81192477Y-65222381D02*
X80621048Y-65222381D01*
X80906762Y-65222381D02*
X80906762Y-64222381D01*
X80811524Y-64365238D01*
X80716286Y-64460476D01*
X80621048Y-64508095D01*
X77732143Y-67762381D02*
X77732143Y-66762381D01*
X78113096Y-66762381D01*
X78208334Y-66810000D01*
X78255953Y-66857619D01*
X78303572Y-66952857D01*
X78303572Y-67095714D01*
X78255953Y-67190952D01*
X78208334Y-67238571D01*
X78113096Y-67286190D01*
X77732143Y-67286190D01*
X78684524Y-67476667D02*
X79160715Y-67476667D01*
X78589286Y-67762381D02*
X78922619Y-66762381D01*
X79255953Y-67762381D01*
X80113096Y-67762381D02*
X79541667Y-67762381D01*
X79827381Y-67762381D02*
X79827381Y-66762381D01*
X79732143Y-66905238D01*
X79636905Y-67000476D01*
X79541667Y-67048095D01*
X80732143Y-66762381D02*
X80827382Y-66762381D01*
X80922620Y-66810000D01*
X80970239Y-66857619D01*
X81017858Y-66952857D01*
X81065477Y-67143333D01*
X81065477Y-67381429D01*
X81017858Y-67571905D01*
X80970239Y-67667143D01*
X80922620Y-67714762D01*
X80827382Y-67762381D01*
X80732143Y-67762381D01*
X80636905Y-67714762D01*
X80589286Y-67667143D01*
X80541667Y-67571905D01*
X80494048Y-67381429D01*
X80494048Y-67143333D01*
X80541667Y-66952857D01*
X80589286Y-66857619D01*
X80636905Y-66810000D01*
X80732143Y-66762381D01*
X77979733Y-70302381D02*
X77979733Y-69302381D01*
X78360686Y-69302381D01*
X78455924Y-69350000D01*
X78503543Y-69397619D01*
X78551162Y-69492857D01*
X78551162Y-69635714D01*
X78503543Y-69730952D01*
X78455924Y-69778571D01*
X78360686Y-69826190D01*
X77979733Y-69826190D01*
X78932114Y-70016667D02*
X79408305Y-70016667D01*
X78836876Y-70302381D02*
X79170209Y-69302381D01*
X79503543Y-70302381D01*
X79884495Y-70302381D02*
X80074971Y-70302381D01*
X80170210Y-70254762D01*
X80217829Y-70207143D01*
X80313067Y-70064286D01*
X80360686Y-69873810D01*
X80360686Y-69492857D01*
X80313067Y-69397619D01*
X80265448Y-69350000D01*
X80170210Y-69302381D01*
X79979733Y-69302381D01*
X79884495Y-69350000D01*
X79836876Y-69397619D01*
X79789257Y-69492857D01*
X79789257Y-69730952D01*
X79836876Y-69826190D01*
X79884495Y-69873810D01*
X79979733Y-69921429D01*
X80170210Y-69921429D01*
X80265448Y-69873810D01*
X80313067Y-69826190D01*
X80360686Y-69730952D01*
X77928933Y-72816981D02*
X77928933Y-71816981D01*
X78309886Y-71816981D01*
X78405124Y-71864600D01*
X78452743Y-71912219D01*
X78500362Y-72007457D01*
X78500362Y-72150314D01*
X78452743Y-72245552D01*
X78405124Y-72293171D01*
X78309886Y-72340790D01*
X77928933Y-72340790D01*
X78881314Y-72531267D02*
X79357505Y-72531267D01*
X78786076Y-72816981D02*
X79119409Y-71816981D01*
X79452743Y-72816981D01*
X79928933Y-72245552D02*
X79833695Y-72197933D01*
X79786076Y-72150314D01*
X79738457Y-72055076D01*
X79738457Y-72007457D01*
X79786076Y-71912219D01*
X79833695Y-71864600D01*
X79928933Y-71816981D01*
X80119410Y-71816981D01*
X80214648Y-71864600D01*
X80262267Y-71912219D01*
X80309886Y-72007457D01*
X80309886Y-72055076D01*
X80262267Y-72150314D01*
X80214648Y-72197933D01*
X80119410Y-72245552D01*
X79928933Y-72245552D01*
X79833695Y-72293171D01*
X79786076Y-72340790D01*
X79738457Y-72436029D01*
X79738457Y-72626505D01*
X79786076Y-72721743D01*
X79833695Y-72769362D01*
X79928933Y-72816981D01*
X80119410Y-72816981D01*
X80214648Y-72769362D01*
X80262267Y-72721743D01*
X80309886Y-72626505D01*
X80309886Y-72436029D01*
X80262267Y-72340790D01*
X80214648Y-72293171D01*
X80119410Y-72245552D01*
X77787714Y-75128381D02*
X77787714Y-74128381D01*
X78168667Y-74128381D01*
X78263905Y-74176000D01*
X78311524Y-74223619D01*
X78359143Y-74318857D01*
X78359143Y-74461714D01*
X78311524Y-74556952D01*
X78263905Y-74604571D01*
X78168667Y-74652190D01*
X77787714Y-74652190D01*
X79121048Y-74604571D02*
X79263905Y-74652190D01*
X79311524Y-74699810D01*
X79359143Y-74795048D01*
X79359143Y-74937905D01*
X79311524Y-75033143D01*
X79263905Y-75080762D01*
X79168667Y-75128381D01*
X78787714Y-75128381D01*
X78787714Y-74128381D01*
X79121048Y-74128381D01*
X79216286Y-74176000D01*
X79263905Y-74223619D01*
X79311524Y-74318857D01*
X79311524Y-74414095D01*
X79263905Y-74509333D01*
X79216286Y-74556952D01*
X79121048Y-74604571D01*
X78787714Y-74604571D01*
X80311524Y-75128381D02*
X79740095Y-75128381D01*
X80025809Y-75128381D02*
X80025809Y-74128381D01*
X79930571Y-74271238D01*
X79835333Y-74366476D01*
X79740095Y-74414095D01*
X81216286Y-74128381D02*
X80740095Y-74128381D01*
X80692476Y-74604571D01*
X80740095Y-74556952D01*
X80835333Y-74509333D01*
X81073429Y-74509333D01*
X81168667Y-74556952D01*
X81216286Y-74604571D01*
X81263905Y-74699810D01*
X81263905Y-74937905D01*
X81216286Y-75033143D01*
X81168667Y-75080762D01*
X81073429Y-75128381D01*
X80835333Y-75128381D01*
X80740095Y-75080762D01*
X80692476Y-75033143D01*
X77787714Y-77668381D02*
X77787714Y-76668381D01*
X78168667Y-76668381D01*
X78263905Y-76716000D01*
X78311524Y-76763619D01*
X78359143Y-76858857D01*
X78359143Y-77001714D01*
X78311524Y-77096952D01*
X78263905Y-77144571D01*
X78168667Y-77192190D01*
X77787714Y-77192190D01*
X79121048Y-77144571D02*
X79263905Y-77192190D01*
X79311524Y-77239810D01*
X79359143Y-77335048D01*
X79359143Y-77477905D01*
X79311524Y-77573143D01*
X79263905Y-77620762D01*
X79168667Y-77668381D01*
X78787714Y-77668381D01*
X78787714Y-76668381D01*
X79121048Y-76668381D01*
X79216286Y-76716000D01*
X79263905Y-76763619D01*
X79311524Y-76858857D01*
X79311524Y-76954095D01*
X79263905Y-77049333D01*
X79216286Y-77096952D01*
X79121048Y-77144571D01*
X78787714Y-77144571D01*
X80311524Y-77668381D02*
X79740095Y-77668381D01*
X80025809Y-77668381D02*
X80025809Y-76668381D01*
X79930571Y-76811238D01*
X79835333Y-76906476D01*
X79740095Y-76954095D01*
X81168667Y-77001714D02*
X81168667Y-77668381D01*
X80930571Y-76620762D02*
X80692476Y-77335048D01*
X81311524Y-77335048D01*
X77787714Y-80208381D02*
X77787714Y-79208381D01*
X78168667Y-79208381D01*
X78263905Y-79256000D01*
X78311524Y-79303619D01*
X78359143Y-79398857D01*
X78359143Y-79541714D01*
X78311524Y-79636952D01*
X78263905Y-79684571D01*
X78168667Y-79732190D01*
X77787714Y-79732190D01*
X79121048Y-79684571D02*
X79263905Y-79732190D01*
X79311524Y-79779810D01*
X79359143Y-79875048D01*
X79359143Y-80017905D01*
X79311524Y-80113143D01*
X79263905Y-80160762D01*
X79168667Y-80208381D01*
X78787714Y-80208381D01*
X78787714Y-79208381D01*
X79121048Y-79208381D01*
X79216286Y-79256000D01*
X79263905Y-79303619D01*
X79311524Y-79398857D01*
X79311524Y-79494095D01*
X79263905Y-79589333D01*
X79216286Y-79636952D01*
X79121048Y-79684571D01*
X78787714Y-79684571D01*
X80311524Y-80208381D02*
X79740095Y-80208381D01*
X80025809Y-80208381D02*
X80025809Y-79208381D01*
X79930571Y-79351238D01*
X79835333Y-79446476D01*
X79740095Y-79494095D01*
X80644857Y-79208381D02*
X81263905Y-79208381D01*
X80930571Y-79589333D01*
X81073429Y-79589333D01*
X81168667Y-79636952D01*
X81216286Y-79684571D01*
X81263905Y-79779810D01*
X81263905Y-80017905D01*
X81216286Y-80113143D01*
X81168667Y-80160762D01*
X81073429Y-80208381D01*
X80787714Y-80208381D01*
X80692476Y-80160762D01*
X80644857Y-80113143D01*
X77787714Y-83002381D02*
X77787714Y-82002381D01*
X78168667Y-82002381D01*
X78263905Y-82050000D01*
X78311524Y-82097619D01*
X78359143Y-82192857D01*
X78359143Y-82335714D01*
X78311524Y-82430952D01*
X78263905Y-82478571D01*
X78168667Y-82526190D01*
X77787714Y-82526190D01*
X79121048Y-82478571D02*
X79263905Y-82526190D01*
X79311524Y-82573810D01*
X79359143Y-82669048D01*
X79359143Y-82811905D01*
X79311524Y-82907143D01*
X79263905Y-82954762D01*
X79168667Y-83002381D01*
X78787714Y-83002381D01*
X78787714Y-82002381D01*
X79121048Y-82002381D01*
X79216286Y-82050000D01*
X79263905Y-82097619D01*
X79311524Y-82192857D01*
X79311524Y-82288095D01*
X79263905Y-82383333D01*
X79216286Y-82430952D01*
X79121048Y-82478571D01*
X78787714Y-82478571D01*
X80311524Y-83002381D02*
X79740095Y-83002381D01*
X80025809Y-83002381D02*
X80025809Y-82002381D01*
X79930571Y-82145238D01*
X79835333Y-82240476D01*
X79740095Y-82288095D01*
X80692476Y-82097619D02*
X80740095Y-82050000D01*
X80835333Y-82002381D01*
X81073429Y-82002381D01*
X81168667Y-82050000D01*
X81216286Y-82097619D01*
X81263905Y-82192857D01*
X81263905Y-82288095D01*
X81216286Y-82430952D01*
X80644857Y-83002381D01*
X81263905Y-83002381D01*
X57378696Y-82090640D02*
X57283458Y-82043021D01*
X57140601Y-82043021D01*
X56997743Y-82090640D01*
X56902505Y-82185878D01*
X56854886Y-82281116D01*
X56807267Y-82471592D01*
X56807267Y-82614450D01*
X56854886Y-82804926D01*
X56902505Y-82900164D01*
X56997743Y-82995402D01*
X57140601Y-83043021D01*
X57235839Y-83043021D01*
X57378696Y-82995402D01*
X57426315Y-82947783D01*
X57426315Y-82614450D01*
X57235839Y-82614450D01*
X57854886Y-83043021D02*
X57854886Y-82043021D01*
X58426315Y-83043021D01*
X58426315Y-82043021D01*
X58902505Y-83043021D02*
X58902505Y-82043021D01*
X59140600Y-82043021D01*
X59283458Y-82090640D01*
X59378696Y-82185878D01*
X59426315Y-82281116D01*
X59473934Y-82471592D01*
X59473934Y-82614450D01*
X59426315Y-82804926D01*
X59378696Y-82900164D01*
X59283458Y-82995402D01*
X59140600Y-83043021D01*
X58902505Y-83043021D01*
X57434576Y-79296640D02*
X57339338Y-79249021D01*
X57196481Y-79249021D01*
X57053623Y-79296640D01*
X56958385Y-79391878D01*
X56910766Y-79487116D01*
X56863147Y-79677592D01*
X56863147Y-79820450D01*
X56910766Y-80010926D01*
X56958385Y-80106164D01*
X57053623Y-80201402D01*
X57196481Y-80249021D01*
X57291719Y-80249021D01*
X57434576Y-80201402D01*
X57482195Y-80153783D01*
X57482195Y-79820450D01*
X57291719Y-79820450D01*
X57910766Y-80249021D02*
X57910766Y-79249021D01*
X58482195Y-80249021D01*
X58482195Y-79249021D01*
X58958385Y-80249021D02*
X58958385Y-79249021D01*
X59196480Y-79249021D01*
X59339338Y-79296640D01*
X59434576Y-79391878D01*
X59482195Y-79487116D01*
X59529814Y-79677592D01*
X59529814Y-79820450D01*
X59482195Y-80010926D01*
X59434576Y-80106164D01*
X59339338Y-80201402D01*
X59196480Y-80249021D01*
X58958385Y-80249021D01*
X57070145Y-76846181D02*
X57689193Y-76846181D01*
X57355859Y-77227133D01*
X57498717Y-77227133D01*
X57593955Y-77274752D01*
X57641574Y-77322371D01*
X57689193Y-77417610D01*
X57689193Y-77655705D01*
X57641574Y-77750943D01*
X57593955Y-77798562D01*
X57498717Y-77846181D01*
X57213002Y-77846181D01*
X57117764Y-77798562D01*
X57070145Y-77750943D01*
X57974907Y-76846181D02*
X58308240Y-77846181D01*
X58641574Y-76846181D01*
X58879669Y-76846181D02*
X59498717Y-76846181D01*
X59165383Y-77227133D01*
X59308241Y-77227133D01*
X59403479Y-77274752D01*
X59451098Y-77322371D01*
X59498717Y-77417610D01*
X59498717Y-77655705D01*
X59451098Y-77750943D01*
X59403479Y-77798562D01*
X59308241Y-77846181D01*
X59022526Y-77846181D01*
X58927288Y-77798562D01*
X58879669Y-77750943D01*
X56050703Y-75219821D02*
X56050703Y-74219821D01*
X56622132Y-75219821D01*
X56622132Y-74219821D01*
X57669751Y-75219821D02*
X57336417Y-74743630D01*
X57098322Y-75219821D02*
X57098322Y-74219821D01*
X57479275Y-74219821D01*
X57574513Y-74267440D01*
X57622132Y-74315059D01*
X57669751Y-74410297D01*
X57669751Y-74553154D01*
X57622132Y-74648392D01*
X57574513Y-74696011D01*
X57479275Y-74743630D01*
X57098322Y-74743630D01*
X58050703Y-75172202D02*
X58193560Y-75219821D01*
X58431656Y-75219821D01*
X58526894Y-75172202D01*
X58574513Y-75124583D01*
X58622132Y-75029345D01*
X58622132Y-74934107D01*
X58574513Y-74838869D01*
X58526894Y-74791250D01*
X58431656Y-74743630D01*
X58241179Y-74696011D01*
X58145941Y-74648392D01*
X58098322Y-74600773D01*
X58050703Y-74505535D01*
X58050703Y-74410297D01*
X58098322Y-74315059D01*
X58145941Y-74267440D01*
X58241179Y-74219821D01*
X58479275Y-74219821D01*
X58622132Y-74267440D01*
X58907846Y-74219821D02*
X59479275Y-74219821D01*
X59193560Y-75219821D02*
X59193560Y-74219821D01*
X56258674Y-72593461D02*
X56258674Y-71593461D01*
X56639627Y-71593461D01*
X56734865Y-71641080D01*
X56782484Y-71688699D01*
X56830103Y-71783937D01*
X56830103Y-71926794D01*
X56782484Y-72022032D01*
X56734865Y-72069651D01*
X56639627Y-72117270D01*
X56258674Y-72117270D01*
X57592008Y-72069651D02*
X57734865Y-72117270D01*
X57782484Y-72164890D01*
X57830103Y-72260128D01*
X57830103Y-72402985D01*
X57782484Y-72498223D01*
X57734865Y-72545842D01*
X57639627Y-72593461D01*
X57258674Y-72593461D01*
X57258674Y-71593461D01*
X57592008Y-71593461D01*
X57687246Y-71641080D01*
X57734865Y-71688699D01*
X57782484Y-71783937D01*
X57782484Y-71879175D01*
X57734865Y-71974413D01*
X57687246Y-72022032D01*
X57592008Y-72069651D01*
X57258674Y-72069651D01*
X58782484Y-72593461D02*
X58211055Y-72593461D01*
X58496769Y-72593461D02*
X58496769Y-71593461D01*
X58401531Y-71736318D01*
X58306293Y-71831556D01*
X58211055Y-71879175D01*
X59734865Y-72593461D02*
X59163436Y-72593461D01*
X59449150Y-72593461D02*
X59449150Y-71593461D01*
X59353912Y-71736318D01*
X59258674Y-71831556D01*
X59163436Y-71879175D01*
X56091034Y-70134741D02*
X56091034Y-69134741D01*
X56471987Y-69134741D01*
X56567225Y-69182360D01*
X56614844Y-69229979D01*
X56662463Y-69325217D01*
X56662463Y-69468074D01*
X56614844Y-69563312D01*
X56567225Y-69610931D01*
X56471987Y-69658550D01*
X56091034Y-69658550D01*
X57424368Y-69610931D02*
X57567225Y-69658550D01*
X57614844Y-69706170D01*
X57662463Y-69801408D01*
X57662463Y-69944265D01*
X57614844Y-70039503D01*
X57567225Y-70087122D01*
X57471987Y-70134741D01*
X57091034Y-70134741D01*
X57091034Y-69134741D01*
X57424368Y-69134741D01*
X57519606Y-69182360D01*
X57567225Y-69229979D01*
X57614844Y-69325217D01*
X57614844Y-69420455D01*
X57567225Y-69515693D01*
X57519606Y-69563312D01*
X57424368Y-69610931D01*
X57091034Y-69610931D01*
X58614844Y-70134741D02*
X58043415Y-70134741D01*
X58329129Y-70134741D02*
X58329129Y-69134741D01*
X58233891Y-69277598D01*
X58138653Y-69372836D01*
X58043415Y-69420455D01*
X59233891Y-69134741D02*
X59329130Y-69134741D01*
X59424368Y-69182360D01*
X59471987Y-69229979D01*
X59519606Y-69325217D01*
X59567225Y-69515693D01*
X59567225Y-69753789D01*
X59519606Y-69944265D01*
X59471987Y-70039503D01*
X59424368Y-70087122D01*
X59329130Y-70134741D01*
X59233891Y-70134741D01*
X59138653Y-70087122D01*
X59091034Y-70039503D01*
X59043415Y-69944265D01*
X58995796Y-69753789D01*
X58995796Y-69515693D01*
X59043415Y-69325217D01*
X59091034Y-69229979D01*
X59138653Y-69182360D01*
X59233891Y-69134741D01*
X57126025Y-67620141D02*
X57126025Y-66620141D01*
X57506978Y-66620141D01*
X57602216Y-66667760D01*
X57649835Y-66715379D01*
X57697454Y-66810617D01*
X57697454Y-66953474D01*
X57649835Y-67048712D01*
X57602216Y-67096331D01*
X57506978Y-67143950D01*
X57126025Y-67143950D01*
X58459359Y-67096331D02*
X58602216Y-67143950D01*
X58649835Y-67191570D01*
X58697454Y-67286808D01*
X58697454Y-67429665D01*
X58649835Y-67524903D01*
X58602216Y-67572522D01*
X58506978Y-67620141D01*
X58126025Y-67620141D01*
X58126025Y-66620141D01*
X58459359Y-66620141D01*
X58554597Y-66667760D01*
X58602216Y-66715379D01*
X58649835Y-66810617D01*
X58649835Y-66905855D01*
X58602216Y-67001093D01*
X58554597Y-67048712D01*
X58459359Y-67096331D01*
X58126025Y-67096331D01*
X59649835Y-67620141D02*
X59078406Y-67620141D01*
X59364120Y-67620141D02*
X59364120Y-66620141D01*
X59268882Y-66762998D01*
X59173644Y-66858236D01*
X59078406Y-66905855D01*
X57126025Y-65217301D02*
X57126025Y-64217301D01*
X57506978Y-64217301D01*
X57602216Y-64264920D01*
X57649835Y-64312539D01*
X57697454Y-64407777D01*
X57697454Y-64550634D01*
X57649835Y-64645872D01*
X57602216Y-64693491D01*
X57506978Y-64741110D01*
X57126025Y-64741110D01*
X58459359Y-64693491D02*
X58602216Y-64741110D01*
X58649835Y-64788730D01*
X58697454Y-64883968D01*
X58697454Y-65026825D01*
X58649835Y-65122063D01*
X58602216Y-65169682D01*
X58506978Y-65217301D01*
X58126025Y-65217301D01*
X58126025Y-64217301D01*
X58459359Y-64217301D01*
X58554597Y-64264920D01*
X58602216Y-64312539D01*
X58649835Y-64407777D01*
X58649835Y-64503015D01*
X58602216Y-64598253D01*
X58554597Y-64645872D01*
X58459359Y-64693491D01*
X58126025Y-64693491D01*
X59316501Y-64217301D02*
X59411740Y-64217301D01*
X59506978Y-64264920D01*
X59554597Y-64312539D01*
X59602216Y-64407777D01*
X59649835Y-64598253D01*
X59649835Y-64836349D01*
X59602216Y-65026825D01*
X59554597Y-65122063D01*
X59506978Y-65169682D01*
X59411740Y-65217301D01*
X59316501Y-65217301D01*
X59221263Y-65169682D01*
X59173644Y-65122063D01*
X59126025Y-65026825D01*
X59078406Y-64836349D01*
X59078406Y-64598253D01*
X59126025Y-64407777D01*
X59173644Y-64312539D01*
X59221263Y-64264920D01*
X59316501Y-64217301D01*
X57085693Y-62590941D02*
X57085693Y-61590941D01*
X57466646Y-61590941D01*
X57561884Y-61638560D01*
X57609503Y-61686179D01*
X57657122Y-61781417D01*
X57657122Y-61924274D01*
X57609503Y-62019512D01*
X57561884Y-62067131D01*
X57466646Y-62114750D01*
X57085693Y-62114750D01*
X58038074Y-62305227D02*
X58514265Y-62305227D01*
X57942836Y-62590941D02*
X58276169Y-61590941D01*
X58609503Y-62590941D01*
X58847598Y-61590941D02*
X59514265Y-61590941D01*
X59085693Y-62590941D01*
X57085693Y-59964581D02*
X57085693Y-58964581D01*
X57466646Y-58964581D01*
X57561884Y-59012200D01*
X57609503Y-59059819D01*
X57657122Y-59155057D01*
X57657122Y-59297914D01*
X57609503Y-59393152D01*
X57561884Y-59440771D01*
X57466646Y-59488390D01*
X57085693Y-59488390D01*
X58038074Y-59678867D02*
X58514265Y-59678867D01*
X57942836Y-59964581D02*
X58276169Y-58964581D01*
X58609503Y-59964581D01*
X59371408Y-58964581D02*
X59180931Y-58964581D01*
X59085693Y-59012200D01*
X59038074Y-59059819D01*
X58942836Y-59202676D01*
X58895217Y-59393152D01*
X58895217Y-59774105D01*
X58942836Y-59869343D01*
X58990455Y-59916962D01*
X59085693Y-59964581D01*
X59276170Y-59964581D01*
X59371408Y-59916962D01*
X59419027Y-59869343D01*
X59466646Y-59774105D01*
X59466646Y-59536010D01*
X59419027Y-59440771D01*
X59371408Y-59393152D01*
X59276170Y-59345533D01*
X59085693Y-59345533D01*
X58990455Y-59393152D01*
X58942836Y-59440771D01*
X58895217Y-59536010D01*
X57085693Y-57449981D02*
X57085693Y-56449981D01*
X57466646Y-56449981D01*
X57561884Y-56497600D01*
X57609503Y-56545219D01*
X57657122Y-56640457D01*
X57657122Y-56783314D01*
X57609503Y-56878552D01*
X57561884Y-56926171D01*
X57466646Y-56973790D01*
X57085693Y-56973790D01*
X58038074Y-57164267D02*
X58514265Y-57164267D01*
X57942836Y-57449981D02*
X58276169Y-56449981D01*
X58609503Y-57449981D01*
X59419027Y-56449981D02*
X58942836Y-56449981D01*
X58895217Y-56926171D01*
X58942836Y-56878552D01*
X59038074Y-56830933D01*
X59276170Y-56830933D01*
X59371408Y-56878552D01*
X59419027Y-56926171D01*
X59466646Y-57021410D01*
X59466646Y-57259505D01*
X59419027Y-57354743D01*
X59371408Y-57402362D01*
X59276170Y-57449981D01*
X59038074Y-57449981D01*
X58942836Y-57402362D01*
X58895217Y-57354743D01*
X57197453Y-54823621D02*
X57197453Y-53823621D01*
X57578406Y-53823621D01*
X57673644Y-53871240D01*
X57721263Y-53918859D01*
X57768882Y-54014097D01*
X57768882Y-54156954D01*
X57721263Y-54252192D01*
X57673644Y-54299811D01*
X57578406Y-54347430D01*
X57197453Y-54347430D01*
X58149834Y-54537907D02*
X58626025Y-54537907D01*
X58054596Y-54823621D02*
X58387929Y-53823621D01*
X58721263Y-54823621D01*
X59483168Y-54156954D02*
X59483168Y-54823621D01*
X59245072Y-53776002D02*
X59006977Y-54490288D01*
X59626025Y-54490288D01*
X57177133Y-52395381D02*
X57177133Y-51395381D01*
X57558086Y-51395381D01*
X57653324Y-51443000D01*
X57700943Y-51490619D01*
X57748562Y-51585857D01*
X57748562Y-51728714D01*
X57700943Y-51823952D01*
X57653324Y-51871571D01*
X57558086Y-51919190D01*
X57177133Y-51919190D01*
X58129514Y-52109667D02*
X58605705Y-52109667D01*
X58034276Y-52395381D02*
X58367609Y-51395381D01*
X58700943Y-52395381D01*
X58939038Y-51395381D02*
X59558086Y-51395381D01*
X59224752Y-51776333D01*
X59367610Y-51776333D01*
X59462848Y-51823952D01*
X59510467Y-51871571D01*
X59558086Y-51966810D01*
X59558086Y-52204905D01*
X59510467Y-52300143D01*
X59462848Y-52347762D01*
X59367610Y-52395381D01*
X59081895Y-52395381D01*
X58986657Y-52347762D01*
X58939038Y-52300143D01*
X57202533Y-49728381D02*
X57202533Y-48728381D01*
X57583486Y-48728381D01*
X57678724Y-48776000D01*
X57726343Y-48823619D01*
X57773962Y-48918857D01*
X57773962Y-49061714D01*
X57726343Y-49156952D01*
X57678724Y-49204571D01*
X57583486Y-49252190D01*
X57202533Y-49252190D01*
X58154914Y-49442667D02*
X58631105Y-49442667D01*
X58059676Y-49728381D02*
X58393009Y-48728381D01*
X58726343Y-49728381D01*
X59012057Y-48823619D02*
X59059676Y-48776000D01*
X59154914Y-48728381D01*
X59393010Y-48728381D01*
X59488248Y-48776000D01*
X59535867Y-48823619D01*
X59583486Y-48918857D01*
X59583486Y-49014095D01*
X59535867Y-49156952D01*
X58964438Y-49728381D01*
X59583486Y-49728381D01*
X57075533Y-47340781D02*
X57075533Y-46340781D01*
X57456486Y-46340781D01*
X57551724Y-46388400D01*
X57599343Y-46436019D01*
X57646962Y-46531257D01*
X57646962Y-46674114D01*
X57599343Y-46769352D01*
X57551724Y-46816971D01*
X57456486Y-46864590D01*
X57075533Y-46864590D01*
X58027914Y-47055067D02*
X58504105Y-47055067D01*
X57932676Y-47340781D02*
X58266009Y-46340781D01*
X58599343Y-47340781D01*
X59456486Y-47340781D02*
X58885057Y-47340781D01*
X59170771Y-47340781D02*
X59170771Y-46340781D01*
X59075533Y-46483638D01*
X58980295Y-46578876D01*
X58885057Y-46626495D01*
X57304133Y-44927781D02*
X57304133Y-43927781D01*
X57685086Y-43927781D01*
X57780324Y-43975400D01*
X57827943Y-44023019D01*
X57875562Y-44118257D01*
X57875562Y-44261114D01*
X57827943Y-44356352D01*
X57780324Y-44403971D01*
X57685086Y-44451590D01*
X57304133Y-44451590D01*
X58256514Y-44642067D02*
X58732705Y-44642067D01*
X58161276Y-44927781D02*
X58494609Y-43927781D01*
X58827943Y-44927781D01*
X59351752Y-43927781D02*
X59446991Y-43927781D01*
X59542229Y-43975400D01*
X59589848Y-44023019D01*
X59637467Y-44118257D01*
X59685086Y-44308733D01*
X59685086Y-44546829D01*
X59637467Y-44737305D01*
X59589848Y-44832543D01*
X59542229Y-44880162D01*
X59446991Y-44927781D01*
X59351752Y-44927781D01*
X59256514Y-44880162D01*
X59208895Y-44832543D01*
X59161276Y-44737305D01*
X59113657Y-44546829D01*
X59113657Y-44308733D01*
X59161276Y-44118257D01*
X59208895Y-44023019D01*
X59256514Y-43975400D01*
X59351752Y-43927781D01*
X56197714Y-37282381D02*
X56197714Y-36282381D01*
X56578667Y-36282381D01*
X56673905Y-36330000D01*
X56721524Y-36377619D01*
X56769143Y-36472857D01*
X56769143Y-36615714D01*
X56721524Y-36710952D01*
X56673905Y-36758571D01*
X56578667Y-36806190D01*
X56197714Y-36806190D01*
X57769143Y-37187143D02*
X57721524Y-37234762D01*
X57578667Y-37282381D01*
X57483429Y-37282381D01*
X57340571Y-37234762D01*
X57245333Y-37139524D01*
X57197714Y-37044286D01*
X57150095Y-36853810D01*
X57150095Y-36710952D01*
X57197714Y-36520476D01*
X57245333Y-36425238D01*
X57340571Y-36330000D01*
X57483429Y-36282381D01*
X57578667Y-36282381D01*
X57721524Y-36330000D01*
X57769143Y-36377619D01*
X58721524Y-37282381D02*
X58150095Y-37282381D01*
X58435809Y-37282381D02*
X58435809Y-36282381D01*
X58340571Y-36425238D01*
X58245333Y-36520476D01*
X58150095Y-36568095D01*
X59054857Y-36282381D02*
X59673905Y-36282381D01*
X59340571Y-36663333D01*
X59483429Y-36663333D01*
X59578667Y-36710952D01*
X59626286Y-36758571D01*
X59673905Y-36853810D01*
X59673905Y-37091905D01*
X59626286Y-37187143D01*
X59578667Y-37234762D01*
X59483429Y-37282381D01*
X59197714Y-37282381D01*
X59102476Y-37234762D01*
X59054857Y-37187143D01*
X56497743Y-33767781D02*
X56831076Y-34767781D01*
X57164410Y-33767781D01*
X57831077Y-34243971D02*
X57973934Y-34291590D01*
X58021553Y-34339210D01*
X58069172Y-34434448D01*
X58069172Y-34577305D01*
X58021553Y-34672543D01*
X57973934Y-34720162D01*
X57878696Y-34767781D01*
X57497743Y-34767781D01*
X57497743Y-33767781D01*
X57831077Y-33767781D01*
X57926315Y-33815400D01*
X57973934Y-33863019D01*
X58021553Y-33958257D01*
X58021553Y-34053495D01*
X57973934Y-34148733D01*
X57926315Y-34196352D01*
X57831077Y-34243971D01*
X57497743Y-34243971D01*
X58450124Y-34482067D02*
X58926315Y-34482067D01*
X58354886Y-34767781D02*
X58688219Y-33767781D01*
X59021553Y-34767781D01*
X59212029Y-33767781D02*
X59783458Y-33767781D01*
X59497743Y-34767781D02*
X59497743Y-33767781D01*
D12*
X59780000Y-83748000D02*
X62440000Y-83748000D01*
X59780000Y-35428000D02*
X59780000Y-83748000D01*
X62440000Y-35428000D02*
X62440000Y-83748000D01*
X59780000Y-35428000D02*
X62440000Y-35428000D01*
X59780000Y-34158000D02*
X59780000Y-32828000D01*
X59780000Y-32828000D02*
X61110000Y-32828000D01*
X61820300Y-95695400D02*
X66320300Y-95695400D01*
X60570300Y-91695400D02*
X60570300Y-93195400D01*
X66320300Y-89195400D02*
X61820300Y-89195400D01*
X67570300Y-93195400D02*
X67570300Y-91695400D01*
D11*
X74009000Y-51467000D02*
X73009000Y-51467000D01*
X74009000Y-61817000D02*
X72934000Y-61817000D01*
X63659000Y-61817000D02*
X64734000Y-61817000D01*
X63659000Y-51467000D02*
X64734000Y-51467000D01*
X74009000Y-51467000D02*
X74009000Y-52542000D01*
X63659000Y-51467000D02*
X63659000Y-52542000D01*
X63659000Y-61817000D02*
X63659000Y-60742000D01*
X74009000Y-61817000D02*
X74009000Y-60742000D01*
X73009000Y-51467000D02*
X73009000Y-50442000D01*
D12*
X74534000Y-40971000D02*
X74534000Y-47221000D01*
X69484000Y-40971000D02*
X69484000Y-47221000D01*
X69484000Y-40971000D02*
G75*
G02X74534000Y-40971000I2525000J0D01*
G01*
X69484000Y-47221000D02*
G75*
G03X74534000Y-47221000I2525000J0D01*
G01*
X63256800Y-72310000D02*
X73496800Y-72310000D01*
X63256800Y-76951000D02*
X73496800Y-76951000D01*
X63256800Y-72310000D02*
X63256800Y-76951000D01*
X73496800Y-72310000D02*
X73496800Y-76951000D01*
X63256800Y-73820000D02*
X73496800Y-73820000D01*
X66526800Y-72310000D02*
X66526800Y-73820000D01*
X70227800Y-72310000D02*
X70227800Y-73820000D01*
X75020000Y-83748000D02*
X77680000Y-83748000D01*
X75020000Y-35428000D02*
X75020000Y-83748000D01*
X77680000Y-35428000D02*
X77680000Y-83748000D01*
X75020000Y-35428000D02*
X77680000Y-35428000D01*
X75020000Y-34158000D02*
X75020000Y-32828000D01*
X75020000Y-32828000D02*
X76350000Y-32828000D01*
X66457200Y-46420400D02*
X66457200Y-41300400D01*
X69077200Y-46420400D02*
X69077200Y-41300400D01*
X66457200Y-46420400D02*
X69077200Y-46420400D01*
X66457200Y-41300400D02*
X69077200Y-41300400D01*
X63307600Y-46471200D02*
X63307600Y-41351200D01*
X65927600Y-46471200D02*
X65927600Y-41351200D01*
X63307600Y-46471200D02*
X65927600Y-46471200D01*
X63307600Y-41351200D02*
X65927600Y-41351200D01*
X68794000Y-35520000D02*
X73914000Y-35520000D01*
X68794000Y-38140000D02*
X73914000Y-38140000D01*
X68794000Y-35520000D02*
X68794000Y-38140000D01*
X73914000Y-35520000D02*
X73914000Y-38140000D01*
X68543800Y-38063800D02*
X63423800Y-38063800D01*
X68543800Y-35443800D02*
X63423800Y-35443800D01*
X68543800Y-38063800D02*
X68543800Y-35443800D01*
X63423800Y-38063800D02*
X63423800Y-35443800D01*
X64024200Y-32261500D02*
X64024200Y-34921500D01*
X71704200Y-32261500D02*
X64024200Y-32261500D01*
X71704200Y-34921500D02*
X64024200Y-34921500D01*
X71704200Y-32261500D02*
X71704200Y-34921500D01*
X72974200Y-32261500D02*
X74304200Y-32261500D01*
X74304200Y-32261500D02*
X74304200Y-33591500D01*
X68575217Y-38891137D02*
G75*
G03X66675000Y-38890856I-950217J-732863D01*
G01*
X68575217Y-40356863D02*
G75*
G02X66675000Y-40357144I-950217J732863D01*
G01*
X68747000Y-49506500D02*
X63627000Y-49506500D01*
X68747000Y-46886500D02*
X63627000Y-46886500D01*
X68747000Y-49506500D02*
X68747000Y-46886500D01*
X63627000Y-49506500D02*
X63627000Y-46886500D01*
X66203723Y-87629722D02*
G75*
G03X66204000Y-83018420I-1179723J2305722D01*
G01*
X63844277Y-87629722D02*
G75*
G02X63844000Y-83018420I1179723J2305722D01*
G01*
X63844277Y-87629722D02*
G75*
G03X66204000Y-87629580I1179723J2305722D01*
G01*
X67574000Y-85324000D02*
X62474000Y-85324000D01*
X67574000Y-85364000D02*
X62474000Y-85364000D01*
X67573000Y-85404000D02*
X62475000Y-85404000D01*
X67572000Y-85444000D02*
X62476000Y-85444000D01*
X67570000Y-85484000D02*
X62478000Y-85484000D01*
X67567000Y-85524000D02*
X62481000Y-85524000D01*
X67563000Y-85564000D02*
X62485000Y-85564000D01*
X67559000Y-85604000D02*
X66004000Y-85604000D01*
X64044000Y-85604000D02*
X62489000Y-85604000D01*
X67555000Y-85644000D02*
X66004000Y-85644000D01*
X64044000Y-85644000D02*
X62493000Y-85644000D01*
X67549000Y-85684000D02*
X66004000Y-85684000D01*
X64044000Y-85684000D02*
X62499000Y-85684000D01*
X67543000Y-85724000D02*
X66004000Y-85724000D01*
X64044000Y-85724000D02*
X62505000Y-85724000D01*
X67537000Y-85764000D02*
X66004000Y-85764000D01*
X64044000Y-85764000D02*
X62511000Y-85764000D01*
X67530000Y-85804000D02*
X66004000Y-85804000D01*
X64044000Y-85804000D02*
X62518000Y-85804000D01*
X67522000Y-85844000D02*
X66004000Y-85844000D01*
X64044000Y-85844000D02*
X62526000Y-85844000D01*
X67513000Y-85884000D02*
X66004000Y-85884000D01*
X64044000Y-85884000D02*
X62535000Y-85884000D01*
X67504000Y-85924000D02*
X66004000Y-85924000D01*
X64044000Y-85924000D02*
X62544000Y-85924000D01*
X67494000Y-85964000D02*
X66004000Y-85964000D01*
X64044000Y-85964000D02*
X62554000Y-85964000D01*
X67484000Y-86004000D02*
X66004000Y-86004000D01*
X64044000Y-86004000D02*
X62564000Y-86004000D01*
X67472000Y-86045000D02*
X66004000Y-86045000D01*
X64044000Y-86045000D02*
X62576000Y-86045000D01*
X67460000Y-86085000D02*
X66004000Y-86085000D01*
X64044000Y-86085000D02*
X62588000Y-86085000D01*
X67448000Y-86125000D02*
X66004000Y-86125000D01*
X64044000Y-86125000D02*
X62600000Y-86125000D01*
X67434000Y-86165000D02*
X66004000Y-86165000D01*
X64044000Y-86165000D02*
X62614000Y-86165000D01*
X67420000Y-86205000D02*
X66004000Y-86205000D01*
X64044000Y-86205000D02*
X62628000Y-86205000D01*
X67406000Y-86245000D02*
X66004000Y-86245000D01*
X64044000Y-86245000D02*
X62642000Y-86245000D01*
X67390000Y-86285000D02*
X66004000Y-86285000D01*
X64044000Y-86285000D02*
X62658000Y-86285000D01*
X67374000Y-86325000D02*
X66004000Y-86325000D01*
X64044000Y-86325000D02*
X62674000Y-86325000D01*
X67357000Y-86365000D02*
X66004000Y-86365000D01*
X64044000Y-86365000D02*
X62691000Y-86365000D01*
X67339000Y-86405000D02*
X66004000Y-86405000D01*
X64044000Y-86405000D02*
X62709000Y-86405000D01*
X67320000Y-86445000D02*
X66004000Y-86445000D01*
X64044000Y-86445000D02*
X62728000Y-86445000D01*
X67300000Y-86485000D02*
X66004000Y-86485000D01*
X64044000Y-86485000D02*
X62748000Y-86485000D01*
X67280000Y-86525000D02*
X66004000Y-86525000D01*
X64044000Y-86525000D02*
X62768000Y-86525000D01*
X67258000Y-86565000D02*
X66004000Y-86565000D01*
X64044000Y-86565000D02*
X62790000Y-86565000D01*
X67236000Y-86605000D02*
X66004000Y-86605000D01*
X64044000Y-86605000D02*
X62812000Y-86605000D01*
X67213000Y-86645000D02*
X66004000Y-86645000D01*
X64044000Y-86645000D02*
X62835000Y-86645000D01*
X67189000Y-86685000D02*
X66004000Y-86685000D01*
X64044000Y-86685000D02*
X62859000Y-86685000D01*
X67164000Y-86725000D02*
X66004000Y-86725000D01*
X64044000Y-86725000D02*
X62884000Y-86725000D01*
X67137000Y-86765000D02*
X66004000Y-86765000D01*
X64044000Y-86765000D02*
X62911000Y-86765000D01*
X67110000Y-86805000D02*
X66004000Y-86805000D01*
X64044000Y-86805000D02*
X62938000Y-86805000D01*
X67082000Y-86845000D02*
X66004000Y-86845000D01*
X64044000Y-86845000D02*
X62966000Y-86845000D01*
X67052000Y-86885000D02*
X66004000Y-86885000D01*
X64044000Y-86885000D02*
X62996000Y-86885000D01*
X67021000Y-86925000D02*
X66004000Y-86925000D01*
X64044000Y-86925000D02*
X63027000Y-86925000D01*
X66989000Y-86965000D02*
X66004000Y-86965000D01*
X64044000Y-86965000D02*
X63059000Y-86965000D01*
X66956000Y-87005000D02*
X66004000Y-87005000D01*
X64044000Y-87005000D02*
X63092000Y-87005000D01*
X66921000Y-87045000D02*
X66004000Y-87045000D01*
X64044000Y-87045000D02*
X63127000Y-87045000D01*
X66885000Y-87085000D02*
X66004000Y-87085000D01*
X64044000Y-87085000D02*
X63163000Y-87085000D01*
X66847000Y-87125000D02*
X66004000Y-87125000D01*
X64044000Y-87125000D02*
X63201000Y-87125000D01*
X66807000Y-87165000D02*
X66004000Y-87165000D01*
X64044000Y-87165000D02*
X63241000Y-87165000D01*
X66766000Y-87205000D02*
X66004000Y-87205000D01*
X64044000Y-87205000D02*
X63282000Y-87205000D01*
X66723000Y-87245000D02*
X66004000Y-87245000D01*
X64044000Y-87245000D02*
X63325000Y-87245000D01*
X66678000Y-87285000D02*
X66004000Y-87285000D01*
X64044000Y-87285000D02*
X63370000Y-87285000D01*
X66630000Y-87325000D02*
X66004000Y-87325000D01*
X64044000Y-87325000D02*
X63418000Y-87325000D01*
X66580000Y-87365000D02*
X66004000Y-87365000D01*
X64044000Y-87365000D02*
X63468000Y-87365000D01*
X66528000Y-87405000D02*
X66004000Y-87405000D01*
X64044000Y-87405000D02*
X63520000Y-87405000D01*
X66472000Y-87445000D02*
X66004000Y-87445000D01*
X64044000Y-87445000D02*
X63576000Y-87445000D01*
X66414000Y-87485000D02*
X66004000Y-87485000D01*
X64044000Y-87485000D02*
X63634000Y-87485000D01*
X66351000Y-87525000D02*
X66004000Y-87525000D01*
X64044000Y-87525000D02*
X63697000Y-87525000D01*
X66285000Y-87565000D02*
X63763000Y-87565000D01*
X66213000Y-87605000D02*
X63835000Y-87605000D01*
X66136000Y-87645000D02*
X63912000Y-87645000D01*
X66052000Y-87685000D02*
X63996000Y-87685000D01*
X65958000Y-87725000D02*
X64090000Y-87725000D01*
X65853000Y-87765000D02*
X64195000Y-87765000D01*
X65731000Y-87805000D02*
X64317000Y-87805000D01*
X65583000Y-87845000D02*
X64465000Y-87845000D01*
X65378000Y-87885000D02*
X64670000Y-87885000D01*
X65024000Y-81874000D02*
X65024000Y-83074000D01*
X65674000Y-82474000D02*
X64374000Y-82474000D01*
X71617200Y-71820400D02*
X66497200Y-71820400D01*
X71617200Y-69200400D02*
X66497200Y-69200400D01*
X71617200Y-71820400D02*
X71617200Y-69200400D01*
X66497200Y-71820400D02*
X66497200Y-69200400D01*
X63844277Y-77216278D02*
G75*
G03X63844000Y-81827580I1179723J-2305722D01*
G01*
X66203723Y-77216278D02*
G75*
G02X66204000Y-81827580I-1179723J-2305722D01*
G01*
X66203723Y-77216278D02*
G75*
G03X63844000Y-77216420I-1179723J-2305722D01*
G01*
X62474000Y-79522000D02*
X67574000Y-79522000D01*
X62474000Y-79482000D02*
X67574000Y-79482000D01*
X62475000Y-79442000D02*
X67573000Y-79442000D01*
X62476000Y-79402000D02*
X67572000Y-79402000D01*
X62478000Y-79362000D02*
X67570000Y-79362000D01*
X62481000Y-79322000D02*
X67567000Y-79322000D01*
X62485000Y-79282000D02*
X67563000Y-79282000D01*
X62489000Y-79242000D02*
X64044000Y-79242000D01*
X66004000Y-79242000D02*
X67559000Y-79242000D01*
X62493000Y-79202000D02*
X64044000Y-79202000D01*
X66004000Y-79202000D02*
X67555000Y-79202000D01*
X62499000Y-79162000D02*
X64044000Y-79162000D01*
X66004000Y-79162000D02*
X67549000Y-79162000D01*
X62505000Y-79122000D02*
X64044000Y-79122000D01*
X66004000Y-79122000D02*
X67543000Y-79122000D01*
X62511000Y-79082000D02*
X64044000Y-79082000D01*
X66004000Y-79082000D02*
X67537000Y-79082000D01*
X62518000Y-79042000D02*
X64044000Y-79042000D01*
X66004000Y-79042000D02*
X67530000Y-79042000D01*
X62526000Y-79002000D02*
X64044000Y-79002000D01*
X66004000Y-79002000D02*
X67522000Y-79002000D01*
X62535000Y-78962000D02*
X64044000Y-78962000D01*
X66004000Y-78962000D02*
X67513000Y-78962000D01*
X62544000Y-78922000D02*
X64044000Y-78922000D01*
X66004000Y-78922000D02*
X67504000Y-78922000D01*
X62554000Y-78882000D02*
X64044000Y-78882000D01*
X66004000Y-78882000D02*
X67494000Y-78882000D01*
X62564000Y-78842000D02*
X64044000Y-78842000D01*
X66004000Y-78842000D02*
X67484000Y-78842000D01*
X62576000Y-78801000D02*
X64044000Y-78801000D01*
X66004000Y-78801000D02*
X67472000Y-78801000D01*
X62588000Y-78761000D02*
X64044000Y-78761000D01*
X66004000Y-78761000D02*
X67460000Y-78761000D01*
X62600000Y-78721000D02*
X64044000Y-78721000D01*
X66004000Y-78721000D02*
X67448000Y-78721000D01*
X62614000Y-78681000D02*
X64044000Y-78681000D01*
X66004000Y-78681000D02*
X67434000Y-78681000D01*
X62628000Y-78641000D02*
X64044000Y-78641000D01*
X66004000Y-78641000D02*
X67420000Y-78641000D01*
X62642000Y-78601000D02*
X64044000Y-78601000D01*
X66004000Y-78601000D02*
X67406000Y-78601000D01*
X62658000Y-78561000D02*
X64044000Y-78561000D01*
X66004000Y-78561000D02*
X67390000Y-78561000D01*
X62674000Y-78521000D02*
X64044000Y-78521000D01*
X66004000Y-78521000D02*
X67374000Y-78521000D01*
X62691000Y-78481000D02*
X64044000Y-78481000D01*
X66004000Y-78481000D02*
X67357000Y-78481000D01*
X62709000Y-78441000D02*
X64044000Y-78441000D01*
X66004000Y-78441000D02*
X67339000Y-78441000D01*
X62728000Y-78401000D02*
X64044000Y-78401000D01*
X66004000Y-78401000D02*
X67320000Y-78401000D01*
X62748000Y-78361000D02*
X64044000Y-78361000D01*
X66004000Y-78361000D02*
X67300000Y-78361000D01*
X62768000Y-78321000D02*
X64044000Y-78321000D01*
X66004000Y-78321000D02*
X67280000Y-78321000D01*
X62790000Y-78281000D02*
X64044000Y-78281000D01*
X66004000Y-78281000D02*
X67258000Y-78281000D01*
X62812000Y-78241000D02*
X64044000Y-78241000D01*
X66004000Y-78241000D02*
X67236000Y-78241000D01*
X62835000Y-78201000D02*
X64044000Y-78201000D01*
X66004000Y-78201000D02*
X67213000Y-78201000D01*
X62859000Y-78161000D02*
X64044000Y-78161000D01*
X66004000Y-78161000D02*
X67189000Y-78161000D01*
X62884000Y-78121000D02*
X64044000Y-78121000D01*
X66004000Y-78121000D02*
X67164000Y-78121000D01*
X62911000Y-78081000D02*
X64044000Y-78081000D01*
X66004000Y-78081000D02*
X67137000Y-78081000D01*
X62938000Y-78041000D02*
X64044000Y-78041000D01*
X66004000Y-78041000D02*
X67110000Y-78041000D01*
X62966000Y-78001000D02*
X64044000Y-78001000D01*
X66004000Y-78001000D02*
X67082000Y-78001000D01*
X62996000Y-77961000D02*
X64044000Y-77961000D01*
X66004000Y-77961000D02*
X67052000Y-77961000D01*
X63027000Y-77921000D02*
X64044000Y-77921000D01*
X66004000Y-77921000D02*
X67021000Y-77921000D01*
X63059000Y-77881000D02*
X64044000Y-77881000D01*
X66004000Y-77881000D02*
X66989000Y-77881000D01*
X63092000Y-77841000D02*
X64044000Y-77841000D01*
X66004000Y-77841000D02*
X66956000Y-77841000D01*
X63127000Y-77801000D02*
X64044000Y-77801000D01*
X66004000Y-77801000D02*
X66921000Y-77801000D01*
X63163000Y-77761000D02*
X64044000Y-77761000D01*
X66004000Y-77761000D02*
X66885000Y-77761000D01*
X63201000Y-77721000D02*
X64044000Y-77721000D01*
X66004000Y-77721000D02*
X66847000Y-77721000D01*
X63241000Y-77681000D02*
X64044000Y-77681000D01*
X66004000Y-77681000D02*
X66807000Y-77681000D01*
X63282000Y-77641000D02*
X64044000Y-77641000D01*
X66004000Y-77641000D02*
X66766000Y-77641000D01*
X63325000Y-77601000D02*
X64044000Y-77601000D01*
X66004000Y-77601000D02*
X66723000Y-77601000D01*
X63370000Y-77561000D02*
X64044000Y-77561000D01*
X66004000Y-77561000D02*
X66678000Y-77561000D01*
X63418000Y-77521000D02*
X64044000Y-77521000D01*
X66004000Y-77521000D02*
X66630000Y-77521000D01*
X63468000Y-77481000D02*
X64044000Y-77481000D01*
X66004000Y-77481000D02*
X66580000Y-77481000D01*
X63520000Y-77441000D02*
X64044000Y-77441000D01*
X66004000Y-77441000D02*
X66528000Y-77441000D01*
X63576000Y-77401000D02*
X64044000Y-77401000D01*
X66004000Y-77401000D02*
X66472000Y-77401000D01*
X63634000Y-77361000D02*
X64044000Y-77361000D01*
X66004000Y-77361000D02*
X66414000Y-77361000D01*
X63697000Y-77321000D02*
X64044000Y-77321000D01*
X66004000Y-77321000D02*
X66351000Y-77321000D01*
X63763000Y-77281000D02*
X66285000Y-77281000D01*
X63835000Y-77241000D02*
X66213000Y-77241000D01*
X63912000Y-77201000D02*
X66136000Y-77201000D01*
X63996000Y-77161000D02*
X66052000Y-77161000D01*
X64090000Y-77121000D02*
X65958000Y-77121000D01*
X64195000Y-77081000D02*
X65853000Y-77081000D01*
X64317000Y-77041000D02*
X65731000Y-77041000D01*
X64465000Y-77001000D02*
X65583000Y-77001000D01*
X64670000Y-76961000D02*
X65378000Y-76961000D01*
X65024000Y-82972000D02*
X65024000Y-81772000D01*
X64374000Y-82372000D02*
X65674000Y-82372000D01*
X64429000Y-96480000D02*
X64429000Y-101600000D01*
X61809000Y-96480000D02*
X61809000Y-101600000D01*
X64429000Y-96480000D02*
X61809000Y-96480000D01*
X64429000Y-101600000D02*
X61809000Y-101600000D01*
X62040392Y-103864665D02*
G75*
G03X61883484Y-107097000I1078608J-1672335D01*
G01*
X64197608Y-103864665D02*
G75*
G02X64354516Y-107097000I-1078608J-1672335D01*
G01*
X62039163Y-104495870D02*
G75*
G03X62039000Y-106577961I1079837J-1041130D01*
G01*
X64198837Y-104495870D02*
G75*
G02X64199000Y-106577961I-1079837J-1041130D01*
G01*
X61883000Y-107097000D02*
X62039000Y-107097000D01*
X64199000Y-107097000D02*
X64355000Y-107097000D01*
X70622000Y-80271000D02*
X70752000Y-80271000D01*
X70752000Y-80271000D02*
X70752000Y-85591000D01*
X70752000Y-85591000D02*
X70622000Y-85591000D01*
X68062000Y-80271000D02*
X67932000Y-80271000D01*
X67932000Y-80271000D02*
X67932000Y-85591000D01*
X67932000Y-85591000D02*
X68062000Y-85591000D01*
X70752000Y-81111000D02*
X67932000Y-81111000D01*
X73924000Y-80271000D02*
X74054000Y-80271000D01*
X74054000Y-80271000D02*
X74054000Y-85591000D01*
X74054000Y-85591000D02*
X73924000Y-85591000D01*
X71364000Y-80271000D02*
X71234000Y-80271000D01*
X71234000Y-80271000D02*
X71234000Y-85591000D01*
X71234000Y-85591000D02*
X71364000Y-85591000D01*
X74054000Y-81111000D02*
X71234000Y-81111000D01*
X66798000Y-107188000D02*
X66798000Y-115828000D01*
X66798000Y-98808000D02*
X66798000Y-103888000D01*
X78998000Y-107188000D02*
X78998000Y-115828000D01*
X78998000Y-98808000D02*
X78998000Y-103888000D01*
X78998000Y-115828000D02*
X66798000Y-115828000D01*
X66798000Y-98808000D02*
X78998000Y-98808000D01*
X71134800Y-90008000D02*
X71464800Y-90008000D01*
X71464800Y-90008000D02*
X71464800Y-96428000D01*
X71464800Y-96428000D02*
X71134800Y-96428000D01*
X69174800Y-90008000D02*
X68844800Y-90008000D01*
X68844800Y-90008000D02*
X68844800Y-96428000D01*
X68844800Y-96428000D02*
X69174800Y-96428000D01*
X77891200Y-89906400D02*
X78221200Y-89906400D01*
X78221200Y-89906400D02*
X78221200Y-96326400D01*
X78221200Y-96326400D02*
X77891200Y-96326400D01*
X75931200Y-89906400D02*
X75601200Y-89906400D01*
X75601200Y-89906400D02*
X75601200Y-96326400D01*
X75601200Y-96326400D02*
X75931200Y-96326400D01*
X74906700Y-89982600D02*
X75236700Y-89982600D01*
X75236700Y-89982600D02*
X75236700Y-96402600D01*
X75236700Y-96402600D02*
X74906700Y-96402600D01*
X72946700Y-89982600D02*
X72616700Y-89982600D01*
X72616700Y-89982600D02*
X72616700Y-96402600D01*
X72616700Y-96402600D02*
X72946700Y-96402600D01*
X58638000Y-85436000D02*
X58968000Y-85436000D01*
X58968000Y-85436000D02*
X58968000Y-91856000D01*
X58968000Y-91856000D02*
X58638000Y-91856000D01*
X56678000Y-85436000D02*
X56348000Y-85436000D01*
X56348000Y-85436000D02*
X56348000Y-91856000D01*
X56348000Y-91856000D02*
X56678000Y-91856000D01*
X61114500Y-97818500D02*
X61444500Y-97818500D01*
X61444500Y-97818500D02*
X61444500Y-104238500D01*
X61444500Y-104238500D02*
X61114500Y-104238500D01*
X59154500Y-97818500D02*
X58824500Y-97818500D01*
X58824500Y-97818500D02*
X58824500Y-104238500D01*
X58824500Y-104238500D02*
X59154500Y-104238500D01*
X63650500Y-72112500D02*
X63650500Y-66992500D01*
X66270500Y-72112500D02*
X66270500Y-66992500D01*
X63650500Y-72112500D02*
X66270500Y-72112500D01*
X63650500Y-66992500D02*
X66270500Y-66992500D01*
X68794000Y-63688600D02*
X73914000Y-63688600D01*
X68794000Y-66308600D02*
X73914000Y-66308600D01*
X68794000Y-63688600D02*
X68794000Y-66308600D01*
X73914000Y-63688600D02*
X73914000Y-66308600D01*
X80933600Y-88433600D02*
X78273600Y-88433600D01*
X80933600Y-93573600D02*
X80933600Y-88433600D01*
X78273600Y-93573600D02*
X78273600Y-88433600D01*
X80933600Y-93573600D02*
X78273600Y-93573600D01*
X80933600Y-94843600D02*
X80933600Y-96173600D01*
X80933600Y-96173600D02*
X79603600Y-96173600D01*
X58447500Y-95469000D02*
X58777500Y-95469000D01*
X58777500Y-95469000D02*
X58777500Y-101889000D01*
X58777500Y-101889000D02*
X58447500Y-101889000D01*
X56487500Y-95469000D02*
X56157500Y-95469000D01*
X56157500Y-95469000D02*
X56157500Y-101889000D01*
X56157500Y-101889000D02*
X56487500Y-101889000D01*
D11*
X62444381Y-34826533D02*
X63158667Y-34826533D01*
X63301524Y-34874153D01*
X63396762Y-34969391D01*
X63444381Y-35112248D01*
X63444381Y-35207486D01*
X62444381Y-33874152D02*
X62444381Y-34350343D01*
X62920571Y-34397962D01*
X62872952Y-34350343D01*
X62825333Y-34255105D01*
X62825333Y-34017009D01*
X62872952Y-33921771D01*
X62920571Y-33874152D01*
X63015810Y-33826533D01*
X63253905Y-33826533D01*
X63349143Y-33874152D01*
X63396762Y-33921771D01*
X63444381Y-34017009D01*
X63444381Y-34255105D01*
X63396762Y-34350343D01*
X63349143Y-34397962D01*
X63788967Y-91933781D02*
X63788967Y-92648067D01*
X63741347Y-92790924D01*
X63646109Y-92886162D01*
X63503252Y-92933781D01*
X63408014Y-92933781D01*
X64169919Y-91933781D02*
X64836586Y-91933781D01*
X64408014Y-92933781D01*
X68316861Y-57373425D02*
X69126385Y-57373425D01*
X69221623Y-57325806D01*
X69269242Y-57278187D01*
X69316861Y-57182949D01*
X69316861Y-56992472D01*
X69269242Y-56897234D01*
X69221623Y-56849615D01*
X69126385Y-56801996D01*
X68316861Y-56801996D01*
X68412099Y-56373425D02*
X68364480Y-56325806D01*
X68316861Y-56230568D01*
X68316861Y-55992472D01*
X68364480Y-55897234D01*
X68412099Y-55849615D01*
X68507337Y-55801996D01*
X68602575Y-55801996D01*
X68745432Y-55849615D01*
X69316861Y-56421044D01*
X69316861Y-55801996D01*
X71985190Y-44672191D02*
X72461381Y-44672191D01*
X71461381Y-45005524D02*
X71985190Y-44672191D01*
X71461381Y-44338857D01*
X72461381Y-43481714D02*
X72461381Y-44053143D01*
X72461381Y-43767429D02*
X71461381Y-43767429D01*
X71604238Y-43862667D01*
X71699476Y-43957905D01*
X71747095Y-44053143D01*
X67945095Y-72540881D02*
X67945095Y-73350405D01*
X67992714Y-73445643D01*
X68040333Y-73493262D01*
X68135571Y-73540881D01*
X68326048Y-73540881D01*
X68421286Y-73493262D01*
X68468905Y-73445643D01*
X68516524Y-73350405D01*
X68516524Y-72540881D01*
X69516524Y-73540881D02*
X68945095Y-73540881D01*
X69230809Y-73540881D02*
X69230809Y-72540881D01*
X69135571Y-72683738D01*
X69040333Y-72778976D01*
X68945095Y-72826595D01*
X74077581Y-34216933D02*
X74791867Y-34216933D01*
X74934724Y-34264553D01*
X75029962Y-34359791D01*
X75077581Y-34502648D01*
X75077581Y-34597886D01*
X75077581Y-33693124D02*
X75077581Y-33502648D01*
X75029962Y-33407409D01*
X74982343Y-33359790D01*
X74839486Y-33264552D01*
X74649010Y-33216933D01*
X74268057Y-33216933D01*
X74172819Y-33264552D01*
X74125200Y-33312171D01*
X74077581Y-33407409D01*
X74077581Y-33597886D01*
X74125200Y-33693124D01*
X74172819Y-33740743D01*
X74268057Y-33788362D01*
X74506152Y-33788362D01*
X74601390Y-33740743D01*
X74649010Y-33693124D01*
X74696629Y-33597886D01*
X74696629Y-33407409D01*
X74649010Y-33312171D01*
X74601390Y-33264552D01*
X74506152Y-33216933D01*
X70702443Y-44889657D02*
X70750062Y-44937276D01*
X70797681Y-45080133D01*
X70797681Y-45175371D01*
X70750062Y-45318229D01*
X70654824Y-45413467D01*
X70559586Y-45461086D01*
X70369110Y-45508705D01*
X70226252Y-45508705D01*
X70035776Y-45461086D01*
X69940538Y-45413467D01*
X69845300Y-45318229D01*
X69797681Y-45175371D01*
X69797681Y-45080133D01*
X69845300Y-44937276D01*
X69892919Y-44889657D01*
X70797681Y-43937276D02*
X70797681Y-44508705D01*
X70797681Y-44222991D02*
X69797681Y-44222991D01*
X69940538Y-44318229D01*
X70035776Y-44413467D01*
X70083395Y-44508705D01*
X69892919Y-43556324D02*
X69845300Y-43508705D01*
X69797681Y-43413467D01*
X69797681Y-43175371D01*
X69845300Y-43080133D01*
X69892919Y-43032514D01*
X69988157Y-42984895D01*
X70083395Y-42984895D01*
X70226252Y-43032514D01*
X70797681Y-43603943D01*
X70797681Y-42984895D01*
X63911243Y-41035243D02*
X63863624Y-41082862D01*
X63720767Y-41130481D01*
X63625529Y-41130481D01*
X63482671Y-41082862D01*
X63387433Y-40987624D01*
X63339814Y-40892386D01*
X63292195Y-40701910D01*
X63292195Y-40559052D01*
X63339814Y-40368576D01*
X63387433Y-40273338D01*
X63482671Y-40178100D01*
X63625529Y-40130481D01*
X63720767Y-40130481D01*
X63863624Y-40178100D01*
X63911243Y-40225719D01*
X64863624Y-41130481D02*
X64292195Y-41130481D01*
X64577909Y-41130481D02*
X64577909Y-40130481D01*
X64482671Y-40273338D01*
X64387433Y-40368576D01*
X64292195Y-40416195D01*
X65720767Y-40463814D02*
X65720767Y-41130481D01*
X65482671Y-40082862D02*
X65244576Y-40797148D01*
X65863624Y-40797148D01*
X74626743Y-37498257D02*
X74674362Y-37545876D01*
X74721981Y-37688733D01*
X74721981Y-37783971D01*
X74674362Y-37926829D01*
X74579124Y-38022067D01*
X74483886Y-38069686D01*
X74293410Y-38117305D01*
X74150552Y-38117305D01*
X73960076Y-38069686D01*
X73864838Y-38022067D01*
X73769600Y-37926829D01*
X73721981Y-37783971D01*
X73721981Y-37688733D01*
X73769600Y-37545876D01*
X73817219Y-37498257D01*
X74721981Y-36545876D02*
X74721981Y-37117305D01*
X74721981Y-36831591D02*
X73721981Y-36831591D01*
X73864838Y-36926829D01*
X73960076Y-37022067D01*
X74007695Y-37117305D01*
X73721981Y-35641114D02*
X73721981Y-36117305D01*
X74198171Y-36164924D01*
X74150552Y-36117305D01*
X74102933Y-36022067D01*
X74102933Y-35783971D01*
X74150552Y-35688733D01*
X74198171Y-35641114D01*
X74293410Y-35593495D01*
X74531505Y-35593495D01*
X74626743Y-35641114D01*
X74674362Y-35688733D01*
X74721981Y-35783971D01*
X74721981Y-36022067D01*
X74674362Y-36117305D01*
X74626743Y-36164924D01*
X63120543Y-37625257D02*
X63168162Y-37672876D01*
X63215781Y-37815733D01*
X63215781Y-37910971D01*
X63168162Y-38053829D01*
X63072924Y-38149067D01*
X62977686Y-38196686D01*
X62787210Y-38244305D01*
X62644352Y-38244305D01*
X62453876Y-38196686D01*
X62358638Y-38149067D01*
X62263400Y-38053829D01*
X62215781Y-37910971D01*
X62215781Y-37815733D01*
X62263400Y-37672876D01*
X62311019Y-37625257D01*
X63215781Y-36672876D02*
X63215781Y-37244305D01*
X63215781Y-36958591D02*
X62215781Y-36958591D01*
X62358638Y-37053829D01*
X62453876Y-37149067D01*
X62501495Y-37244305D01*
X62215781Y-35815733D02*
X62215781Y-36006210D01*
X62263400Y-36101448D01*
X62311019Y-36149067D01*
X62453876Y-36244305D01*
X62644352Y-36291924D01*
X63025305Y-36291924D01*
X63120543Y-36244305D01*
X63168162Y-36196686D01*
X63215781Y-36101448D01*
X63215781Y-35910971D01*
X63168162Y-35815733D01*
X63120543Y-35768114D01*
X63025305Y-35720495D01*
X62787210Y-35720495D01*
X62691971Y-35768114D01*
X62644352Y-35815733D01*
X62596733Y-35910971D01*
X62596733Y-36101448D01*
X62644352Y-36196686D01*
X62691971Y-36244305D01*
X62787210Y-36291924D01*
X62647581Y-33099333D02*
X63361867Y-33099333D01*
X63504724Y-33146953D01*
X63599962Y-33242191D01*
X63647581Y-33385048D01*
X63647581Y-33480286D01*
X62980914Y-32194571D02*
X63647581Y-32194571D01*
X62599962Y-32432667D02*
X63314248Y-32670762D01*
X63314248Y-32051714D01*
X64420809Y-39155690D02*
X64420809Y-39631881D01*
X64087476Y-38631881D02*
X64420809Y-39155690D01*
X64754143Y-38631881D01*
X65039857Y-38727119D02*
X65087476Y-38679500D01*
X65182714Y-38631881D01*
X65420810Y-38631881D01*
X65516048Y-38679500D01*
X65563667Y-38727119D01*
X65611286Y-38822357D01*
X65611286Y-38917595D01*
X65563667Y-39060452D01*
X64992238Y-39631881D01*
X65611286Y-39631881D01*
X69749943Y-48528266D02*
X69797562Y-48575885D01*
X69845181Y-48718742D01*
X69845181Y-48813980D01*
X69797562Y-48956838D01*
X69702324Y-49052076D01*
X69607086Y-49099695D01*
X69416610Y-49147314D01*
X69273752Y-49147314D01*
X69083276Y-49099695D01*
X68988038Y-49052076D01*
X68892800Y-48956838D01*
X68845181Y-48813980D01*
X68845181Y-48718742D01*
X68892800Y-48575885D01*
X68940419Y-48528266D01*
X69273752Y-47956838D02*
X69226133Y-48052076D01*
X69178514Y-48099695D01*
X69083276Y-48147314D01*
X69035657Y-48147314D01*
X68940419Y-48099695D01*
X68892800Y-48052076D01*
X68845181Y-47956838D01*
X68845181Y-47766361D01*
X68892800Y-47671123D01*
X68940419Y-47623504D01*
X69035657Y-47575885D01*
X69083276Y-47575885D01*
X69178514Y-47623504D01*
X69226133Y-47671123D01*
X69273752Y-47766361D01*
X69273752Y-47956838D01*
X69321371Y-48052076D01*
X69368990Y-48099695D01*
X69464229Y-48147314D01*
X69654705Y-48147314D01*
X69749943Y-48099695D01*
X69797562Y-48052076D01*
X69845181Y-47956838D01*
X69845181Y-47766361D01*
X69797562Y-47671123D01*
X69749943Y-47623504D01*
X69654705Y-47575885D01*
X69464229Y-47575885D01*
X69368990Y-47623504D01*
X69321371Y-47671123D01*
X69273752Y-47766361D01*
X67197243Y-84100966D02*
X67244862Y-84148585D01*
X67292481Y-84291442D01*
X67292481Y-84386680D01*
X67244862Y-84529538D01*
X67149624Y-84624776D01*
X67054386Y-84672395D01*
X66863910Y-84720014D01*
X66721052Y-84720014D01*
X66530576Y-84672395D01*
X66435338Y-84624776D01*
X66340100Y-84529538D01*
X66292481Y-84386680D01*
X66292481Y-84291442D01*
X66340100Y-84148585D01*
X66387719Y-84100966D01*
X66292481Y-83767633D02*
X66292481Y-83100966D01*
X67292481Y-83529538D01*
X72950343Y-70804066D02*
X72997962Y-70851685D01*
X73045581Y-70994542D01*
X73045581Y-71089780D01*
X72997962Y-71232638D01*
X72902724Y-71327876D01*
X72807486Y-71375495D01*
X72617010Y-71423114D01*
X72474152Y-71423114D01*
X72283676Y-71375495D01*
X72188438Y-71327876D01*
X72093200Y-71232638D01*
X72045581Y-71089780D01*
X72045581Y-70994542D01*
X72093200Y-70851685D01*
X72140819Y-70804066D01*
X73045581Y-70327876D02*
X73045581Y-70137400D01*
X72997962Y-70042161D01*
X72950343Y-69994542D01*
X72807486Y-69899304D01*
X72617010Y-69851685D01*
X72236057Y-69851685D01*
X72140819Y-69899304D01*
X72093200Y-69946923D01*
X72045581Y-70042161D01*
X72045581Y-70232638D01*
X72093200Y-70327876D01*
X72140819Y-70375495D01*
X72236057Y-70423114D01*
X72474152Y-70423114D01*
X72569390Y-70375495D01*
X72617010Y-70327876D01*
X72664629Y-70232638D01*
X72664629Y-70042161D01*
X72617010Y-69946923D01*
X72569390Y-69899304D01*
X72474152Y-69851685D01*
X63603143Y-81668857D02*
X63650762Y-81716476D01*
X63698381Y-81859333D01*
X63698381Y-81954571D01*
X63650762Y-82097429D01*
X63555524Y-82192667D01*
X63460286Y-82240286D01*
X63269810Y-82287905D01*
X63126952Y-82287905D01*
X62936476Y-82240286D01*
X62841238Y-82192667D01*
X62746000Y-82097429D01*
X62698381Y-81954571D01*
X62698381Y-81859333D01*
X62746000Y-81716476D01*
X62793619Y-81668857D01*
X63698381Y-80716476D02*
X63698381Y-81287905D01*
X63698381Y-81002191D02*
X62698381Y-81002191D01*
X62841238Y-81097429D01*
X62936476Y-81192667D01*
X62984095Y-81287905D01*
X62698381Y-80383143D02*
X62698381Y-79764095D01*
X63079333Y-80097429D01*
X63079333Y-79954571D01*
X63126952Y-79859333D01*
X63174571Y-79811714D01*
X63269810Y-79764095D01*
X63507905Y-79764095D01*
X63603143Y-79811714D01*
X63650762Y-79859333D01*
X63698381Y-79954571D01*
X63698381Y-80240286D01*
X63650762Y-80335524D01*
X63603143Y-80383143D01*
X65206643Y-97893143D02*
X65159024Y-97940762D01*
X65016167Y-97988381D01*
X64920929Y-97988381D01*
X64778071Y-97940762D01*
X64682833Y-97845524D01*
X64635214Y-97750286D01*
X64587595Y-97559810D01*
X64587595Y-97416952D01*
X64635214Y-97226476D01*
X64682833Y-97131238D01*
X64778071Y-97036000D01*
X64920929Y-96988381D01*
X65016167Y-96988381D01*
X65159024Y-97036000D01*
X65206643Y-97083619D01*
X66159024Y-97988381D02*
X65587595Y-97988381D01*
X65873309Y-97988381D02*
X65873309Y-96988381D01*
X65778071Y-97131238D01*
X65682833Y-97226476D01*
X65587595Y-97274095D01*
X66492357Y-96988381D02*
X67159024Y-96988381D01*
X66730452Y-97988381D01*
X62518065Y-109149141D02*
X62518065Y-108149141D01*
X62756160Y-108149141D01*
X62899018Y-108196760D01*
X62994256Y-108291998D01*
X63041875Y-108387236D01*
X63089494Y-108577712D01*
X63089494Y-108720570D01*
X63041875Y-108911046D01*
X62994256Y-109006284D01*
X62899018Y-109101522D01*
X62756160Y-109149141D01*
X62518065Y-109149141D01*
X63946637Y-108482474D02*
X63946637Y-109149141D01*
X63708541Y-108101522D02*
X63470446Y-108815808D01*
X64089494Y-108815808D01*
X69794381Y-83656395D02*
X68794381Y-83656395D01*
X68794381Y-83418300D01*
X68842000Y-83275442D01*
X68937238Y-83180204D01*
X69032476Y-83132585D01*
X69222952Y-83084966D01*
X69365810Y-83084966D01*
X69556286Y-83132585D01*
X69651524Y-83180204D01*
X69746762Y-83275442D01*
X69794381Y-83418300D01*
X69794381Y-83656395D01*
X68794381Y-82180204D02*
X68794381Y-82656395D01*
X69270571Y-82704014D01*
X69222952Y-82656395D01*
X69175333Y-82561157D01*
X69175333Y-82323061D01*
X69222952Y-82227823D01*
X69270571Y-82180204D01*
X69365810Y-82132585D01*
X69603905Y-82132585D01*
X69699143Y-82180204D01*
X69746762Y-82227823D01*
X69794381Y-82323061D01*
X69794381Y-82561157D01*
X69746762Y-82656395D01*
X69699143Y-82704014D01*
X73159881Y-83719895D02*
X72159881Y-83719895D01*
X72159881Y-83481800D01*
X72207500Y-83338942D01*
X72302738Y-83243704D01*
X72397976Y-83196085D01*
X72588452Y-83148466D01*
X72731310Y-83148466D01*
X72921786Y-83196085D01*
X73017024Y-83243704D01*
X73112262Y-83338942D01*
X73159881Y-83481800D01*
X73159881Y-83719895D01*
X72159881Y-82291323D02*
X72159881Y-82481800D01*
X72207500Y-82577038D01*
X72255119Y-82624657D01*
X72397976Y-82719895D01*
X72588452Y-82767514D01*
X72969405Y-82767514D01*
X73064643Y-82719895D01*
X73112262Y-82672276D01*
X73159881Y-82577038D01*
X73159881Y-82386561D01*
X73112262Y-82291323D01*
X73064643Y-82243704D01*
X72969405Y-82196085D01*
X72731310Y-82196085D01*
X72636071Y-82243704D01*
X72588452Y-82291323D01*
X72540833Y-82386561D01*
X72540833Y-82577038D01*
X72588452Y-82672276D01*
X72636071Y-82719895D01*
X72731310Y-82767514D01*
X72437667Y-105027481D02*
X72437667Y-105741767D01*
X72390047Y-105884624D01*
X72294809Y-105979862D01*
X72151952Y-106027481D01*
X72056714Y-106027481D01*
X72818619Y-105027481D02*
X73437667Y-105027481D01*
X73104333Y-105408433D01*
X73247191Y-105408433D01*
X73342429Y-105456052D01*
X73390048Y-105503671D01*
X73437667Y-105598910D01*
X73437667Y-105837005D01*
X73390048Y-105932243D01*
X73342429Y-105979862D01*
X73247191Y-106027481D01*
X72961476Y-106027481D01*
X72866238Y-105979862D01*
X72818619Y-105932243D01*
X70429381Y-93321166D02*
X69953190Y-93654500D01*
X70429381Y-93892595D02*
X69429381Y-93892595D01*
X69429381Y-93511642D01*
X69477000Y-93416404D01*
X69524619Y-93368785D01*
X69619857Y-93321166D01*
X69762714Y-93321166D01*
X69857952Y-93368785D01*
X69905571Y-93416404D01*
X69953190Y-93511642D01*
X69953190Y-93892595D01*
X69429381Y-92987833D02*
X69429381Y-92368785D01*
X69810333Y-92702119D01*
X69810333Y-92559261D01*
X69857952Y-92464023D01*
X69905571Y-92416404D01*
X70000810Y-92368785D01*
X70238905Y-92368785D01*
X70334143Y-92416404D01*
X70381762Y-92464023D01*
X70429381Y-92559261D01*
X70429381Y-92844976D01*
X70381762Y-92940214D01*
X70334143Y-92987833D01*
X77249281Y-93168766D02*
X76773090Y-93502100D01*
X77249281Y-93740195D02*
X76249281Y-93740195D01*
X76249281Y-93359242D01*
X76296900Y-93264004D01*
X76344519Y-93216385D01*
X76439757Y-93168766D01*
X76582614Y-93168766D01*
X76677852Y-93216385D01*
X76725471Y-93264004D01*
X76773090Y-93359242D01*
X76773090Y-93740195D01*
X76582614Y-92311623D02*
X77249281Y-92311623D01*
X76201662Y-92549719D02*
X76915948Y-92787814D01*
X76915948Y-92168766D01*
X74328281Y-93232266D02*
X73852090Y-93565600D01*
X74328281Y-93803695D02*
X73328281Y-93803695D01*
X73328281Y-93422742D01*
X73375900Y-93327504D01*
X73423519Y-93279885D01*
X73518757Y-93232266D01*
X73661614Y-93232266D01*
X73756852Y-93279885D01*
X73804471Y-93327504D01*
X73852090Y-93422742D01*
X73852090Y-93803695D01*
X73328281Y-92375123D02*
X73328281Y-92565600D01*
X73375900Y-92660838D01*
X73423519Y-92708457D01*
X73566376Y-92803695D01*
X73756852Y-92851314D01*
X74137805Y-92851314D01*
X74233043Y-92803695D01*
X74280662Y-92756076D01*
X74328281Y-92660838D01*
X74328281Y-92470361D01*
X74280662Y-92375123D01*
X74233043Y-92327504D01*
X74137805Y-92279885D01*
X73899710Y-92279885D01*
X73804471Y-92327504D01*
X73756852Y-92375123D01*
X73709233Y-92470361D01*
X73709233Y-92660838D01*
X73756852Y-92756076D01*
X73804471Y-92803695D01*
X73899710Y-92851314D01*
X58110381Y-88812666D02*
X57634190Y-89146000D01*
X58110381Y-89384095D02*
X57110381Y-89384095D01*
X57110381Y-89003142D01*
X57158000Y-88907904D01*
X57205619Y-88860285D01*
X57300857Y-88812666D01*
X57443714Y-88812666D01*
X57538952Y-88860285D01*
X57586571Y-88907904D01*
X57634190Y-89003142D01*
X57634190Y-89384095D01*
X58110381Y-88336476D02*
X58110381Y-88146000D01*
X58062762Y-88050761D01*
X58015143Y-88003142D01*
X57872286Y-87907904D01*
X57681810Y-87860285D01*
X57300857Y-87860285D01*
X57205619Y-87907904D01*
X57158000Y-87955523D01*
X57110381Y-88050761D01*
X57110381Y-88241238D01*
X57158000Y-88336476D01*
X57205619Y-88384095D01*
X57300857Y-88431714D01*
X57538952Y-88431714D01*
X57634190Y-88384095D01*
X57681810Y-88336476D01*
X57729429Y-88241238D01*
X57729429Y-88050761D01*
X57681810Y-87955523D01*
X57634190Y-87907904D01*
X57538952Y-87860285D01*
X60586881Y-101684057D02*
X60110690Y-102017391D01*
X60586881Y-102255486D02*
X59586881Y-102255486D01*
X59586881Y-101874533D01*
X59634500Y-101779295D01*
X59682119Y-101731676D01*
X59777357Y-101684057D01*
X59920214Y-101684057D01*
X60015452Y-101731676D01*
X60063071Y-101779295D01*
X60110690Y-101874533D01*
X60110690Y-102255486D01*
X60586881Y-100731676D02*
X60586881Y-101303105D01*
X60586881Y-101017391D02*
X59586881Y-101017391D01*
X59729738Y-101112629D01*
X59824976Y-101207867D01*
X59872595Y-101303105D01*
X60586881Y-99779295D02*
X60586881Y-100350724D01*
X60586881Y-100065010D02*
X59586881Y-100065010D01*
X59729738Y-100160248D01*
X59824976Y-100255486D01*
X59872595Y-100350724D01*
X64857334Y-66397143D02*
X64809715Y-66444762D01*
X64666858Y-66492381D01*
X64571620Y-66492381D01*
X64428762Y-66444762D01*
X64333524Y-66349524D01*
X64285905Y-66254286D01*
X64238286Y-66063810D01*
X64238286Y-65920952D01*
X64285905Y-65730476D01*
X64333524Y-65635238D01*
X64428762Y-65540000D01*
X64571620Y-65492381D01*
X64666858Y-65492381D01*
X64809715Y-65540000D01*
X64857334Y-65587619D01*
X65809715Y-66492381D02*
X65238286Y-66492381D01*
X65524000Y-66492381D02*
X65524000Y-65492381D01*
X65428762Y-65635238D01*
X65333524Y-65730476D01*
X65238286Y-65778095D01*
X68048143Y-65317666D02*
X68095762Y-65365285D01*
X68143381Y-65508142D01*
X68143381Y-65603380D01*
X68095762Y-65746238D01*
X68000524Y-65841476D01*
X67905286Y-65889095D01*
X67714810Y-65936714D01*
X67571952Y-65936714D01*
X67381476Y-65889095D01*
X67286238Y-65841476D01*
X67191000Y-65746238D01*
X67143381Y-65603380D01*
X67143381Y-65508142D01*
X67191000Y-65365285D01*
X67238619Y-65317666D01*
X67238619Y-64936714D02*
X67191000Y-64889095D01*
X67143381Y-64793857D01*
X67143381Y-64555761D01*
X67191000Y-64460523D01*
X67238619Y-64412904D01*
X67333857Y-64365285D01*
X67429095Y-64365285D01*
X67571952Y-64412904D01*
X68143381Y-64984333D01*
X68143381Y-64365285D01*
X79335381Y-99893333D02*
X80049667Y-99893333D01*
X80192524Y-99940953D01*
X80287762Y-100036191D01*
X80335381Y-100179048D01*
X80335381Y-100274286D01*
X80335381Y-99417143D02*
X79335381Y-99417143D01*
X79335381Y-99036190D01*
X79383000Y-98940952D01*
X79430619Y-98893333D01*
X79525857Y-98845714D01*
X79668714Y-98845714D01*
X79763952Y-98893333D01*
X79811571Y-98940952D01*
X79859190Y-99036190D01*
X79859190Y-99417143D01*
X80335381Y-97893333D02*
X80335381Y-98464762D01*
X80335381Y-98179048D02*
X79335381Y-98179048D01*
X79478238Y-98274286D01*
X79573476Y-98369524D01*
X79621095Y-98464762D01*
X57961882Y-98972666D02*
X57485691Y-99306000D01*
X57961882Y-99544095D02*
X56961882Y-99544095D01*
X56961882Y-99163142D01*
X57009501Y-99067904D01*
X57057120Y-99020285D01*
X57152358Y-98972666D01*
X57295215Y-98972666D01*
X57390453Y-99020285D01*
X57438072Y-99067904D01*
X57485691Y-99163142D01*
X57485691Y-99544095D01*
X57961882Y-98020285D02*
X57961882Y-98591714D01*
X57961882Y-98306000D02*
X56961882Y-98306000D01*
X57104739Y-98401238D01*
X57199977Y-98496476D01*
X57247596Y-98591714D01*
M02*
